<?xml version="1.0" standalone="no"?>
<!DOCTYPE svg PUBLIC "-//W3C//DTD SVG 1.1//EN" "http://www.w3.org/Graphics/SVG/1.1/DTD/svg11.dtd" >
<svg xmlns="http://www.w3.org/2000/svg" xmlns:xlink="http://www.w3.org/1999/xlink" version="1.1">
<metadata>
Created by FontForge 20170731 at Wed Dec  6 09:17:23 2023
 By Aleksey,,,
Copyright (c) 2020 Wayne Shih
</metadata>
<defs>
<font id="Hauora-SemiBold" horiz-adv-x="1259" >
  <font-face 
    font-family="Hauora SemiBold"
    font-weight="600"
    font-stretch="normal"
    units-per-em="2048"
    panose-1="0 0 7 0 0 0 0 0 0 0"
    ascent="1638"
    descent="-410"
    x-height="1106"
    cap-height="1475"
    bbox="-332 -543 2568 2397.96"
    underline-thickness="51"
    underline-position="-153"
    unicode-range="U+000D-FB02"
  />
<missing-glyph horiz-adv-x="1515" 
d="M1311 1448h-1106v27h1106v-27zM1311 1329h-1106v33h1106v-33zM1311 1212h-1106v37h1106v-37zM1311 1092h-1106v43h1106v-43zM1311 975h-1106v45h1106v-45zM1311 858h-1106v49h1106v-49zM1311 737h-1106v58h1106v-58zM1311 621h-1106v61h1106v-61zM1311 502h-1106v67h1106
v-67zM1311 383h-1106v72h1106v-72zM1311 266h-1106v76h1106v-76zM1311 147h-1106v82h1106v-82zM1311 0h-1106v117h1106v-117z" />
    <glyph glyph-name="parenleft_c_parenright.liga" unicode="&#x28;c&#x29;" horiz-adv-x="1963" 
d="M982 -99q-167 0 -318.5 64.5t-261 174.5t-174 261t-64.5 318t64.5 318t174 261t261 174.5t318.5 64.5t318 -64.5t260.5 -174.5t174 -261t64.5 -318t-64.5 -318t-174 -261t-260.5 -174.5t-318 -64.5zM982 104q167 0 308 82.5t223 224t82 309.5q0 167 -82 308t-223 223
t-308 82q-168 0 -309.5 -82t-223.5 -223t-82 -308q0 -168 82 -309.5t223.5 -224t309.5 -82.5zM995 284q-195 0 -304 135q-97 121 -97 301q2 181 97 299q112 136 313 136q115 0 203 -54q116 -69 150 -202l-167 -46q-20 61 -75 104q-50 40 -121 40q-103 0 -168 -81
q-53 -69 -53 -195q0 -124 53 -198q60 -80 170 -80q77 0 123 37q44 37 68 98l170 -39q-41 -121 -132 -188t-230 -67z" />
    <glyph glyph-name="space_less_three_space.liga" unicode="&#x20;&#x3c;&#x33;&#x20;" horiz-adv-x="2381" 
d="M1191 -31q-73 0 -125 55l-379 399q-60 65 -88.5 146t-25.5 158.5t33 152.5t81 131.5t124.5 91t157.5 34.5q111 0 222 -72q108 72 221 72q85 0 159 -35t125 -91.5t80.5 -132t32.5 -153.5t-26 -158t-89 -144l-378 -399q-52 -55 -125 -55zM814 541l377 -399l379 399
q42 45 58.5 103.5t5 113.5t-40 102t-77 76t-104.5 29q-112 0 -221 -121q-115 121 -222 121q-57 0 -105.5 -29.5t-76 -77.5t-38 -103.5t6 -113t58.5 -100.5z" />
    <glyph glyph-name="uniE003" unicode="&#x28;&#x3e;&#x29;" horiz-adv-x="2355" 
d="M1178 -276q165 0 320 51t279.5 144.5t218 218t144.5 279.5t51 320q0 206 -80 394t-215.5 323.5t-323.5 216t-394 80.5t-394 -80.5t-323.5 -216t-216 -323.5t-80.5 -394t80.5 -394t216 -323.5t323.5 -215.5t394 -80zM1179 -73q-166 0 -316.5 64t-258.5 172t-172 258.5
t-64 316.5q0 221 108 407t294.5 294t408.5 108q221 0 407 -108t294 -294t108 -407q0 -222 -108 -408.5t-294 -294.5t-407 -108zM1037 389v696l418 -348z" />
    <glyph glyph-name="f_f" unicode="ff" horiz-adv-x="1428" 
d="M1408 1329h-129q-151 0 -151 -143v-80h280v-172h-280v-934h-214v934h-455v-934h-214v934h-184v172h184v39q0 60 2 93.5t18.5 86.5t49.5 89q30 33 66 53t80 27.5t68 9t70 1.5h139v-176h-129q-150 0 -150 -143v-80h455v39q0 44 1.5 69.5t7.5 65.5t21.5 73t40.5 61
q30 33 66 53t80 27.5t68 9t70 1.5h139v-176z" />
    <glyph glyph-name="f_f_l" unicode="ffl" horiz-adv-x="2036" 
d="M1659 1106v399h214v-1505h-214v934h-531v-934h-214v934h-455v-934h-214v934h-184v172h184v39q0 60 2 93.5t18.5 86.5t49.5 89q30 33 66 53t80 27.5t68 9t70 1.5h139v-176h-129q-150 0 -150 -143v-80h455v39q0 44 1.5 69.5t7.5 65.5t21.5 73t40.5 61q30 33 66 53t80 27.5
t68 9t70 1.5h139v-176h-129q-151 0 -151 -143v-80h531z" />
    <glyph glyph-name="t_t.liga" unicode="tt" horiz-adv-x="1606" 
d="M1519 934h-330v-489v-41v-41t1 -32.5t3.5 -33t6.5 -25.5t11 -25q24 -40 69.5 -59t105 -18t133.5 11v-181q-81 -16 -156 -18t-143 11.5t-121.5 49t-83.5 91.5q-10 19 -17 38t-11.5 41.5t-7 38t-3.5 44t-1.5 41.5t0 49t0.5 49v499h-528v-489v-35.5v-35.5t0.5 -29.5t2 -29.5
t4 -23.5t6.5 -25t10 -19.5q24 -40 69.5 -59t104 -18t132.5 11v-181q-81 -16 -155.5 -18t-143 11.5t-122 49t-82.5 91.5q-10 19 -17.5 38t-12 41.5t-7 37.5t-3.5 44.5t-1.5 41.5t0 49t0.5 49v499h-212v172h212v307h215v-307h528v307h214v-307h330v-172z" />
    <glyph glyph-name="fi" unicode="fi" horiz-adv-x="1331" 
d="M1061 1257q-57 0 -95.5 39t-38.5 95q0 57 38.5 95t95.5 38t95 -38t38 -95q0 -56 -38 -95t-95 -39zM315 1414q30 33 66 53t80 27.5t68 9t70 1.5h139v-176h-129q-150 0 -150 -143v-80h279v-172h-279v-934h-214v934h-184v172h184v39q0 60 2 93.5t18.5 86.5t49.5 89zM1167 0
h-214v1106h214v-1106z" />
    <glyph glyph-name="fl" unicode="fl" horiz-adv-x="1367" 
d="M989 1106v399h214v-1505h-214v934h-530v-934h-214v934h-184v172h184v39q0 60 2 93.5t18.5 86.5t49.5 89q30 33 66 53t80 27.5t68 9t70 1.5h139v-176h-129q-150 0 -150 -143v-80h530z" />
    <glyph glyph-name="hyphen_hyphen.liga" unicode="&#x2d;&#x2d;" horiz-adv-x="1105" 
d="M983 560h-860v172h860v-172z" />
    <glyph glyph-name="hyphen_greater.liga" unicode="&#x2d;&#x3e;" horiz-adv-x="2064" 
d="M1482 560h-1195v172h1193l-295 295l104 107l489 -489l-489 -488l-104 106z" />
    <glyph glyph-name="less_hyphen.liga" unicode="&#x3c;&#x2d;" horiz-adv-x="2064" 
d="M1778 732v-172h-1195l297 -297l-105 -106l-488 488l488 489l105 -107l-295 -295h1193z" />
    <glyph glyph-name=".notdef" horiz-adv-x="1515" 
d="M1311 1448h-1106v27h1106v-27zM1311 1329h-1106v33h1106v-33zM1311 1212h-1106v37h1106v-37zM1311 1092h-1106v43h1106v-43zM1311 975h-1106v45h1106v-45zM1311 858h-1106v49h1106v-49zM1311 737h-1106v58h1106v-58zM1311 621h-1106v61h1106v-61zM1311 502h-1106v67h1106
v-67zM1311 383h-1106v72h1106v-72zM1311 266h-1106v76h1106v-76zM1311 147h-1106v82h1106v-82zM1311 0h-1106v117h1106v-117z" />
    <glyph glyph-name=".null" horiz-adv-x="1228" 
 />
    <glyph glyph-name="nonmarkingreturn" horiz-adv-x="1577" 
 />
    <glyph glyph-name="CR" unicode="&#xd;" horiz-adv-x="1228" 
 />
    <glyph glyph-name="space" unicode=" " horiz-adv-x="409" 
 />
    <glyph glyph-name="exclam" unicode="!" horiz-adv-x="705" 
d="M460 1475v-1065h-214v1065h214zM353 -17q-57 0 -95.5 38.5t-38.5 94.5t38.5 94.5t95.5 38.5t95 -38t38 -95q0 -56 -38 -94.5t-95 -38.5z" />
    <glyph glyph-name="quotedbl" unicode="&#x22;" horiz-adv-x="905" 
d="M337 1106h-214v369h214v-369zM700 1106h-214v369h214v-369z" />
    <glyph glyph-name="numbersign" unicode="#" horiz-adv-x="1899" 
d="M607 1h-209l111 415h-386l54 204h387l71 269h-386l55 202h385l104 384h209l-103 -384h282l103 384h210l-103 -384h386l-54 -202h-387l-72 -269h386l-54 -204h-387l-110 -415h-209l109 415h-281zM845 889l-72 -269h281l72 269h-281z" />
    <glyph glyph-name="dollar" unicode="$" 
d="M1185 420q0 -180 -120 -300t-321 -145v-179h-214v182q-184 29 -304.5 146.5t-150.5 298.5l212 34q31 -131 131 -208.5t240 -77.5q138 0 226.5 66.5t88.5 170.5q0 73 -44.5 119t-145.5 78l-346 107q-151 47 -229 140t-78 228q0 170 107.5 281.5t292.5 136.5v180h214v-184
q170 -29 282.5 -138.5t149.5 -283.5l-219 -39q-22 120 -111.5 194t-217.5 75q-121 2 -202.5 -58.5t-81.5 -152.5q0 -68 52 -115.5t165 -80.5l272 -79q186 -56 269 -149t83 -247z" />
    <glyph glyph-name="percent" unicode="%" horiz-adv-x="1844" 
d="M492 768q-153 0 -261 108t-108 261q0 150 110 259t259 109q153 0 260.5 -107.5t107.5 -260.5t-108 -261t-260 -108zM1660 1330l-1332 -1330l-144 143l1333 1332zM492 953q74 0 128.5 55t54.5 129t-54.5 128.5t-128.5 54.5t-129 -54.5t-55 -128.5t55 -129t129 -55z
M1353 -31q-153 0 -261 108t-108 261q0 150 110.5 259.5t258.5 109.5q153 0 260.5 -107.5t107.5 -261.5t-107.5 -261.5t-260.5 -107.5zM1353 155q74 0 128.5 54.5t54.5 128.5t-54.5 128.5t-128.5 54.5t-128.5 -54.5t-54.5 -128.5t54.5 -128.5t128.5 -54.5z" />
    <glyph glyph-name="ampersand" unicode="&#x26;" horiz-adv-x="1356" 
d="M628 -31q-128 0 -235 37.5t-177 113.5q-108 118 -114 298q-2 181 101 301q36 44 109 87q-70 75 -101.5 140t-31.5 151q0 125 65.5 224.5t179.5 143.5q89 37 212 37q210 0 326 -113q75 -71 107 -174l-211 -49q-16 48 -57 83q-59 51 -167 51q-72 0 -131 -27
q-107 -52 -107 -177q0 -51 17 -84.5t55 -75.5q25 -28 102 -97l402 -374q4 40 4 97l-1 192h191v-253q0 -137 -16 -201l184 -171l-138 -148l-148 141q-92 -94 -224 -127q-87 -26 -196 -26zM634 174q87 0 142 23q75 32 116 71l-420 385q-65 -23 -105 -70q-48 -61 -46 -154
q0 -94 57 -162q39 -46 109.5 -69.5t146.5 -23.5z" />
    <glyph glyph-name="quotesingle" unicode="'" horiz-adv-x="500" 
d="M337 1106h-214v369h214v-369z" />
    <glyph glyph-name="parenleft" unicode="(" horiz-adv-x="909" 
d="M824 -263l-159 -119q-179 207 -280.5 490t-97.5 568q-4 285 97.5 568t280.5 490l159 -119q-340 -406 -342 -939q2 -536 342 -939z" />
    <glyph glyph-name="parenright" unicode=")" horiz-adv-x="909" 
d="M245 -382l-160 119q340 403 342 939q-2 533 -342 939l160 119q179 -207 280.5 -490t97.5 -568q4 -285 -97.5 -568t-280.5 -490z" />
    <glyph glyph-name="asterisk" unicode="*" horiz-adv-x="932" 
d="M435 968l-135 -205l-156 113l156 190l-239 67l60 183l230 -90l-12 249h192l-12 -249l232 90l59 -183l-240 -67l156 -190l-156 -113z" />
    <glyph glyph-name="plus" unicode="+" horiz-adv-x="1174" 
d="M674 273h-172v379h-379v172h379v377h172v-377h378v-172h-378v-379z" />
    <glyph glyph-name="comma" unicode="," horiz-adv-x="594" 
d="M104 -306l93 553h206l-160 -553h-139z" />
    <glyph glyph-name="hyphen" unicode="-" horiz-adv-x="860" 
d="M737 560h-614v172h614v-172z" />
    <glyph glyph-name="period" unicode="." horiz-adv-x="586" 
d="M294 -17q-57 0 -95.5 38.5t-38.5 94.5t38 94.5t96 38.5q57 0 95 -38t38 -95q0 -56 -38 -94.5t-95 -38.5z" />
    <glyph glyph-name="slash" unicode="/" horiz-adv-x="856" 
d="M123 0l393 1475h216l-393 -1475h-216z" />
    <glyph glyph-name="zero" unicode="0" horiz-adv-x="1314" 
d="M657 -31q-225 0 -369.5 144.5t-144.5 369.5v508q0 225 144.5 369.5t369.5 144.5t369.5 -144.5t144.5 -369.5v-508q0 -225 -144.5 -369.5t-369.5 -144.5zM657 174q124 0 210 86t86 210v537q0 123 -86 209t-210 86t-210 -86t-86 -209v-537q0 -124 86 -210t210 -86z" />
    <glyph glyph-name="one" unicode="1" horiz-adv-x="864" 
d="M618 0h-218v1239l-277 -169v239l277 166h218v-1475z" />
    <glyph glyph-name="two" unicode="2" horiz-adv-x="1202" 
d="M860 586l-427 -381h667v-204h-998l1 190l642 576q74 66 104.5 127.5t30.5 128.5q0 119 -77.5 199t-195.5 80q-121 0 -201.5 -82.5t-78.5 -195.5h-219q0 214 141 347.5t362 133.5q210 0 349.5 -138t139.5 -347q0 -75 -14 -132.5t-47.5 -109t-72.5 -92.5t-106 -100z" />
    <glyph glyph-name="three" unicode="3" horiz-adv-x="1171" 
d="M1027 1271l-364 -350q177 -24 281.5 -152t104.5 -311q0 -138 -65.5 -250t-178.5 -174t-249 -62q-166 0 -297 92.5t-177 248.5l207 58q29 -94 101.5 -145.5t165.5 -50.5q121 1 197 80.5t76 202.5q0 124 -76.5 203t-198.5 79q-71 0 -139 -37l-101 169l451 399h-625v204h887
v-204z" />
    <glyph glyph-name="four" unicode="4" horiz-adv-x="1233" 
d="M985 0h-217v257h-666v203l480 1015h244l-479 -1015h421v399h217v-399h147v-203h-147v-257z" />
    <glyph glyph-name="five" unicode="5" horiz-adv-x="1195" 
d="M614 947q206 0 342.5 -138t136.5 -345q0 -134 -70.5 -248.5t-188 -180.5t-253.5 -66q-169 0 -301.5 102t-177.5 264l206 55q25 -96 104.5 -155t174.5 -59q121 0 205.5 84.5t84.5 203.5q0 121 -85.5 205t-204.5 84q-84 0 -147.5 -33.5t-102.5 -85.5l-186 65l45 776h795
v-202h-604l-25 -406q112 80 252 80z" />
    <glyph glyph-name="six" unicode="6" horiz-adv-x="1272" 
d="M679 948q206 0 341.5 -138.5t135.5 -345.5q0 -135 -69 -249.5t-185 -180t-252 -65.5q-141 0 -257 67.5t-183 188.5t-67 270v470q0 241 147 390t382 149q245 0 396 -175l-157 -146q-42 55 -105.5 87t-133.5 32q-134 0 -222.5 -92.5t-88.5 -217.5v-176q132 132 318 132z
M650 175q120 0 204.5 84.5t84.5 204.5t-84 204.5t-204 84.5t-205 -84.5t-85 -204.5q0 -119 84.5 -204t204.5 -85z" />
    <glyph glyph-name="seven" unicode="7" horiz-adv-x="1071" 
d="M452 0h-232l518 1271h-656v204h887v-204z" />
    <glyph glyph-name="eight" unicode="8" horiz-adv-x="1231" 
d="M929 791q88 -61 134 -156t46 -207q0 -203 -138.5 -331t-355.5 -128t-354.5 128t-137.5 331q0 112 45 206t133 157q-141 119 -141 304q0 187 126.5 298.5t328.5 111.5t328.5 -111.5t126.5 -298.5q0 -190 -141 -304zM615 1302q-104 0 -166 -53t-62 -154q0 -100 61.5 -152.5
t166.5 -52.5t166.5 52.5t61.5 152.5q0 101 -62 154t-166 53zM615 173q122 0 194.5 66.5t72.5 188.5q0 123 -72.5 190t-194.5 67t-194 -67t-72 -190t72 -189t194 -66z" />
    <glyph glyph-name="nine" unicode="9" horiz-adv-x="1272" 
d="M623 1504q141 0 257 -67.5t182.5 -188t66.5 -269.5v-470q0 -242 -146.5 -391t-381.5 -149q-245 0 -396 175l156 147q42 -55 105.5 -87t134.5 -32q134 0 222 92t88 217v176q-132 -132 -317 -132q-205 0 -341 139t-136 346q0 135 69 249t185 179.5t252 65.5zM622 721
q120 0 204.5 84.5t84.5 204.5q0 119 -84 203.5t-204 84.5t-204.5 -84t-84.5 -204t84 -204.5t204 -84.5z" />
    <glyph glyph-name="colon" unicode=":" horiz-adv-x="671" 
d="M340 719q-58 0 -96 38.5t-38 94.5t38 94.5t96 38.5t96 -38.5t38 -94.5t-38 -94.5t-96 -38.5zM339 126q-57 0 -95.5 38.5t-38.5 94.5q0 57 38.5 95t95.5 38t95 -38t38 -95q0 -56 -38 -94.5t-95 -38.5z" />
    <glyph glyph-name="semicolon" unicode=";" horiz-adv-x="676" 
d="M339 862q-57 0 -95.5 38t-38.5 95t38.5 95t95.5 38t95 -38t38 -95t-38 -95t-95 -38zM175 -306l92 553h208l-161 -553h-139z" />
    <glyph glyph-name="less" unicode="&#x3c;" horiz-adv-x="1289" 
d="M908 290l-133 -133l-488 488l488 489l133 -134l-362 -355z" />
    <glyph glyph-name="equal" unicode="=" horiz-adv-x="1536" 
d="M1290 839h-1044v172h1044v-172zM1290 464h-1044v172h1044v-172z" />
    <glyph glyph-name="greater" unicode="&#x3e;" horiz-adv-x="1290" 
d="M1002 645l-487 -488l-134 133l363 355l-363 355l134 134z" />
    <glyph glyph-name="question" unicode="?" horiz-adv-x="1113" 
d="M645 400h-227q0 163 56 262q24 49 61 85t90 77t90 80q68 76 68 191q0 82 -40 131q-59 74 -187 74q-111 0 -168 -54q-62 -52 -60 -151h-226q8 97 49.5 180.5t110.5 135.5q119 93 287 93q244 0 366 -143q96 -110 96 -262q0 -177 -148 -332q-26 -27 -66.5 -61.5t-69.5 -63
t-46 -57.5q-18 -30 -26 -60t-9 -51.5t-1 -73.5zM532 -17q-57 0 -95.5 38.5t-38.5 94.5t38 94.5t96 38.5t96 -38.5t38 -94.5t-38.5 -94.5t-95.5 -38.5z" />
    <glyph glyph-name="at" unicode="@" horiz-adv-x="1864" 
d="M928 1321q189 0 340 -60.5t245 -163.5t142.5 -234.5t44.5 -278.5q-11 -411 -325 -411q-73 0 -135.5 27.5t-98.5 79.5q-81 -95 -231 -95q-156 0 -253.5 99.5t-97.5 258.5q0 162 100.5 260t253.5 98q119 0 209 -65v36h138l-4 -367q0 -159 122 -159q52 0 83 31.5t42 80
t13 121.5q2 122 -31 221t-89.5 162.5t-133.5 106.5t-156.5 61.5t-164.5 18.5q-187 0 -324 -79t-205.5 -217.5t-64.5 -317.5q6 -263 170 -420.5t423 -157.5q150 0 273 60l59 -159q-156 -73 -341 -73q-165 0 -307.5 56.5t-243.5 154.5t-158.5 236.5t-57.5 296.5
q0 186 59.5 337.5t163.5 250t242.5 151.5t298.5 53zM923 359q77 0 124 45t47 140q0 90 -43 137t-123 47q-91 0 -138.5 -48.5t-47.5 -135.5q0 -88 47.5 -136.5t133.5 -48.5z" />
    <glyph glyph-name="A" unicode="A" horiz-adv-x="1348" 
d="M41 0l479 1475h308l480 -1475h-223l-109 333h-605l-108 -333h-222zM672 1260l-236 -726h474z" />
    <glyph glyph-name="B" unicode="B" horiz-adv-x="1280" 
d="M993 779q109 -46 168 -138t59 -211q0 -197 -117 -313.5t-325 -116.5h-635v1475h580q102 0 185 -33.5t135 -90t79.5 -126.5t27.5 -147q0 -100 -41.5 -178t-115.5 -121zM720 1273h-360v-401h360q92 0 151.5 55t59.5 149q0 87 -58 142t-153 55zM360 204h385
q112 0 183.5 62.5t71.5 167.5q0 102 -66.5 169.5t-174.5 67.5h-399v-467z" />
    <glyph glyph-name="C" unicode="C" horiz-adv-x="1496" 
d="M759 -31q-217 0 -376 97t-240.5 270t-81.5 401t81.5 401t240.5 270t376 97q250 0 419 -126.5t236 -349.5l-217 -58q-44 158 -155.5 244.5t-282.5 86.5q-229 0 -349.5 -152t-121.5 -413q-2 -260 119.5 -412t351.5 -152q171 0 282.5 86.5t155.5 244.5l217 -59
q-67 -223 -236 -349.5t-419 -126.5z" />
    <glyph glyph-name="D" unicode="D" horiz-adv-x="1414" 
d="M605 0h-462v1475h462q106 0 183 -10q168 -21 290 -124t181.5 -258.5t59.5 -345.5t-59.5 -345.5t-181.5 -258.5t-290 -124q-69 -9 -183 -9zM362 1271v-1067h243q114 0 168 10q82 16 144.5 64t100 119.5t56 157t18.5 182.5q0 134 -33 242t-106 185t-180 97q-54 10 -168 10
h-243z" />
    <glyph glyph-name="E" unicode="E" horiz-adv-x="1187" 
d="M357 202h728v-202h-942v1475h942v-202h-728v-414h606v-202h-606v-455z" />
    <glyph glyph-name="F" unicode="F" horiz-adv-x="1057" 
d="M357 0h-214v1475h874v-214h-660v-416h537v-215h-537v-630z" />
    <glyph glyph-name="G" unicode="G" horiz-adv-x="1480" 
d="M746 -31q-148 0 -273.5 52.5t-217 149.5t-143 242.5t-51.5 323.5q0 176 50.5 320.5t141 242t217 151t276.5 53.5q251 0 404.5 -112.5t212.5 -315.5l-217 -39q-47 122 -144 193t-243 72q-229 1 -349 -151.5t-121 -413.5q-1 -171 51 -296t158.5 -196t260.5 -72
q188 -2 297 106.5t132 314.5h-403v172h630q4 -35 4 -87q0 -154 -45.5 -284t-130 -225t-212 -148t-285.5 -53z" />
    <glyph glyph-name="H" unicode="H" horiz-adv-x="1453" 
d="M357 0h-214v1475h214v-636h738v636h215v-1475h-215v637h-738v-637z" />
    <glyph glyph-name="I" unicode="I" horiz-adv-x="541" 
d="M378 0h-214v1475h214v-1475z" />
    <glyph glyph-name="J" unicode="J" horiz-adv-x="1000" 
d="M424 -30q-160 0 -270.5 85t-153.5 233l212 50q14 -69 73 -117.5t132 -48.5q53 0 103.5 26t74.5 78q11 23 16.5 56.5t6 57.5t0.5 82v1003h218v-1003v-41v-40t-0.5 -35t-2 -35t-3.5 -30.5t-6 -32.5t-9 -29.5t-12 -32t-16 -30.5q-57 -99 -151 -147.5t-212 -48.5z" />
    <glyph glyph-name="K" unicode="K" horiz-adv-x="1289" 
d="M1289 0h-269l-532 658l-137 -147v-511h-208v1475h208v-670l624 670h266l-610 -662z" />
    <glyph glyph-name="L" unicode="L" horiz-adv-x="1076" 
d="M1046 0h-882v1475h214v-1273h668v-202z" />
    <glyph glyph-name="M" unicode="M" horiz-adv-x="1741" 
d="M345 0h-202v1475h194l534 -1109l532 1109h195v-1474h-202v1009l-476 -1010h-98l-477 1010v-1010z" />
    <glyph glyph-name="N" unicode="N" horiz-adv-x="1446" 
d="M360 1097v-1097h-217v1475h217l726 -1096v1096h218v-1475h-218z" />
    <glyph glyph-name="O" unicode="O" horiz-adv-x="1516" 
d="M759 -31q-217 0 -376 97t-240.5 270t-81.5 401t81.5 401t240.5 270t376 97t375.5 -97t239.5 -270t81 -401t-81 -401t-239.5 -270t-375.5 -97zM759 173q229 -2 349 150.5t120 413.5q0 260 -120 412t-349 153q-153 1 -260 -70.5t-158 -197.5t-52 -297t51 -296t158.5 -196
t260.5 -72z" />
    <glyph glyph-name="P" unicode="P" horiz-adv-x="1284" 
d="M357 0h-214v1475h596q55 0 114 -9q180 -28 275 -153.5t95 -310.5q0 -122 -40.5 -218.5t-125 -161.5t-204.5 -84q-59 -9 -114 -9h-382v-529zM357 1273v-541h374q53 0 93 9q62 15 104.5 58t59.5 94t17 109q0 91 -45 165t-136 96q-39 10 -93 10h-374z" />
    <glyph glyph-name="Q" unicode="Q" horiz-adv-x="1516" 
d="M1455 737q0 -307 -144 -506l124 -123l-136 -138l-123 124q-170 -125 -417 -125q-217 0 -376 97t-240.5 270t-81.5 401t81.5 401t240.5 270t376 97t375.5 -97t239.5 -270t81 -401zM759 173q155 -1 264 72l-135 135l137 137l127 -127q76 141 76 347q0 260 -120 412
t-349 153q-153 1 -260 -70.5t-158 -197.5t-52 -297t51 -296t158.5 -196t260.5 -72z" />
    <glyph glyph-name="R" unicode="R" horiz-adv-x="1332" 
d="M935 606l314 -606h-243l-299 578h-350v-578h-214v1475h596q55 0 114 -9q180 -28 275 -146.5t95 -293.5q0 -138 -75.5 -255t-212.5 -165zM731 1273h-374v-494h374q61 0 93 11q93 32 137 95.5t44 140.5q0 80 -45 147.5t-136 89.5q-39 10 -93 10z" />
    <glyph glyph-name="S" unicode="S" horiz-adv-x="1317" 
d="M678 -31q-240 0 -403.5 122t-199.5 332l223 34q33 -134 140 -210t252 -76q138 0 234 64.5t96 171.5q0 75 -48 120.5t-137 72.5l-378 112q-50 15 -91 32t-86.5 47.5t-76 68.5t-51 95t-20.5 126q0 100 40.5 181t112 133.5t167.5 80.5t208 28q225 -2 376.5 -115.5
t196.5 -316.5l-229 -39q-23 123 -120 195t-227 74q-125 2 -212 -57.5t-87 -152.5q0 -44 20 -77.5t57.5 -56.5t71 -36t81.5 -26l272 -77q40 -11 65 -19t69.5 -26t74 -37t65.5 -50.5t57.5 -67.5t36.5 -87t15 -111q0 -108 -45.5 -195.5t-123.5 -142.5t-179.5 -84.5
t-216.5 -29.5z" />
    <glyph glyph-name="T" unicode="T" horiz-adv-x="1235" 
d="M725 0h-214v1273h-491v202h1195v-202h-490v-1273z" />
    <glyph glyph-name="U" unicode="U" horiz-adv-x="1462" 
d="M731 -31q-262 0 -425 157.5t-163 416.5v931l217 1v-921q0 -91 32 -165.5t85 -121t118.5 -71.5t135.5 -25q95 0 178 42.5t138 132t55 208.5v921h217v-932q0 -259 -163 -416.5t-425 -157.5z" />
    <glyph glyph-name="V" unicode="V" horiz-adv-x="1287" 
d="M798 0h-309l-479 1475h222l409 -1259l414 1259h222z" />
    <glyph glyph-name="W" unicode="W" horiz-adv-x="1971" 
d="M669 0h-213l-428 1475h224l310 -1116l310 1115l226 1l310 -1116l310 1116h226l-430 -1475h-212l-317 1103z" />
    <glyph glyph-name="X" unicode="X" horiz-adv-x="1308" 
d="M284 0h-264l503 746l-489 729h262l359 -547l358 547h263l-490 -729l502 -746h-262l-371 564z" />
    <glyph glyph-name="Y" unicode="Y" horiz-adv-x="1214" 
d="M716 609v-609h-217v609l-499 866h250l357 -620l358 620h249z" />
    <glyph glyph-name="Z" unicode="Z" horiz-adv-x="1325" 
d="M1209 0h-1107v34l753 1239h-712v202h1080v-35l-749 -1237h735v-203z" />
    <glyph glyph-name="bracketleft" unicode="[" horiz-adv-x="856" 
d="M713 -438h-426v2269h426v-193h-234v-1884h234v-192z" />
    <glyph glyph-name="backslash" unicode="\" horiz-adv-x="855" 
d="M123 1475h216l393 -1475h-216z" />
    <glyph glyph-name="bracketright" unicode="]" horiz-adv-x="856" 
d="M569 1831v-2269h-426v192h234v1884h-234v193h426z" />
    <glyph glyph-name="asciicircum" unicode="^" horiz-adv-x="1385" 
d="M349 885l-133 133l487 488l489 -487l-133 -134l-356 363z" />
    <glyph glyph-name="underscore" unicode="_" horiz-adv-x="1351" 
d="M1352 -239h-1352v172h1352v-172z" />
    <glyph glyph-name="grave" unicode="`" horiz-adv-x="1070" 
d="M485 1638h140l-77 359h-208z" />
    <glyph glyph-name="a" unicode="a" horiz-adv-x="1166" 
d="M1005 926q24 -50 31 -106t7 -139v-681h-189v161q-134 -192 -398 -192q-177 0 -275.5 95t-98.5 237q0 246 261 328q27 8 55.5 15t69 14.5t63.5 12t77 12.5t69.5 10.5t81.5 11.5t74 10q-5 116 -63.5 170t-186.5 54q-93 0 -163.5 -43t-97.5 -131l-200 61q41 146 158.5 228.5
t304.5 82.5q153 0 261 -52.5t159 -158.5zM494 144q128 0 210.5 65.5t103.5 154.5q20 59 22 173q-301 -45 -384 -70q-152 -52 -152 -164q0 -69 51 -114t149 -45z" />
    <glyph glyph-name="b" unicode="b" horiz-adv-x="1245" 
d="M658 1137q229 0 367 -164t138 -419q0 -166 -60 -298.5t-174.5 -209.5t-265.5 -77q-203 0 -330 132v-101h-191v1475h215v-445q121 107 301 107zM633 163q148 0 225.5 109t77.5 282q0 172 -78.5 280.5t-231.5 108.5q-146 0 -219.5 -105t-73.5 -284q0 -181 74 -286t226 -105
z" />
    <glyph glyph-name="c" unicode="c" horiz-adv-x="1164" 
d="M616 -31q-248 0 -390 162.5t-144 421.5q2 261 146.5 422.5t391.5 161.5q181 0 309.5 -90.5t169.5 -246.5l-213 -62q-31 92 -103.5 144.5t-166.5 52.5q-152 0 -229 -104t-78 -278q1 -176 79.5 -279t227.5 -103q196 0 266 184l217 -51q-55 -162 -179.5 -248.5t-303.5 -86.5
z" />
    <glyph glyph-name="d" unicode="d" horiz-adv-x="1246" 
d="M888 1030v445h215v-1475h-191v101q-127 -132 -329 -132q-151 0 -266 77t-175 209.5t-60 298.5q0 255 138 419t367 164q180 0 301 -107zM612 163q152 0 226 105t74 286q0 179 -73 284t-219 105q-153 0 -232 -108.5t-79 -280.5q0 -173 77.5 -282t225.5 -109z" />
    <glyph glyph-name="e" unicode="e" horiz-adv-x="1221" 
d="M1136 493h-825q13 -155 93.5 -238.5t219.5 -83.5q100 0 173 45t114 131l210 -66q-64 -147 -194.5 -229.5t-292.5 -82.5q-248 0 -400 159t-152 416q0 270 149 431.5t393 161.5q253 0 391 -173.5t121 -470.5zM632 947q-136 0 -215.5 -73.5t-100.5 -214.5h600
q-17 147 -86.5 217.5t-197.5 70.5z" />
    <glyph glyph-name="f" unicode="f" horiz-adv-x="758" 
d="M738 1329h-129q-150 0 -150 -143v-80h279v-172h-279v-934h-214v934h-184v172h184v39q0 60 2 93.5t18.5 86.5t49.5 89q30 33 66 53t80 27.5t68 9t70 1.5h139v-176z" />
    <glyph glyph-name="g" unicode="g" horiz-adv-x="1245" 
d="M912 1007v99h190v-1136q0 -93 -15 -164q-34 -164 -161.5 -246t-326.5 -82q-137 0 -254.5 62.5t-183.5 178.5l197 101q34 -68 99.5 -102t143.5 -34q138 0 213 73.5t73 214.5v105q-122 -108 -304 -108q-151 0 -266 77t-175 209.5t-60 298.5q0 255 138 419t367 164
q200 0 325 -130zM612 163q152 0 226 105t74 286q0 179 -73 284t-219 105q-153 0 -232 -108.5t-79 -280.5q0 -173 77.5 -282t225.5 -109z" />
    <glyph glyph-name="h" unicode="h" 
d="M699 1136q109 0 191.5 -39t128 -95t73.5 -131.5t36.5 -136t8.5 -120.5v-614h-217v544q0 57 -6 107t-24.5 103.5t-48.5 91.5t-81.5 62.5t-119.5 24.5q-126 0 -203.5 -86.5t-77.5 -271.5v-575h-217v1475h192v-501q130 162 365 162z" />
    <glyph glyph-name="i" unicode="i" horiz-adv-x="541" 
d="M271 1257q-57 0 -95.5 39t-38.5 95q0 57 38.5 95t95.5 38t95 -38t38 -95q0 -56 -38 -95t-95 -39zM378 0h-214v1106h214v-1106z" />
    <glyph glyph-name="j" unicode="j" horiz-adv-x="564" 
d="M307 1257q-57 0 -95.5 39t-38.5 95q0 57 38.5 95t95.5 38t95.5 -38t38.5 -95q0 -56 -38.5 -95t-95.5 -39zM128 -492h-148v203h56q85 0 124.5 40.5t39.5 126.5v1228h215v-1315q0 -135 -75 -209t-212 -74z" />
    <glyph glyph-name="k" unicode="k" horiz-adv-x="1073" 
d="M1087 0h-237l-395 507l-108 -108v-399h-205l1 1475h204v-810l455 441h256l-468 -465z" />
    <glyph glyph-name="l" unicode="l" horiz-adv-x="541" 
d="M378 0h-214v1505h214v-1505z" />
    <glyph glyph-name="m" unicode="m" horiz-adv-x="1806" 
d="M1308 1134q176 0 275.5 -106.5t99.5 -287.5l-1 -740h-214l1 689q0 118 -61 186t-162 68q-97 0 -161 -66t-64 -186l-1 -691h-214l1 685q0 119 -60.5 188.5t-163.5 69.5q-101 0 -163.5 -69.5t-62.5 -182.5v-691h-215v1106h191v-119q54 69 136.5 108t180.5 39
q113 0 195.5 -47t126.5 -133q51 84 140 132t196 48z" />
    <glyph glyph-name="n" unicode="n" 
d="M699 1136q109 0 191.5 -39t128 -95t73.5 -131.5t36.5 -136t8.5 -120.5v-614h-217v544q0 57 -6 107t-24.5 103.5t-48.5 91.5t-81.5 62.5t-119.5 24.5q-126 0 -203.5 -86.5t-77.5 -271.5v-575h-217v1106h192v-132q129 162 365 162z" />
    <glyph glyph-name="o" unicode="o" horiz-adv-x="1248" 
d="M624 -31q-246 0 -394 162.5t-148 422.5t149 421.5t393 161.5q247 0 394.5 -162t147.5 -421q0 -261 -148 -423t-394 -162zM624 171q154 0 234.5 104t80.5 279q0 177 -80.5 279t-234.5 102q-156 0 -235.5 -103t-79.5 -278q0 -178 81.5 -280.5t233.5 -102.5z" />
    <glyph glyph-name="p" unicode="p" horiz-adv-x="1245" 
d="M658 1137q229 0 367 -164t138 -419q0 -166 -60 -298.5t-174.5 -209.5t-265.5 -77q-183 0 -306 109v-570h-215v1598h191v-99q125 130 325 130zM633 163q148 0 225.5 109t77.5 282q0 172 -78.5 280.5t-231.5 108.5q-146 0 -219.5 -105t-73.5 -284q0 -181 74 -286t226 -105z
" />
    <glyph glyph-name="q" unicode="q" horiz-adv-x="1246" 
d="M912 1007v99h191v-1598h-215v570q-123 -109 -305 -109q-151 0 -266 77t-175 209.5t-60 298.5q0 255 138 419t367 164q200 0 325 -130zM612 163q152 0 226 105t74 286q0 179 -73 284t-219 105q-153 0 -232 -108.5t-79 -280.5q0 -173 77.5 -282t225.5 -109z" />
    <glyph glyph-name="r" unicode="r" horiz-adv-x="791" 
d="M436 1043q61 44 144 60.5t160 2.5v-201q-51 16 -119.5 8t-121.5 -42q-140 -90 -140 -313v-558h-216v1106h191v-176q41 72 102 113z" />
    <glyph glyph-name="s" unicode="s" horiz-adv-x="1097" 
d="M566 -30q-202 0 -329 89t-155 251l219 34q21 -87 95.5 -136t184.5 -49q100 0 157 40.5t57 112.5q0 44 -21.5 69t-80 47.5t-195.5 59.5q-214 56 -297 125.5t-83 191.5q0 151 117.5 241.5t312.5 90.5q191 0 316.5 -88.5t144.5 -236.5l-219 -40q-11 79 -75 125.5t-165 50.5
q-98 4 -158 -32.5t-60 -99.5q0 -56 57.5 -87.5t251.5 -80.5q209 -54 291.5 -126.5t82.5 -200.5q0 -164 -119.5 -257.5t-329.5 -93.5z" />
    <glyph glyph-name="t" unicode="t" horiz-adv-x="865" 
d="M776 934h-329v-489v-35.5v-35.5t0.5 -29.5t2 -29.5t4 -23.5t6.5 -25t10 -19.5q24 -40 69.5 -59t104 -18t132.5 11v-181q-81 -16 -155.5 -18t-143 11.5t-122 49t-82.5 91.5q-10 19 -17.5 38t-12 41.5t-7 37.5t-3.5 44.5t-1.5 41.5t0 49t0.5 49v499h-212v172h212v307h215
v-307h329v-172z" />
    <glyph glyph-name="u" unicode="u" 
d="M900 530v576h216v-1106h-190v132q-129 -162 -366 -162q-109 0 -191.5 39t-127.5 95t-73 131.5t-36.5 135.5t-8.5 121v614h217v-544q0 -57 6 -107t24.5 -103.5t48.5 -91.5t81.5 -62.5t119.5 -24.5q126 0 203 86t77 271z" />
    <glyph glyph-name="v" unicode="v" horiz-adv-x="1101" 
d="M659 0h-217l-401 1106h216l294 -838l294 838h216z" />
    <glyph glyph-name="w" unicode="w" horiz-adv-x="1618" 
d="M551 0h-172l-338 1107l212 -1l231 -759l234 759h184l234 -759l231 759h211l-338 -1106h-172l-258 801z" />
    <glyph glyph-name="x" unicode="x" horiz-adv-x="1116" 
d="M275 0h-255l414 559l-404 547h254l275 -380l272 380h254l-404 -547l415 -559h-255l-282 392z" />
    <glyph glyph-name="y" unicode="y" horiz-adv-x="1123" 
d="M251 1106l328 -831l311 831h217l-610 -1598h-204l182 497l-447 1101h223z" />
    <glyph glyph-name="z" unicode="z" horiz-adv-x="1090" 
d="M978 0h-937v34l628 880h-571v192h911v-35l-627 -880h596v-191z" />
    <glyph glyph-name="braceleft" unicode="{" horiz-adv-x="899" 
d="M814 -438h-134q-124 0 -198 74t-74 197v633q0 25 -15 47l-89 126q-18 26 -18 57.5t18 57.5l89 126q15 23 15 47v632q0 123 74 197.5t198 74.5h134v-204h-120q-34 0 -58.5 -24t-24.5 -58v-618q0 -91 -52 -164l-48 -67l48 -66q52 -73 52 -164v-619q0 -35 24 -59.5t59 -24.5
h120v-201z" />
    <glyph glyph-name="bar" unicode="|" horiz-adv-x="582" 
d="M398 0h-214v1475h214v-1475z" />
    <glyph glyph-name="braceright" unicode="}" horiz-adv-x="900" 
d="M219 -438h-134v201h121q34 0 58 24.5t24 59.5v619q0 90 53 164l47 66l-47 67q-53 74 -53 164v618q0 34 -24 58t-58 24h-121v204h134q124 0 198.5 -74.5t74.5 -197.5v-632q0 -25 14 -47l89 -126q19 -26 19 -57.5t-19 -57.5l-89 -126q-14 -20 -14 -47v-633
q0 -123 -74.5 -197t-198.5 -74z" />
    <glyph glyph-name="asciitilde" unicode="~" horiz-adv-x="1429" 
d="M947 438q-59 0 -126.5 29.5t-117.5 65t-105.5 65t-92.5 29.5q-48 0 -66 -46.5t1 -108.5h-195q-21 79 -14 148.5t35 121t84 81t131 29.5q59 0 127 -29.5t118 -64.5t105.5 -64.5t92.5 -29.5q47 0 65 45t-1 111h197q40 -163 -23 -272.5t-215 -109.5z" />
    <glyph glyph-name="uni00A0" unicode="&#xa0;" horiz-adv-x="409" 
 />
    <glyph glyph-name="exclamdown" unicode="&#xa1;" horiz-adv-x="705" 
d="M353 1123q57 0 95 -38.5t38 -94.5q0 -57 -38 -95t-95 -38t-95.5 38.5t-38.5 94.5t38.5 94.5t95.5 38.5zM246 696h214v-1065h-214v1065z" />
    <glyph glyph-name="cent" unicode="&#xa2;" horiz-adv-x="1164" 
d="M712 -60h-172v188q-215 26 -335.5 183.5t-122.5 395.5q2 238 123.5 394.5t334.5 182.5v191h172v-192q147 -23 249 -109.5t138 -220.5l-213 -61q-31 92 -103.5 144.5t-166.5 52.5q-152 0 -229 -104t-78 -278q1 -176 79.5 -279t227.5 -103q196 0 266 184l217 -51
q-47 -139 -146 -222.5t-241 -105.5v-190z" />
    <glyph glyph-name="sterling" unicode="&#xa3;" horiz-adv-x="1169" 
d="M826 641h-330l-1 -439h517v-202h-937v202h53q61 0 105.5 45t44.5 106v288h-203v204h203v269q0 168 117.5 279.5t289.5 111.5q280 0 410 -369l-195 -64q-35 115 -86.5 172.5t-128.5 57.5q-85 0 -136.5 -54.5t-51.5 -142.5l-1 -260h330v-204z" />
    <glyph glyph-name="currency" unicode="&#xa4;" horiz-adv-x="1352" 
d="M1215 739q0 -166 -94 -303l170 -170l-143 -143l-170 170q-136 -92 -301 -92q-164 0 -300 92l-172 -170l-144 143l171 171q-92 136 -92 302q0 162 91 298l-170 170l144 145l170 -170q137 94 302 94q164 0 302 -93l169 169l143 -145l-168 -168q92 -136 92 -300zM325 737
q0 -144 103 -248t249 -104q145 0 248.5 104.5t103.5 247.5q0 146 -104.5 250t-247.5 104q-147 0 -249.5 -103.5t-102.5 -250.5z" />
    <glyph glyph-name="yen" unicode="&#xa5;" horiz-adv-x="1214" 
d="M965 1475h249l-443 -769h246v-172h-301v-150h301v-172h-301v-212h-217v212h-301v172h301v150h-301v172h245l-443 769h250l357 -620z" />
    <glyph glyph-name="brokenbar" unicode="&#xa6;" horiz-adv-x="582" 
d="M398 667h-214v808h214v-808zM398 -385h-214v808h214v-808z" />
    <glyph glyph-name="section" unicode="&#xa7;" horiz-adv-x="1097" 
d="M864 291q130 -79 130 -235q0 -167 -119 -259.5t-308 -92.5q-115 0 -208 34.5t-160.5 113t-88.5 192.5l219 34q21 -91 92.5 -138.5t159.5 -47.5q81 0 137 40t56 114q0 25 -6 43.5t-25.5 34.5t-36 26t-59.5 24t-73 22.5t-97 25.5q-196 51 -288 118t-92 185q0 93 53.5 157
t142.5 96q-85 40 -127 98.5t-42 146.5q0 82 35 147t93 104.5t128.5 60t146.5 20.5q164 0 285.5 -87.5t141.5 -237.5l-219 -40q-16 91 -74.5 134.5t-141.5 43.5q-77 0 -128.5 -35t-51.5 -95q0 -17 4 -31.5t15 -26.5t20.5 -21.5t31 -19t35 -15.5t44 -15t47.5 -13.5t55 -14.5
l57 -15q77 -21 130 -40t102.5 -46t78.5 -58t46 -75t17 -100q0 -92 -41.5 -157.5t-116.5 -98.5zM311 554q0 -33 17.5 -57.5t54 -41.5t79.5 -30t107 -30q34 -8 52 -13q11 -3 30.5 -8.5t27.5 -7.5q54 23 88.5 65t34.5 99q0 25 -6 43.5t-25 34.5t-36.5 26.5t-59.5 24.5t-73 22.5
t-97 25.5q-18 4 -26 7q-168 -58 -168 -160z" />
    <glyph glyph-name="dieresis" unicode="&#xa8;" horiz-adv-x="1108" 
d="M636 1895q58 0 96 -38t38 -95q0 -56 -38.5 -94t-95.5 -38q-43 0 -82 27q-39 -27 -83 -27q-57 0 -95.5 38t-38.5 94q0 57 38 95t96 38q46 0 83 -26q37 26 82 26z" />
    <glyph glyph-name="copyright" unicode="&#xa9;" horiz-adv-x="1758" 
d="M880 -99q-167 0 -318.5 64.5t-261 174.5t-174.5 261t-65 318t65 318t174.5 261t261 174.5t318.5 64.5t318 -64.5t260.5 -174.5t174 -261t64.5 -318t-64.5 -318t-174 -261t-260.5 -174.5t-318 -64.5zM880 104q167 0 308 82.5t223 224t82 309.5q0 167 -82 308t-223 223
t-308 82q-168 0 -309.5 -82t-224 -223t-82.5 -308q0 -168 82.5 -309.5t224 -224t309.5 -82.5zM893 284q-195 0 -304 135q-97 121 -97 301q2 181 97 299q112 136 312 136q116 0 204 -54q115 -69 149 -202l-167 -46q-21 62 -74 104q-50 40 -121 40q-103 0 -168 -81
q-53 -69 -53 -195q0 -124 53 -198q60 -80 170 -80q77 0 123 37q42 36 67 98l170 -39q-41 -121 -132 -188t-229 -67z" />
    <glyph glyph-name="ordfeminine" unicode="&#xaa;" horiz-adv-x="1166" 
d="M1005 926q24 -50 31 -106t7 -139v-681h-189v161q-134 -192 -398 -192q-177 0 -275.5 95t-98.5 237q0 246 261 328q27 8 55.5 15t69 14.5t63.5 12t77 12.5t69.5 10.5t81.5 11.5t74 10q-5 116 -63.5 170t-186.5 54q-93 0 -163.5 -43t-97.5 -131l-200 61q41 146 158.5 228.5
t304.5 82.5q153 0 261 -52.5t159 -158.5zM494 144q128 0 210.5 65.5t103.5 154.5q20 59 22 173q-301 -45 -384 -70q-152 -52 -152 -164q0 -69 51 -114t149 -45z" />
    <glyph glyph-name="guillemotleft" unicode="&#xab;" horiz-adv-x="1166" 
d="M640 196l-118 -94l-358 452l358 451l118 -94l-285 -357zM1036 196l-117 -94l-359 452l359 451l117 -94l-285 -357z" />
    <glyph glyph-name="logicalnot" unicode="&#xac;" horiz-adv-x="1228" 
d="M1106 387h-172v245h-811v172h983v-417z" />
    <glyph glyph-name="uni00AD" unicode="&#xad;" horiz-adv-x="860" 
d="M737 560h-614v172h614v-172z" />
    <glyph glyph-name="registered" unicode="&#xae;" horiz-adv-x="1320" 
d="M660 568q-140 0 -259 69.5t-188.5 188.5t-69.5 260q0 140 69.5 259t188.5 188.5t259 69.5t259.5 -69.5t189 -188.5t69.5 -259q0 -141 -69.5 -260t-189 -188.5t-259.5 -69.5zM662 718q152 0 260 108t108 260q0 153 -108 261t-260 108q-154 0 -262 -107.5t-108 -261.5
q0 -152 108.5 -260t261.5 -108zM578 847h-86v482h205q71 0 116.5 -44.5t47.5 -114.5q0 -93 -86 -141l90 -182h-98l-80 167h-109v-167zM578 1247v-152h121q31 0 52.5 21.5t21.5 53.5q0 35 -20.5 56t-53.5 21h-121z" />
    <glyph glyph-name="macron" unicode="&#xaf;" horiz-adv-x="1027" 
d="M246 1891h535v-171h-535v171z" />
    <glyph glyph-name="degree" unicode="&#xb0;" horiz-adv-x="921" 
d="M430 768q-153 0 -261 108t-108 261q0 150 110 259t259 109q153 0 261 -107.5t108 -260.5t-108 -261t-261 -108zM430 953q74 0 128.5 55t54.5 129t-54.5 128.5t-128.5 54.5t-128.5 -54.5t-54.5 -128.5t54.5 -129t128.5 -55z" />
    <glyph glyph-name="plusminus" unicode="&#xb1;" horiz-adv-x="1228" 
d="M701 451h-172v242h-406v172h406v241h172v-241h405v-172h-405v-242zM1106 142h-983v172h983v-172z" />
    <glyph glyph-name="uni00B2" unicode="&#xb2;" horiz-adv-x="835" 
d="M578 914l-252 -225h407v-136h-631l1 127l398 357q84 73 84 153q0 73 -46 121t-117 48q-73 0 -122 -49.5t-47 -117.5h-149q0 136 89.5 219.5t231.5 83.5q133 0 220.5 -86.5t87.5 -219.5q0 -47 -9 -83.5t-31.5 -69.5t-46.5 -58t-68 -64z" />
    <glyph glyph-name="uni00B3" unicode="&#xb3;" horiz-adv-x="818" 
d="M681 1336l-220 -211q108 -18 171 -97.5t63 -190.5q0 -131 -90.5 -218.5t-222.5 -87.5q-104 0 -187.5 60t-112.5 159l140 37q17 -57 60.5 -87.5t99.5 -30.5q72 1 119 48.5t47 119.5q0 73 -47 121.5t-119 48.5q-40 0 -84 -23l-68 114l274 239h-385v138h562v-139z" />
    <glyph glyph-name="acute" unicode="&#xb4;" horiz-adv-x="1070" 
d="M522 1997l-77 -359h139l146 359h-208z" />
    <glyph glyph-name="uni00B5" unicode="&#xb5;" horiz-adv-x="1278" 
d="M333 -492h-191v1598h217v-544q0 -57 6.5 -107t25 -103.5t48 -91.5t81 -62.5t118.5 -24.5q127 0 204.5 86t77.5 271v576h216v-1106h-191v136q-125 -166 -365 -166q-155 0 -247 87v-549z" />
    <glyph glyph-name="paragraph" unicode="&#xb6;" horiz-adv-x="1410" 
d="M908 -289h-214v818h-95q-49 0 -113 9q-178 27 -274 153t-96 311q0 184 95 311t275 153q64 9 113 9h309v-1764zM1293 -289h-214v1764h214v-1764z" />
    <glyph glyph-name="periodcentered" unicode="&#xb7;" horiz-adv-x="519" 
d="M263 509q-60 0 -100 38.5t-40 97.5t40 97.5t100 38.5q55 0 94 -39t39 -97t-39 -97t-94 -39z" />
    <glyph glyph-name="cedilla" unicode="&#xb8;" horiz-adv-x="835" 
d="M384 -494q-66 0 -138 36l49 131q44 -14 71 -14q32 0 50.5 18.5t18.5 44.5q0 16 -8 29.5t-18 22t-31 18t-35 14l-42 13.5l74 209l136 2l-44 -127q124 -60 124 -187q0 -91 -60.5 -150.5t-146.5 -59.5z" />
    <glyph glyph-name="uni00B9" unicode="&#xb9;" horiz-adv-x="689" 
d="M443 553h-147v764l-173 -106v160l173 104h147v-922z" />
    <glyph glyph-name="ordmasculine" unicode="&#xba;" horiz-adv-x="1248" 
d="M624 -31q-246 0 -394 162.5t-148 422.5t149 421.5t393 161.5q247 0 394.5 -162t147.5 -421q0 -261 -148 -423t-394 -162zM624 171q154 0 234.5 104t80.5 279q0 177 -80.5 279t-234.5 102q-156 0 -235.5 -103t-79.5 -278q0 -178 81.5 -280.5t233.5 -102.5z" />
    <glyph glyph-name="guillemotright" unicode="&#xbb;" horiz-adv-x="1166" 
d="M606 554l-358 -452l-118 94l285 358l-285 357l118 94zM1002 554l-358 -452l-119 94l286 358l-286 357l119 94z" />
    <glyph glyph-name="onequarter" unicode="&#xbc;" horiz-adv-x="2077" 
d="M1519 1385l-1032 -1385l-130 98l1032 1386zM443 553h-147v764l-173 -106v160l173 104h147v-922zM1744 0h-146v157h-413v136l298 629h165l-297 -629h247v245h146v-245h88v-136h-88v-157z" />
    <glyph glyph-name="onehalf" unicode="&#xbd;" horiz-adv-x="2022" 
d="M357 98l1032 1386l130 -99l-1032 -1385zM443 1475v-922h-147v764l-173 -106v160l173 104h147zM1764 361l-252 -225h408v-136h-631l1 127l398 357q84 73 84 153q0 73 -46 121t-117 48q-73 0 -122 -49.5t-47 -117.5h-149q0 136 89.5 219.5t231.5 83.5q133 0 220.5 -86.5
t87.5 -219.5q0 -47 -9 -83.5t-32 -69.5t-47 -58t-68 -64z" />
    <glyph glyph-name="threequarters" unicode="&#xbe;" horiz-adv-x="2071" 
d="M486 98l1032 1386l130 -99l-1032 -1385zM695 837q0 -131 -90.5 -218.5t-222.5 -87.5q-104 0 -187.5 60t-112.5 159l140 37q17 -57 60.5 -87.5t99.5 -30.5q72 1 119 48.5t47 119.5q0 73 -47 121.5t-119 48.5q-40 0 -84 -23l-68 114l274 239h-385v138h562v-139l-220 -211
q108 -18 171 -97.5t63 -190.5zM1861 538v-245h88v-136h-88v-157h-146v157h-413v136l297 629h165l-297 -629h248v245h146z" />
    <glyph glyph-name="questiondown" unicode="&#xbf;" horiz-adv-x="1113" 
d="M581 1123q57 0 95.5 -38.5t38.5 -94.5t-38.5 -94.5t-95.5 -38.5q-58 0 -96.5 38.5t-38.5 94.5t39 94.5t96 38.5zM468 706h227q0 -163 -56 -262q-19 -38 -48 -70.5t-56 -53t-66.5 -53t-70.5 -65.5q-68 -76 -68 -191q0 -84 40 -131q59 -75 187 -75q109 0 167 55
q63 52 61 151h226q-8 -97 -49.5 -180.5t-110.5 -135.5q-120 -93 -287 -93q-244 0 -366 143q-96 110 -96 262q0 179 148 332q21 23 90.5 84t90.5 98q18 30 26.5 60t9.5 51.5t1 73.5z" />
    <glyph glyph-name="Agrave" unicode="&#xc0;" horiz-adv-x="1348" 
d="M631 1997l77 -359h-139l-146 359h208zM1308 0h-223l-107 333h-605l-110 -333h-222l479 1475h308zM677 1261l-239 -727h474z" />
    <glyph glyph-name="Aacute" unicode="&#xc1;" horiz-adv-x="1348" 
d="M718 1997h208l-147 -359h-138zM1308 0h-223l-109 333h-605l-108 -333h-222l479 1475h308zM672 1261l-236 -727h474z" />
    <glyph glyph-name="Acircumflex" unicode="&#xc2;" horiz-adv-x="1348" 
d="M520 1638h-205l265 308h185l264 -308h-205l-151 182zM828 1475l480 -1475h-223l-109 333h-605l-108 -333h-222l479 1475h308zM910 534l-238 726l-236 -726h474z" />
    <glyph glyph-name="Atilde" unicode="&#xc3;" horiz-adv-x="1348" 
d="M840 1694q-42 0 -90 21t-83.5 46t-74.5 46t-66 21q-34 0 -46.5 -33.5t0.5 -77.5h-139q-28 116 17 193.5t151 77.5q42 0 90 -21t83.5 -46.5t74.5 -46.5t66 -21q33 0 46 32.5t0 79.5h140q29 -116 -16.5 -193.5t-152.5 -77.5zM41 0l479 1475h308l480 -1475h-223l-109 333
h-605l-108 -333h-222zM672 1260l-236 -726h474z" />
    <glyph glyph-name="Adieresis" unicode="&#xc4;" horiz-adv-x="1348" 
d="M592 1630q-57 0 -95.5 38t-38.5 94q0 57 38 95t96 38q46 0 83 -26q37 26 82 26q58 0 96 -38t38 -95q0 -56 -38.5 -94t-95.5 -38q-43 0 -82 27q-39 -27 -83 -27zM520 1475h308l480 -1475h-223l-109 333h-605l-108 -333h-222zM672 1260l-236 -726h474z" />
    <glyph glyph-name="Aring" unicode="&#xc5;" horiz-adv-x="1348" 
d="M675 1590q-103 0 -176.5 74t-73.5 177t73.5 177t176.5 74q104 0 177.5 -73.5t73.5 -177.5t-73.5 -177.5t-177.5 -73.5zM675 1729q47 0 79.5 33t32.5 79q0 47 -32.5 80t-79.5 33q-46 0 -79.5 -33.5t-33.5 -79.5t33.5 -79t79.5 -33zM520 1475h308l480 -1475h-223l-109 333
h-605l-108 -333h-222zM436 534h474l-238 726z" />
    <glyph glyph-name="AE" unicode="&#xc6;" horiz-adv-x="1907" 
d="M1805 1475v-202h-727v-414h604v-202h-604v-455h727v-202h-942v333h-492l-108 -333h-222l479 1475h1285zM676 1273l-240 -739h427v739h-187z" />
    <glyph glyph-name="Ccedilla" unicode="&#xc7;" horiz-adv-x="1496" 
d="M759 173q171 0 282.5 86.5t155.5 244.5l217 -59q-60 -202 -205.5 -326t-361.5 -146l-25 -70q124 -60 124 -187q0 -91 -61 -150.5t-147 -59.5q-67 0 -137 36l49 131q44 -14 70 -14q32 0 51.5 19t19.5 44q0 16 -8 29.5t-18.5 22t-32 18t-35 14t-41.5 13.5l54 151
q-305 17 -477 225.5t-172 541.5q0 228 81.5 401t240.5 270t376 97q250 0 419 -126.5t236 -349.5l-217 -58q-44 158 -155.5 244.5t-282.5 86.5q-229 0 -349.5 -152t-121.5 -413q-2 -260 119.5 -412t351.5 -152z" />
    <glyph glyph-name="Egrave" unicode="&#xc8;" horiz-adv-x="1187" 
d="M693 1638l-76 359h-208l146 -359h138zM1085 202v-202h-942v1475h942v-202h-728v-414h606v-202h-606v-455h728z" />
    <glyph glyph-name="Eacute" unicode="&#xc9;" horiz-adv-x="1187" 
d="M871 1997h-208l-76 -359h138zM1085 0h-942v1475h942v-202h-728v-414h606v-202h-606v-455h728v-202z" />
    <glyph glyph-name="Ecircumflex" unicode="&#xca;" horiz-adv-x="1187" 
d="M601 1820l-151 -182h-205l264 308h185l264 -308h-204zM1085 0h-942v1475h942v-202h-728v-414h606v-202h-606v-455h728v-202z" />
    <glyph glyph-name="Edieresis" unicode="&#xcb;" horiz-adv-x="1187" 
d="M519 1630q-57 0 -95 38t-38 94q0 57 38 95t95 38q46 0 83 -26q37 26 83 26q58 0 95.5 -38t37.5 -95q0 -56 -38 -94t-95 -38q-45 0 -83 28q-38 -28 -83 -28zM1085 1475v-202h-728v-414h606v-202h-606v-455h728v-202h-942v1475h942z" />
    <glyph glyph-name="Igrave" unicode="&#xcc;" horiz-adv-x="541" 
d="M38 1997l145 -359h140l-77 359h-208zM378 0h-214v1475h214v-1475z" />
    <glyph glyph-name="Iacute" unicode="&#xcd;" horiz-adv-x="541" 
d="M296 1997l-76 -359h138l147 359h-209zM378 0h-214v1475h214v-1475z" />
    <glyph glyph-name="Icircumflex" unicode="&#xce;" horiz-adv-x="541" 
d="M626 1638h-205l-153 182l-152 -182h-205l265 308h184zM378 0h-214v1475h214v-1475z" />
    <glyph glyph-name="Idieresis" unicode="&#xcf;" horiz-adv-x="541" 
d="M353 1895q58 0 95.5 -38t37.5 -95q0 -56 -38 -94t-95 -38q-45 0 -83 28q-38 -28 -83 -28q-57 0 -95 38t-38 94q0 57 38 95t95 38q46 0 83 -26q37 26 83 26zM378 0h-214v1475h214v-1475z" />
    <glyph glyph-name="Eth" unicode="&#xd0;" horiz-adv-x="1412" 
d="M786 1465q168 -21 290 -124t181.5 -258.5t59.5 -345.5t-59.5 -345.5t-181.5 -258.5t-290 -124q-69 -9 -183 -9h-462v652h-121v172h121v651h462q106 0 183 -10zM771 214q82 16 144.5 64t100 119.5t56 157t18.5 182.5q0 134 -33 242t-106 185t-180 97q-54 10 -168 10h-243
v-447h336v-172h-336v-448h243q114 0 168 10z" />
    <glyph glyph-name="Ntilde" unicode="&#xd1;" horiz-adv-x="1446" 
d="M912 1642q-42 0 -90 21t-83 46.5t-74 46.5t-66 21q-34 0 -46.5 -33.5t1.5 -77.5h-139q-29 116 16 193t152 77q42 0 90 -21t83.5 -46t74.5 -46t65 -21q33 0 46 33t0 79h139q29 -116 -16.5 -194t-152.5 -78zM360 1097v-1097h-217v1475h217l726 -1096v1096h218v-1475h-218z
" />
    <glyph glyph-name="Ograve" unicode="&#xd2;" horiz-adv-x="1516" 
d="M512 1997l146 -359h139l-77 359h-208zM759 -31q-217 0 -376 97t-240.5 270t-81.5 401t81.5 401t240.5 270t376 97t375.5 -97t239.5 -270t81 -401t-81 -401t-239.5 -270t-375.5 -97zM759 173q229 -2 349 150.5t120 413.5q0 260 -120 412t-349 153q-153 1 -260 -70.5
t-158 -197.5t-52 -297t51 -296t158.5 -196t260.5 -72z" />
    <glyph glyph-name="Oacute" unicode="&#xd3;" horiz-adv-x="1516" 
d="M717 1638h138l146 359h-207zM759 -31q-217 0 -376 97t-240.5 270t-81.5 401t81.5 401t240.5 270t376 97t375.5 -97t239.5 -270t81 -401t-81 -401t-239.5 -270t-375.5 -97zM759 173q229 -2 349 150.5t120 413.5q0 260 -120 412t-349 153q-153 1 -260 -70.5t-158 -197.5
t-52 -297t51 -296t158.5 -196t260.5 -72z" />
    <glyph glyph-name="Ocircumflex" unicode="&#xd4;" horiz-adv-x="1516" 
d="M1113 1638h-205l-152 182l-153 -182h-205l266 308h184zM759 -31q-217 0 -376 97t-240.5 270t-81.5 401t81.5 401t240.5 270t376 97t375.5 -97t239.5 -270t81 -401t-81 -401t-239.5 -270t-375.5 -97zM759 173q229 -2 349 150.5t120 413.5q0 260 -120 412t-349 153
q-153 1 -260 -70.5t-158 -197.5t-52 -297t51 -296t158.5 -196t260.5 -72z" />
    <glyph glyph-name="Otilde" unicode="&#xd5;" horiz-adv-x="1516" 
d="M937 1642q-42 0 -90 21t-83 46.5t-74 46.5t-66 21q-34 0 -46.5 -33.5t0.5 -77.5h-140q-28 116 17 193t151 77q53 0 114.5 -33.5t114.5 -67t86 -33.5t46 32.5t0 79.5h139q29 -116 -16.5 -194t-152.5 -78zM759 -31q-217 0 -376 97t-240.5 270t-81.5 401t81.5 401t240.5 270
t376 97t375.5 -97t239.5 -270t81 -401t-81 -401t-239.5 -270t-375.5 -97zM759 173q229 -2 349 150.5t120 413.5q0 260 -120 412t-349 153q-153 1 -260 -70.5t-158 -197.5t-52 -297t51 -296t158.5 -196t260.5 -72z" />
    <glyph glyph-name="Odieresis" unicode="&#xd6;" horiz-adv-x="1516" 
d="M675 1630q-57 0 -95 38t-38 94q0 57 38 95t95 38q46 0 83 -26q37 26 83 26q58 0 95.5 -38t37.5 -95q0 -56 -38 -94t-95 -38q-45 0 -83 28q-38 -28 -83 -28zM759 1505q217 0 375.5 -97t239.5 -270t81 -401t-81 -401t-239.5 -270t-375.5 -97t-376 97t-240.5 270t-81.5 401
t81.5 401t240.5 270t376 97zM759 173q229 -2 349 150.5t120 413.5q0 260 -120 412t-349 153q-153 1 -260 -70.5t-158 -197.5t-52 -297t51 -296t158.5 -196t260.5 -72z" />
    <glyph glyph-name="multiply" unicode="&#xd7;" horiz-adv-x="1025" 
d="M902 470l-122 -122l-268 268l-267 -268l-122 122l267 268l-266 267l122 121l266 -266l267 266l122 -121l-267 -267z" />
    <glyph glyph-name="Oslash" unicode="&#xd8;" horiz-adv-x="1516" 
d="M1322 1499l153 -136l-140 -156q120 -194 120 -470q0 -228 -81 -401t-239.5 -270t-375.5 -97q-251 0 -425 130l-114 -126l-152 137l126 139q-133 199 -133 488q0 228 81.5 401t240.5 270t376 97q264 0 440 -142zM289 737q0 -189 62 -319l707 782q-116 101 -299 102
q-153 1 -260 -70.5t-158 -197.5t-52 -297zM759 173q229 -2 349 150.5t120 413.5q0 175 -53 300l-701 -776q114 -87 285 -88z" />
    <glyph glyph-name="Ugrave" unicode="&#xd9;" horiz-adv-x="1462" 
d="M520 1997l147 -359h138l-76 359h-209zM731 -31q-262 0 -425 157.5t-163 416.5v931l217 1v-921q0 -91 32 -165.5t85 -121t118.5 -71.5t135.5 -25q95 0 178 42.5t138 132t55 208.5v921h217v-932q0 -259 -163 -416.5t-425 -157.5z" />
    <glyph glyph-name="Uacute" unicode="&#xda;" horiz-adv-x="1462" 
d="M668 1638h138l146 359h-209zM731 -31q-262 0 -425 157.5t-163 416.5v931l217 1v-921q0 -91 32 -165.5t85 -121t118.5 -71.5t135.5 -25q95 0 178 42.5t138 132t55 208.5v921h217v-932q0 -259 -163 -416.5t-425 -157.5z" />
    <glyph glyph-name="Ucircumflex" unicode="&#xdb;" horiz-adv-x="1462" 
d="M821 1946l264 -308h-204l-153 182l-151 -182h-205l264 308h185zM731 -31q-262 0 -425 157.5t-163 416.5v931l217 1v-921q0 -91 32 -165.5t85 -121t118.5 -71.5t135.5 -25q95 0 178 42.5t138 132t55 208.5v921h217v-932q0 -259 -163 -416.5t-425 -157.5z" />
    <glyph glyph-name="Udieresis" unicode="&#xdc;" horiz-adv-x="1462" 
d="M648 1630q-57 0 -95.5 38t-38.5 94q0 57 38 95t96 38q46 0 82 -26q37 26 83 26q58 0 96 -38t38 -95q0 -56 -38.5 -94t-95.5 -38q-44 0 -83 27q-37 -27 -82 -27zM1102 554v921h217v-932q0 -259 -163 -416.5t-425 -157.5t-425 157.5t-163 416.5v931l217 1v-921
q0 -91 32 -165.5t85 -121t118.5 -71.5t135.5 -25q95 0 178 42.5t138 132t55 208.5z" />
    <glyph glyph-name="Yacute" unicode="&#xdd;" horiz-adv-x="1214" 
d="M543 1638h138l146 359h-209zM716 0h-217v609l-499 866h250l357 -620l358 620h249l-498 -866v-609z" />
    <glyph glyph-name="Thorn" unicode="&#xde;" horiz-adv-x="1266" 
d="M360 0h-217v1475h217v-266h368q81 0 153 -24q132 -44 212 -149q109 -126 112 -299q2 -159 -104 -292q-64 -82 -163.5 -130.5t-209.5 -48.5h-368v-266zM360 1007v-539h367q54 0 109 27.5t92 74.5q61 77 58 167q-3 110 -72 183q-36 39 -86.5 63t-100.5 24h-367z" />
    <glyph glyph-name="germandbls" unicode="&#xdf;" horiz-adv-x="1274" 
d="M683 -30q-118 0 -188 30v210q82 -29 161 -29q129 0 204 64.5t75 186.5q0 124 -94 189t-255 67v190q104 9 164.5 64t60.5 152t-64 153.5t-162 56.5q-148 0 -200 -117q-25 -59 -25 -158v-1029h-218v1086q0 86 21 154q44 133 156.5 199t265.5 66q191 0 317.5 -113.5
t126.5 -294.5q0 -94 -36 -168t-106 -117q109 -33 187 -136.5t78 -246.5q0 -215 -122 -337t-347 -122z" />
    <glyph glyph-name="agrave" unicode="&#xe0;" horiz-adv-x="1166" 
d="M575 1628l77 -358h-139l-145 358h207zM1005 926q24 -50 31 -106t7 -139v-681h-189v161q-134 -192 -398 -192q-177 0 -275.5 95t-98.5 237q0 246 261 328q27 8 55.5 15t69 14.5t63.5 12t77 12.5t69.5 10.5t81.5 11.5t74 10q-5 116 -63.5 170t-186.5 54q-93 0 -163.5 -43
t-97.5 -131l-200 61q41 146 158.5 228.5t304.5 82.5q153 0 261 -52.5t159 -158.5zM494 144q128 0 210.5 65.5t103.5 154.5q20 59 22 173q-301 -45 -384 -70q-152 -52 -152 -164q0 -69 51 -114t149 -45z" />
    <glyph glyph-name="aacute" unicode="&#xe1;" horiz-adv-x="1166" 
d="M622 1628h207l-145 -358h-139zM1005 926q24 -50 31 -106t7 -139v-681h-189v161q-134 -192 -398 -192q-177 0 -275.5 95t-98.5 237q0 246 261 328q27 8 55.5 15t69 14.5t63.5 12t77 12.5t69.5 10.5t81.5 11.5t74 10q-5 116 -63.5 170t-186.5 54q-93 0 -163.5 -43
t-97.5 -131l-200 61q41 146 158.5 228.5t304.5 82.5q153 0 261 -52.5t159 -158.5zM494 144q128 0 210.5 65.5t103.5 154.5q20 59 22 173q-301 -45 -384 -70q-152 -52 -152 -164q0 -69 51 -114t149 -45z" />
    <glyph glyph-name="acircumflex" unicode="&#xe2;" horiz-adv-x="1166" 
d="M750 1270l-153 181l-152 -181h-204l264 307h185l264 -307h-204zM1005 926q24 -50 31 -106t7 -139v-681h-189v161q-134 -192 -398 -192q-177 0 -275.5 95t-98.5 237q0 246 261 328q27 8 55.5 15t69 14.5t63.5 12t77 12.5t69.5 10.5t81.5 11.5t74 10q-5 116 -63.5 170
t-186.5 54q-93 0 -163.5 -43t-97.5 -131l-200 61q41 146 158.5 228.5t304.5 82.5q153 0 261 -52.5t159 -158.5zM494 144q128 0 210.5 65.5t103.5 154.5q20 59 22 173q-301 -45 -384 -70q-152 -52 -152 -164q0 -69 51 -114t149 -45z" />
    <glyph glyph-name="atilde" unicode="&#xe3;" horiz-adv-x="1166" 
d="M420 1297h-139q-29 116 16 193.5t152 77.5q53 0 114.5 -33.5t114 -67t85.5 -33.5t46 32t-1 79h139q29 -116 -16 -193.5t-152 -77.5q-42 0 -90 21t-83.5 46t-74.5 46t-65 21q-34 0 -47 -33.5t1 -77.5zM1005 926q24 -50 31 -106t7 -139v-681h-189v161q-134 -192 -398 -192
q-177 0 -275.5 95t-98.5 237q0 246 261 328q27 8 55.5 15t69 14.5t63.5 12t77 12.5t69.5 10.5t81.5 11.5t74 10q-5 116 -63.5 170t-186.5 54q-93 0 -163.5 -43t-97.5 -131l-200 61q41 146 158.5 228.5t304.5 82.5q153 0 261 -52.5t159 -158.5zM494 144q128 0 210.5 65.5
t103.5 154.5q20 59 22 173q-301 -45 -384 -70q-152 -52 -152 -164q0 -69 51 -114t149 -45z" />
    <glyph glyph-name="adieresis" unicode="&#xe4;" horiz-adv-x="1166" 
d="M520 1262q-57 0 -95.5 38t-38.5 94q0 57 38 95t96 38q44 0 83 -27q39 27 82 27q58 0 96 -38t38 -95q0 -56 -38.5 -94t-95.5 -38q-45 0 -82 26q-37 -26 -83 -26zM1005 926q24 -50 31 -106t7 -139v-681h-189v161q-134 -192 -398 -192q-177 0 -275.5 95t-98.5 237
q0 246 261 328q27 8 55.5 15t69 14.5t63.5 12t77 12.5t69.5 10.5t81.5 11.5t74 10q-5 116 -63.5 170t-186.5 54q-93 0 -163.5 -43t-97.5 -131l-200 61q41 146 158.5 228.5t304.5 82.5q153 0 261 -52.5t159 -158.5zM494 144q128 0 210.5 65.5t103.5 154.5q20 59 22 173
q-301 -45 -384 -70q-152 -52 -152 -164q0 -69 51 -114t149 -45z" />
    <glyph glyph-name="aring" unicode="&#xe5;" horiz-adv-x="1166" 
d="M597 1222q-103 0 -177 74t-74 177t74 176.5t177 73.5q104 0 177.5 -73.5t73.5 -176.5t-74 -177t-177 -74zM597 1585q-46 0 -79.5 -33t-33.5 -79t33.5 -79.5t79.5 -33.5t79.5 33.5t33.5 79.5t-33 79t-80 33zM1005 926q24 -50 31 -106t7 -139v-681h-189v161
q-134 -192 -398 -192q-177 0 -275.5 95t-98.5 237q0 246 261 328q27 8 55.5 15t69 14.5t63.5 12t77 12.5t69.5 10.5t81.5 11.5t74 10q-5 116 -63.5 170t-186.5 54q-93 0 -163.5 -43t-97.5 -131l-200 61q41 146 158.5 228.5t304.5 82.5q153 0 261 -52.5t159 -158.5zM494 144
q128 0 210.5 65.5t103.5 154.5q20 59 22 173q-301 -45 -384 -70q-152 -52 -152 -164q0 -69 51 -114t149 -45z" />
    <glyph glyph-name="ae" unicode="&#xe6;" horiz-adv-x="1921" 
d="M1836 493h-780q12 -151 88 -236.5t208 -85.5q92 0 162 44.5t109 131.5l198 -66q-58 -146 -183 -229t-276 -83q-148 0 -261 64t-179 179q-138 -243 -454 -243q-182 0 -284 90t-102 239q0 62 20 113t49 85t77 61t87 41.5t98 26t91 15t83 8.5l243 20q4 138 -60.5 204.5
t-184.5 66.5q-95 0 -166.5 -42t-100.5 -128l-196 60q49 138 173 223t295 85q267 0 382 -171q140 171 381 171q164 0 277 -82.5t164.5 -226.5t41.5 -335zM1352 947q-127 0 -198.5 -74.5t-91.5 -207.5h566q-16 139 -81 210.5t-195 71.5zM494 142q98 0 178.5 46.5t117.5 115.5
q41 78 43 209l-208 -14q-31 -2 -54.5 -4.5t-60.5 -8.5t-64 -14.5t-57 -23.5t-49.5 -34t-32.5 -47.5t-13 -62.5q0 -75 53.5 -118.5t146.5 -43.5z" />
    <glyph glyph-name="ccedilla" unicode="&#xe7;" horiz-adv-x="1164" 
d="M616 171q196 0 266 184l217 -51q-49 -147 -156 -232t-259 -100l-25 -69q124 -60 124 -187q0 -91 -60 -150.5t-146 -59.5q-67 0 -139 36l49 131q44 -14 71 -14q32 0 51 18.5t19 44.5q0 16 -8 29.5t-18 22t-31 18t-35 14l-42 13.5l54 153q-218 24 -341 182.5t-125 398.5
q2 261 146.5 422.5t391.5 161.5q181 0 309.5 -90.5t169.5 -246.5l-213 -62q-31 92 -103.5 144.5t-166.5 52.5q-152 0 -229 -104t-78 -278q1 -176 79.5 -279t227.5 -103z" />
    <glyph glyph-name="egrave" unicode="&#xe8;" horiz-adv-x="1221" 
d="M684 1270l-77 358h-208l147 -358h138zM1136 493h-825q13 -155 93.5 -238.5t219.5 -83.5q100 0 173 45t114 131l210 -66q-64 -147 -194.5 -229.5t-292.5 -82.5q-248 0 -400 159t-152 416q0 270 149 431.5t393 161.5q253 0 391 -173.5t121 -470.5zM632 947
q-136 0 -215.5 -73.5t-100.5 -214.5h600q-17 147 -86.5 217.5t-197.5 70.5z" />
    <glyph glyph-name="eacute" unicode="&#xe9;" horiz-adv-x="1221" 
d="M668 1628h208l-147 -358h-138zM1136 493h-825q13 -155 93.5 -238.5t219.5 -83.5q100 0 173 45t114 131l210 -66q-64 -147 -194.5 -229.5t-292.5 -82.5q-248 0 -400 159t-152 416q0 270 149 431.5t393 161.5q253 0 391 -173.5t121 -470.5zM632 947q-273 0 -316 -288h600
q-17 146 -87 217t-197 71z" />
    <glyph glyph-name="ecircumflex" unicode="&#xea;" horiz-adv-x="1221" 
d="M773 1270l-152 181l-153 -181h-205l265 307h185l265 -307h-205zM1136 493h-825q13 -155 93.5 -238.5t219.5 -83.5q100 0 173 45t114 131l210 -66q-64 -147 -194.5 -229.5t-292.5 -82.5q-248 0 -400 159t-152 416q0 270 149 431.5t393 161.5q253 0 391 -173.5t121 -470.5z
M632 947q-273 0 -316 -288h600q-17 146 -87 217t-197 71z" />
    <glyph glyph-name="edieresis" unicode="&#xeb;" horiz-adv-x="1221" 
d="M540 1262q-57 0 -95 38t-38 94q0 57 38 95t95 38q44 0 83 -27q39 27 83 27q58 0 95.5 -38t37.5 -95q0 -56 -38 -94t-95 -38q-46 0 -83 27q-37 -27 -83 -27zM624 1137q253 0 391 -173.5t121 -470.5h-825q13 -155 93.5 -238.5t219.5 -83.5q100 0 173 45t114 131l210 -66
q-64 -147 -194.5 -229.5t-292.5 -82.5q-248 0 -400 159t-152 416q0 270 149 431.5t393 161.5zM316 659h600q-17 147 -86.5 217.5t-197.5 70.5q-136 0 -215.5 -73.5t-100.5 -214.5z" />
    <glyph glyph-name="igrave" unicode="&#xec;" horiz-adv-x="541" 
d="M323 1270l-77 358h-208l145 -358h140zM378 0h-214v1106h214v-1106z" />
    <glyph glyph-name="iacute" unicode="&#xed;" horiz-adv-x="541" 
d="M505 1628h-209l-76 -358h138zM378 0h-214v1106h214v-1106z" />
    <glyph glyph-name="icircumflex" unicode="&#xee;" horiz-adv-x="541" 
d="M639 1270h-205l-152 181l-152 -181h-205l264 307h186zM378 0h-214v1106h214v-1106z" />
    <glyph glyph-name="idieresis" unicode="&#xef;" horiz-adv-x="541" 
d="M353 1527q58 0 95.5 -38t37.5 -95q0 -56 -38 -94t-95 -38q-46 0 -83 27q-37 -27 -83 -27q-57 0 -95 38t-38 94q0 57 38 95t95 38q44 0 83 -27q39 27 83 27zM378 0h-214v1106h214v-1106z" />
    <glyph glyph-name="eth" unicode="&#xf0;" horiz-adv-x="1211" 
d="M962 1281q93 -127 130 -299.5t37 -460.5q0 -253 -141 -403t-381 -149q-237 -1 -380.5 149.5t-144.5 396.5q1 246 145 397t380 150q172 0 316 -113q-24 175 -171 295l-108 -127l-124 109l87 102q-82 35 -176 41l33 169q152 -6 269 -61l108 126l123 -108l-94 -110
q54 -49 92 -104zM607 162q147 0 226.5 94t79.5 261q0 166 -81 259.5t-225 92.5q-149 1 -229 -92t-80 -261q0 -169 80 -261.5t229 -92.5z" />
    <glyph glyph-name="ntilde" unicode="&#xf1;" 
d="M796 1274q-42 0 -90 21t-83.5 46t-74.5 46t-66 21q-34 0 -46.5 -33.5t1.5 -77.5h-139q-29 116 16 193.5t152 77.5q42 0 90 -21t83.5 -46t74.5 -46t65 -21q33 0 46 32t0 79h140q29 -116 -16.5 -193.5t-152.5 -77.5zM699 1136q109 0 191.5 -39t128 -95t73.5 -131.5
t36.5 -136t8.5 -120.5v-614h-217v544q0 57 -6 107t-24.5 103.5t-48.5 91.5t-81.5 62.5t-119.5 24.5q-126 0 -203.5 -86.5t-77.5 -271.5v-575h-217v1106h192v-132q129 162 365 162z" />
    <glyph glyph-name="ograve" unicode="&#xf2;" horiz-adv-x="1248" 
d="M668 1270l-77 358h-208l145 -358h140zM624 -31q-246 0 -394 162.5t-148 422.5t149 421.5t393 161.5q247 0 394.5 -162t147.5 -421q0 -261 -148 -423t-394 -162zM624 171q154 0 234.5 104t80.5 279q0 177 -80.5 279t-234.5 102q-156 0 -235.5 -103t-79.5 -278
q0 -178 81.5 -280.5t233.5 -102.5z" />
    <glyph glyph-name="oacute" unicode="&#xf3;" horiz-adv-x="1248" 
d="M855 1628h-208l-77 -358h139zM624 -31q-246 0 -394 162.5t-148 422.5t149 421.5t393 161.5q247 0 394.5 -162t147.5 -421q0 -261 -148 -423t-394 -162zM624 171q154 0 234.5 104t80.5 279q0 177 -80.5 279t-234.5 102q-156 0 -235.5 -103t-79.5 -278q0 -178 81.5 -280.5
t233.5 -102.5z" />
    <glyph glyph-name="ocircumflex" unicode="&#xf4;" horiz-adv-x="1248" 
d="M979 1270h-205l-152 181l-152 -181h-205l264 307h186zM624 -31q-246 0 -394 162.5t-148 422.5t149 421.5t393 161.5q247 0 394.5 -162t147.5 -421q0 -261 -148 -423t-394 -162zM624 171q154 0 234.5 104t80.5 279q0 177 -80.5 279t-234.5 102q-156 0 -235.5 -103
t-79.5 -278q0 -178 81.5 -280.5t233.5 -102.5z" />
    <glyph glyph-name="otilde" unicode="&#xf5;" horiz-adv-x="1248" 
d="M790 1274q-42 0 -90 21t-83.5 46t-74.5 46t-66 21q-34 0 -46.5 -33.5t1.5 -77.5h-139q-29 116 16 193.5t152 77.5q42 0 90 -21t83.5 -46t74.5 -46t65 -21q33 0 46 32t0 79h139q29 -116 -16 -193.5t-152 -77.5zM624 -31q-246 0 -394 162.5t-148 422.5t149 421.5t393 161.5
q247 0 394.5 -162t147.5 -421q0 -261 -148 -423t-394 -162zM624 171q154 0 234.5 104t80.5 279q0 177 -80.5 279t-234.5 102q-156 0 -235.5 -103t-79.5 -278q0 -178 81.5 -280.5t233.5 -102.5z" />
    <glyph glyph-name="odieresis" unicode="&#xf6;" horiz-adv-x="1248" 
d="M542 1262q-57 0 -95.5 38t-38.5 94q0 57 38 95t96 38q45 0 82 -27q39 27 83 27q58 0 96 -38t38 -95q0 -56 -38.5 -94t-95.5 -38q-46 0 -83 26q-36 -26 -82 -26zM624 1137q247 0 394.5 -162t147.5 -421q0 -261 -148 -423t-394 -162t-394 162.5t-148 422.5t149 421.5
t393 161.5zM624 171q154 0 234.5 104t80.5 279q0 177 -80.5 279t-234.5 102q-156 0 -235.5 -103t-79.5 -278q0 -178 81.5 -280.5t233.5 -102.5z" />
    <glyph glyph-name="divide" unicode="&#xf7;" horiz-adv-x="1105" 
d="M556 926q-54 0 -90 36t-36 88q0 54 36 90t90 36t89.5 -36t35.5 -90q0 -52 -35.5 -88t-89.5 -36zM983 652h-860v172h860v-172zM556 309q-54 0 -90 36t-36 89q0 54 36 89.5t90 35.5t89.5 -36t35.5 -89t-35.5 -89t-89.5 -36z" />
    <glyph glyph-name="oslash" unicode="&#xf8;" horiz-adv-x="1248" 
d="M1056 1126l143 -144l-109 -108q76 -135 76 -320q0 -261 -148 -423t-394 -162q-196 0 -334 108l-97 -97l-144 143l109 108q-76 141 -76 323q0 260 149 421.5t393 161.5q196 0 334 -107zM624 935q-156 0 -235.5 -103t-79.5 -278q0 -95 25 -175l490 488q-77 68 -200 68z
M624 171q154 0 234.5 104t80.5 279q0 95 -25 173l-489 -489q78 -67 199 -67z" />
    <glyph glyph-name="ugrave" unicode="&#xf9;" 
d="M605 1628l77 -358h-139l-146 358h208zM900 530v576h216v-1106h-190v132q-130 -162 -366 -162q-109 0 -191.5 39t-127.5 95t-73 131.5t-36.5 135.5t-8.5 121v614h217v-544q0 -57 6 -107t24.5 -103.5t48.5 -91.5t81.5 -62.5t119.5 -24.5q126 0 203 86t77 271z" />
    <glyph glyph-name="uacute" unicode="&#xfa;" 
d="M632 1628h209l-147 -358h-138zM900 530v576h216v-1106h-190v132q-130 -162 -366 -162q-109 0 -191.5 39t-127.5 95t-73 131.5t-36.5 135.5t-8.5 121v614h217v-544q0 -57 6 -107t24.5 -103.5t48.5 -91.5t81.5 -62.5t119.5 -24.5q126 0 203 86t77 271z" />
    <glyph glyph-name="ucircumflex" unicode="&#xfb;" 
d="M769 1270l-153 181l-152 -181h-205l265 307h185l265 -307h-205zM900 530v576h216v-1106h-190v132q-130 -162 -366 -162q-109 0 -191.5 39t-127.5 95t-73 131.5t-36.5 135.5t-8.5 121v614h217v-544q0 -57 6 -107t24.5 -103.5t48.5 -91.5t81.5 -62.5t119.5 -24.5
q126 0 203 86t77 271z" />
    <glyph glyph-name="udieresis" unicode="&#xfc;" 
d="M536 1262q-57 0 -95.5 38t-38.5 94q0 57 38.5 95t95.5 38q43 0 82 -27q39 27 83 27q58 0 96 -38t38 -95q0 -56 -38.5 -94t-95.5 -38q-46 0 -83 27q-37 -27 -82 -27zM900 530v576h216v-1106h-190v132q-130 -162 -366 -162q-109 0 -191.5 39t-127.5 95t-73 131.5
t-36.5 135.5t-8.5 121v614h217v-544q0 -57 6 -107t24.5 -103.5t48.5 -91.5t81.5 -62.5t119.5 -24.5q126 0 203 86t77 271z" />
    <glyph glyph-name="yacute" unicode="&#xfd;" horiz-adv-x="1123" 
d="M592 1628h209l-147 -358h-138zM578 274l312 832h217l-610 -1598h-204l182 497l-447 1101h223z" />
    <glyph glyph-name="thorn" unicode="&#xfe;" horiz-adv-x="1245" 
d="M658 1137q229 0 367 -164t138 -419q0 -166 -60 -298.5t-174.5 -209.5t-265.5 -77q-183 0 -306 109v-570h-215v1598h1v369h216v-443q121 105 299 105zM633 163q148 0 225.5 109t77.5 282q0 172 -78.5 280.5t-231.5 108.5q-146 0 -219.5 -105t-73.5 -284q0 -181 74 -286
t226 -105z" />
    <glyph glyph-name="ydieresis" unicode="&#xff;" horiz-adv-x="1123" 
d="M490 1262q-57 0 -95 38t-38 94q0 57 38 95t95 38q44 0 83 -27q39 27 83 27q58 0 96 -38t38 -95q0 -56 -38.5 -94t-95.5 -38q-46 0 -83 27q-37 -27 -83 -27zM578 274l312 832h217l-610 -1598h-204l182 497l-447 1101h223z" />
    <glyph glyph-name="Amacron" unicode="&#x100;" horiz-adv-x="1348" 
d="M943 1720h-535v171h535v-171zM520 1475h308l480 -1475h-223l-109 333h-605l-108 -333h-222zM436 534h474l-238 726z" />
    <glyph glyph-name="amacron" unicode="&#x101;" horiz-adv-x="1166" 
d="M357 1523h536v-171h-536v171zM1005 926q24 -50 31 -106t7 -139v-681h-189v161q-134 -192 -398 -192q-177 0 -275.5 95t-98.5 237q0 246 261 328q27 8 55.5 15t69 14.5t63.5 12t77 12.5t69.5 10.5t81.5 11.5t74 10q-5 116 -63.5 170t-186.5 54q-93 0 -163.5 -43
t-97.5 -131l-200 61q41 146 158.5 228.5t304.5 82.5q153 0 261 -52.5t159 -158.5zM494 144q128 0 210.5 65.5t103.5 154.5q20 59 22 173q-301 -45 -384 -70q-152 -52 -152 -164q0 -69 51 -114t149 -45z" />
    <glyph glyph-name="Abreve" unicode="&#x102;" horiz-adv-x="1348" 
d="M675 1602q-122 0 -208.5 86t-86.5 208h170q0 -52 36.5 -88t88.5 -36t88.5 36t36.5 88h170q0 -122 -86 -208t-209 -86zM1308 0h-223l-109 333h-605l-108 -333h-222l479 1475h308zM672 1261l-236 -727h474z" />
    <glyph glyph-name="abreve" unicode="&#x103;" horiz-adv-x="1166" 
d="M595 1233q-122 0 -208.5 86.5t-86.5 208.5h170q0 -52 36.5 -88.5t88.5 -36.5t88.5 36.5t36.5 88.5h170q0 -122 -86 -208.5t-209 -86.5zM1005 926q24 -50 31 -106t7 -139v-681h-189v161q-134 -192 -398 -192q-177 0 -275.5 95t-98.5 237q0 246 261 328q27 8 55.5 15
t69 14.5t63.5 12t77 12.5t69.5 10.5t81.5 11.5t74 10q-5 116 -63.5 170t-186.5 54q-93 0 -163.5 -43t-97.5 -131l-200 61q41 146 158.5 228.5t304.5 82.5q153 0 261 -52.5t159 -158.5zM494 144q128 0 210.5 65.5t103.5 154.5q20 59 22 173q-301 -45 -384 -70
q-152 -52 -152 -164q0 -69 51 -114t149 -45z" />
    <glyph glyph-name="Aogonek" unicode="&#x104;" horiz-adv-x="1348" 
d="M1144 -329q40 0 82 40l82 -103q-35 -48 -85.5 -74t-104.5 -26q-90 0 -151 65t-61 152q0 74 46.5 152.5t124.5 146.5l-101 309h-605l-108 -333h-222l479 1475h308l480 -1475q-95 -53 -162.5 -129t-67.5 -132q0 -29 19.5 -48.5t46.5 -19.5zM672 1260l-236 -726h474z" />
    <glyph glyph-name="aogonek" unicode="&#x105;" horiz-adv-x="1166" 
d="M1043 681v-681q-95 -53 -162 -129t-67 -132q0 -29 19.5 -48.5t46.5 -19.5q40 0 82 40l81 -103q-74 -100 -189 -100q-90 0 -151 65t-61 152q0 84 58 172.5t154 158.5v105q-134 -192 -398 -192q-177 0 -275.5 95t-98.5 237q0 246 261 328q27 8 55.5 15t69 14.5t63.5 12
t77 12.5t69.5 10.5t81.5 11.5t74 10q-5 116 -63.5 170t-186.5 54q-93 0 -163.5 -43t-97.5 -131l-200 61q41 146 158.5 228.5t304.5 82.5q153 0 261 -52.5t159 -158.5q24 -50 31 -106t7 -139zM494 144q128 0 210.5 65.5t103.5 154.5q20 59 22 173q-301 -45 -384 -70
q-152 -52 -152 -164q0 -69 51 -114t149 -45z" />
    <glyph glyph-name="Cacute" unicode="&#x106;" horiz-adv-x="1496" 
d="M1009 1997h-208l-77 -359h138zM759 -31q-217 0 -376 97t-240.5 270t-81.5 401t81.5 401t240.5 270t376 97q250 0 419 -126.5t236 -349.5l-217 -58q-44 158 -155.5 244.5t-282.5 86.5q-229 0 -349.5 -152t-121.5 -413q-2 -260 119.5 -412t351.5 -152q171 0 282.5 86.5
t155.5 244.5l217 -59q-67 -223 -236 -349.5t-419 -126.5z" />
    <glyph glyph-name="cacute" unicode="&#x107;" horiz-adv-x="1164" 
d="M855 1628h-209l-76 -358h139zM616 -31q-248 0 -390 162.5t-144 421.5q2 261 146.5 422.5t391.5 161.5q181 0 309.5 -90.5t169.5 -246.5l-213 -62q-31 92 -103.5 144.5t-166.5 52.5q-152 0 -229 -104t-78 -278q1 -176 79.5 -279t227.5 -103q196 0 266 184l217 -51
q-55 -162 -179.5 -248.5t-303.5 -86.5z" />
    <glyph glyph-name="Ccircumflex" unicode="&#x108;" horiz-adv-x="1496" 
d="M756 1820l-152 -182h-205l265 308h185l264 -308h-205zM759 -31q-217 0 -376 97t-240.5 270t-81.5 401t81.5 401t240.5 270t376 97q250 0 419 -126.5t236 -349.5l-217 -58q-44 158 -155.5 244.5t-282.5 86.5q-229 0 -349.5 -152t-121.5 -413q-2 -260 119.5 -412
t351.5 -152q171 0 282.5 86.5t155.5 244.5l217 -59q-67 -223 -236 -349.5t-419 -126.5z" />
    <glyph glyph-name="ccircumflex" unicode="&#x109;" horiz-adv-x="1164" 
d="M774 1270l-152 181l-152 -181h-205l264 307h186l264 -307h-205zM616 -31q-248 0 -390 162.5t-144 421.5q2 261 146.5 422.5t391.5 161.5q181 0 309.5 -90.5t169.5 -246.5l-213 -62q-31 92 -103.5 144.5t-166.5 52.5q-152 0 -229 -104t-78 -278q1 -176 79.5 -279
t227.5 -103q196 0 266 184l217 -51q-55 -162 -179.5 -248.5t-303.5 -86.5z" />
    <glyph glyph-name="Cdotaccent" unicode="&#x10a;" horiz-adv-x="1496" 
d="M771 1679q-57 0 -95 38t-38 94q0 57 38 95.5t95 38.5q58 0 96 -38.5t38 -95.5q0 -56 -38.5 -94t-95.5 -38zM759 -31q-217 0 -376 97t-240.5 270t-81.5 401t81.5 401t240.5 270t376 97q250 0 419 -126.5t236 -349.5l-217 -58q-44 158 -155.5 244.5t-282.5 86.5
q-229 0 -349.5 -152t-121.5 -413q-2 -260 119.5 -412t351.5 -152q171 0 282.5 86.5t155.5 244.5l217 -59q-67 -223 -236 -349.5t-419 -126.5z" />
    <glyph glyph-name="cdotaccent" unicode="&#x10b;" horiz-adv-x="1164" 
d="M645 1311q-57 0 -95.5 38t-38.5 94q0 57 38 95t96 38t96 -38t38 -95q0 -56 -38.5 -94t-95.5 -38zM616 -31q-248 0 -390 162.5t-144 421.5q2 261 146.5 422.5t391.5 161.5q181 0 309.5 -90.5t169.5 -246.5l-213 -62q-31 92 -103.5 144.5t-166.5 52.5q-152 0 -229 -104
t-78 -278q1 -176 79.5 -279t227.5 -103q196 0 266 184l217 -51q-55 -162 -179.5 -248.5t-303.5 -86.5z" />
    <glyph glyph-name="Ccaron" unicode="&#x10c;" horiz-adv-x="1496" 
d="M415 1946h205l151 -182l153 182h204l-264 -308h-185zM759 -31q-217 0 -376 97t-240.5 270t-81.5 401t81.5 401t240.5 270t376 97q250 0 419 -126.5t236 -349.5l-217 -58q-44 158 -155.5 244.5t-282.5 86.5q-229 0 -349.5 -152t-121.5 -413q-2 -260 119.5 -412t351.5 -152
q171 0 282.5 86.5t155.5 244.5l217 -59q-67 -223 -236 -349.5t-419 -126.5z" />
    <glyph glyph-name="ccaron" unicode="&#x10d;" horiz-adv-x="1164" 
d="M464 1577l152 -181l153 181h205l-265 -307h-185l-265 307h205zM616 -31q-248 0 -390 162.5t-144 421.5q2 261 146.5 422.5t391.5 161.5q181 0 309.5 -90.5t169.5 -246.5l-213 -62q-31 92 -103.5 144.5t-166.5 52.5q-152 0 -229 -104t-78 -278q1 -176 79.5 -279
t227.5 -103q196 0 266 184l217 -51q-55 -162 -179.5 -248.5t-303.5 -86.5z" />
    <glyph glyph-name="Dcaron" unicode="&#x10e;" horiz-adv-x="1414" 
d="M268 1946h205l153 -182l151 182h205l-264 -308h-186zM605 0h-462v1475h462q106 0 183 -10q168 -21 290 -124t181.5 -258.5t59.5 -345.5t-59.5 -345.5t-181.5 -258.5t-290 -124q-69 -9 -183 -9zM362 1271v-1067h243q114 0 168 10q82 16 144.5 64t100 119.5t56 157
t18.5 182.5q0 134 -33 242t-106 185t-180 97q-54 10 -168 10h-243z" />
    <glyph glyph-name="dcaron" unicode="&#x10f;" horiz-adv-x="1562" 
d="M1265 928l92 554h208l-161 -554h-139zM888 1030v445h215v-1475h-191v101q-127 -132 -329 -132q-151 0 -266 77t-175 209.5t-60 298.5q0 255 138 419t367 164q180 0 301 -107zM612 163q152 0 226 105t74 286q0 179 -73 284t-219 105q-153 0 -232 -108.5t-79 -280.5
q0 -173 77.5 -282t225.5 -109z" />
    <glyph glyph-name="Dcroat" unicode="&#x110;" horiz-adv-x="1412" 
d="M786 1465q168 -21 290 -124t181.5 -258.5t59.5 -345.5t-59.5 -345.5t-181.5 -258.5t-290 -124q-69 -9 -183 -9h-462v652h-121v172h121v651h462q106 0 183 -10zM771 214q82 16 144.5 64t100 119.5t56 157t18.5 182.5q0 134 -33 242t-106 185t-180 97q-54 10 -168 10h-243
v-447h336v-172h-336v-448h243q114 0 168 10z" />
    <glyph glyph-name="dcroat" unicode="&#x111;" horiz-adv-x="1246" 
d="M1103 1372h135v-171h-135v-1201h-191v101q-127 -132 -329 -132q-151 0 -266 77t-175 209.5t-60 298.5q0 255 138 419t367 164q180 0 301 -107v171h-185v171h185v103h215v-103zM612 163q152 0 226 105t74 286q0 179 -73 284t-219 105q-153 0 -232 -108.5t-79 -280.5
q0 -173 77.5 -282t225.5 -109z" />
    <glyph glyph-name="Emacron" unicode="&#x112;" horiz-adv-x="1187" 
d="M889 1720h-536v171h536v-171zM1085 202v-202h-942v1475h942v-202h-728v-414h606v-202h-606v-455h728z" />
    <glyph glyph-name="emacron" unicode="&#x113;" horiz-adv-x="1221" 
d="M376 1523h535v-171h-535v171zM1136 493h-825q13 -155 93.5 -238.5t219.5 -83.5q100 0 173 45t114 131l210 -66q-64 -147 -194.5 -229.5t-292.5 -82.5q-248 0 -400 159t-152 416q0 270 149 431.5t393 161.5q253 0 391 -173.5t121 -470.5zM632 947q-136 0 -215.5 -73.5
t-100.5 -214.5h600q-17 147 -86.5 217.5t-197.5 70.5z" />
    <glyph glyph-name="Edotaccent" unicode="&#x116;" horiz-adv-x="1187" 
d="M617 1679q-57 0 -95.5 38t-38.5 94q0 57 38 95.5t96 38.5t96 -38.5t38 -95.5q0 -56 -38.5 -94t-95.5 -38zM1085 202v-202h-942v1475h942v-202h-728v-414h606v-202h-606v-455h728z" />
    <glyph glyph-name="edotaccent" unicode="&#x117;" horiz-adv-x="1221" 
d="M626 1311q-57 0 -95.5 38t-38.5 94q0 57 38 95t96 38t95.5 -38t37.5 -95q0 -56 -38 -94t-95 -38zM1136 493h-825q13 -155 93.5 -238.5t219.5 -83.5q100 0 173 45t114 131l210 -66q-64 -147 -194.5 -229.5t-292.5 -82.5q-248 0 -400 159t-152 416q0 270 149 431.5
t393 161.5q253 0 391 -173.5t121 -470.5zM632 947q-136 0 -215.5 -73.5t-100.5 -214.5h600q-17 147 -86.5 217.5t-197.5 70.5z" />
    <glyph glyph-name="Eogonek" unicode="&#x118;" horiz-adv-x="1187" 
d="M1085 1475v-202h-728v-414h606v-202h-606v-455h728v-202q-95 -53 -161.5 -129t-66.5 -132q0 -29 19 -48.5t47 -19.5q40 0 82 40l80 -103q-74 -100 -189 -100q-90 0 -150.5 64.5t-60.5 152.5q0 137 143 275h-685v1475h942z" />
    <glyph glyph-name="eogonek" unicode="&#x119;" horiz-adv-x="1221" 
d="M624 1137q253 0 391 -173.5t121 -470.5h-825q13 -155 93.5 -238.5t219.5 -83.5q100 0 173 45t114 131l210 -66q-19 -44 -50 -92q-34 -57 -95 -146.5t-70 -104.5q-58 -99 -77 -162q-16 -52 12 -81q17 -18 41.5 -19.5t47.5 8.5t43 28l82 -104q-36 -54 -97 -80
q-67 -29 -137 -12t-113 71q-40 46 -49.5 112t15.5 132q22 61 83 152q-62 -14 -123 -14q-248 0 -400 159t-152 416q0 270 149 431.5t393 161.5zM316 659h600q-17 147 -86.5 217.5t-197.5 70.5q-136 0 -215.5 -73.5t-100.5 -214.5z" />
    <glyph glyph-name="Ecaron" unicode="&#x11a;" horiz-adv-x="1187" 
d="M263 1946h205l153 -182l152 182h205l-265 -308h-185zM1085 0h-942v1475h942v-202h-728v-414h606v-202h-606v-455h728v-202z" />
    <glyph glyph-name="ecaron" unicode="&#x11b;" horiz-adv-x="1221" 
d="M978 1577l-265 -307h-185l-265 307h205l153 -181l152 181h205zM1136 493h-825q13 -155 93.5 -238.5t219.5 -83.5q100 0 173 45t114 131l210 -66q-64 -147 -194.5 -229.5t-292.5 -82.5q-248 0 -400 159t-152 416q0 270 149 431.5t393 161.5q253 0 391 -173.5t121 -470.5z
M632 947q-273 0 -316 -288h600q-17 146 -87 217t-197 71z" />
    <glyph glyph-name="Gcircumflex" unicode="&#x11c;" horiz-adv-x="1480" 
d="M887 1638l-153 182l-152 -182h-205l265 308h184l266 -308h-205zM746 -31q-148 0 -273.5 52.5t-217 149.5t-143 242.5t-51.5 323.5q0 176 50.5 320.5t141 242t217 151t276.5 53.5q251 0 404.5 -112.5t212.5 -315.5l-217 -39q-47 122 -144 193t-243 72q-229 1 -349 -151.5
t-121 -413.5q-1 -171 51 -296t158.5 -196t260.5 -72q188 -2 297 106.5t132 314.5h-403v172h630q4 -35 4 -87q0 -154 -45.5 -284t-130 -225t-212 -148t-285.5 -53z" />
    <glyph glyph-name="gcircumflex" unicode="&#x11d;" horiz-adv-x="1245" 
d="M772 1270l-152 181l-152 -181h-205l264 307h186l264 -307h-205zM912 1007v99h190v-1136q0 -93 -15 -164q-34 -164 -161.5 -246t-326.5 -82q-137 0 -254.5 62.5t-183.5 178.5l197 101q34 -68 99.5 -102t143.5 -34q138 0 213 73.5t73 214.5v105q-122 -108 -304 -108
q-151 0 -266 77t-175 209.5t-60 298.5q0 255 138 419t367 164q200 0 325 -130zM612 163q152 0 226 105t74 286q0 179 -73 284t-219 105q-153 0 -232 -108.5t-79 -280.5q0 -173 77.5 -282t225.5 -109z" />
    <glyph glyph-name="Gbreve" unicode="&#x11e;" horiz-adv-x="1480" 
d="M752 1602q-122 0 -208.5 86t-86.5 208h170q0 -52 36.5 -88t88.5 -36t88.5 36t36.5 88h170q0 -122 -86 -208t-209 -86zM746 -31q-148 0 -273.5 52.5t-217 149.5t-143 242.5t-51.5 323.5q0 176 50.5 320.5t141 242t217 151t276.5 53.5q251 0 404.5 -112.5t212.5 -315.5
l-217 -39q-47 122 -144 193t-243 72q-229 1 -349 -151.5t-121 -413.5q-1 -171 51 -296t158.5 -196t260.5 -72q188 -2 297 106.5t132 314.5h-403v172h630q4 -35 4 -87q0 -154 -45.5 -284t-130 -225t-212 -148t-285.5 -53z" />
    <glyph glyph-name="gbreve" unicode="&#x11f;" horiz-adv-x="1245" 
d="M677 1233q-122 0 -208.5 86.5t-86.5 208.5h170q0 -52 36.5 -88.5t88.5 -36.5t88.5 36.5t36.5 88.5h170q0 -122 -86 -208.5t-209 -86.5zM912 1007v99h190v-1136q0 -93 -15 -164q-34 -164 -161.5 -246t-326.5 -82q-137 0 -254.5 62.5t-183.5 178.5l197 101
q34 -68 99.5 -102t143.5 -34q138 0 213 73.5t73 214.5v105q-122 -108 -304 -108q-151 0 -266 77t-175 209.5t-60 298.5q0 255 138 419t367 164q200 0 325 -130zM612 163q152 0 226 105t74 286q0 179 -73 284t-219 105q-153 0 -232 -108.5t-79 -280.5q0 -173 77.5 -282
t225.5 -109z" />
    <glyph glyph-name="Gdotaccent" unicode="&#x120;" horiz-adv-x="1480" 
d="M769 1679q-57 0 -95.5 38t-38.5 94q0 57 38 95.5t96 38.5q57 0 95 -38.5t38 -95.5q0 -56 -38 -94t-95 -38zM746 -31q-148 0 -273.5 52.5t-217 149.5t-143 242.5t-51.5 323.5q0 176 50.5 320.5t141 242t217 151t276.5 53.5q251 0 404.5 -112.5t212.5 -315.5l-217 -39
q-47 122 -144 193t-243 72q-229 1 -349 -151.5t-121 -413.5q-1 -171 51 -296t158.5 -196t260.5 -72q188 -2 297 106.5t132 314.5h-403v172h630q4 -35 4 -87q0 -154 -45.5 -284t-130 -225t-212 -148t-285.5 -53z" />
    <glyph glyph-name="gdotaccent" unicode="&#x121;" horiz-adv-x="1245" 
d="M667 1311q-58 0 -96.5 38t-38.5 94q0 57 38.5 95t96.5 38t95.5 -38t37.5 -95q0 -56 -38 -94t-95 -38zM912 1007v99h190v-1136q0 -93 -15 -164q-34 -164 -161.5 -246t-326.5 -82q-137 0 -254.5 62.5t-183.5 178.5l197 101q34 -68 99.5 -102t143.5 -34q138 0 213 73.5
t73 214.5v105q-122 -108 -304 -108q-151 0 -266 77t-175 209.5t-60 298.5q0 255 138 419t367 164q200 0 325 -130zM612 163q152 0 226 105t74 286q0 179 -73 284t-219 105q-153 0 -232 -108.5t-79 -280.5q0 -173 77.5 -282t225.5 -109z" />
    <glyph glyph-name="uni0122" unicode="&#x122;" horiz-adv-x="1480" 
d="M746 -31q-148 0 -273.5 52.5t-217 149.5t-143 242.5t-51.5 323.5q0 176 50.5 320.5t141 242t217 151t276.5 53.5q251 0 404.5 -112.5t212.5 -315.5l-217 -39q-47 122 -144 193t-243 72q-229 1 -349 -151.5t-121 -413.5q-1 -171 51 -296t158.5 -196t260.5 -72
q188 -2 297 106.5t132 314.5h-403v172h630q4 -35 4 -87q0 -154 -45.5 -284t-130 -225t-212 -148t-285.5 -53zM890 -184h-208l-77 -359h139z" />
    <glyph glyph-name="uni0123" unicode="&#x123;" horiz-adv-x="1245" 
d="M671 1684h139l-77 -358h-208zM912 1007v99h190v-1136q0 -93 -15 -164q-34 -164 -161.5 -246t-326.5 -82q-137 0 -254.5 62.5t-183.5 178.5l197 101q34 -68 99.5 -102t143.5 -34q138 0 213 73.5t73 214.5v105q-122 -108 -304 -108q-151 0 -266 77t-175 209.5t-60 298.5
q0 255 138 419t367 164q200 0 325 -130zM612 163q152 0 226 105t74 286q0 179 -73 284t-219 105q-153 0 -232 -108.5t-79 -280.5q0 -173 77.5 -282t225.5 -109z" />
    <glyph glyph-name="Hcircumflex" unicode="&#x124;" horiz-adv-x="1453" 
d="M876 1638l-152 182l-153 -182h-204l264 308h185l264 -308h-204zM357 0h-214v1475h214v-636h738v636h215v-1475h-215v637h-738v-637z" />
    <glyph glyph-name="hcircumflex" unicode="&#x125;" 
d="M592 1638h-205l-151 182l-153 -182h-205l264 308h186zM699 1136q109 0 191.5 -39t128 -95t73.5 -131.5t36.5 -136t8.5 -120.5v-614h-217v544q0 57 -6 107t-24.5 103.5t-48.5 91.5t-81.5 62.5t-119.5 24.5q-126 0 -203.5 -86.5t-77.5 -271.5v-575h-217v1475h192v-501
q130 162 365 162z" />
    <glyph glyph-name="Hbar" unicode="&#x126;" horiz-adv-x="1494" 
d="M1330 1217h144v-202h-144v-1015h-215v637h-737v-637h-214v1015h-144v202h144v258h214v-258h737v258h215v-258zM378 839h737v176h-737v-176z" />
    <glyph glyph-name="hbar" unicode="&#x127;" 
d="M699 1136q109 0 191.5 -39t128 -95t73.5 -131.5t36.5 -136t8.5 -120.5v-614h-217v544q0 57 -6 107t-24.5 103.5t-48.5 91.5t-81.5 62.5t-119.5 24.5q-126 0 -203.5 -86.5t-77.5 -271.5v-575h-217v1201h-117v171h117v103h192v-103h226v-171h-226v-227q130 162 365 162z
" />
    <glyph glyph-name="Itilde" unicode="&#x128;" horiz-adv-x="541" 
d="M436 1642q-42 0 -90 21t-83.5 46.5t-74.5 46.5t-65 21q-34 0 -47 -33.5t1 -77.5h-139q-29 117 15.5 193.5t151.5 76.5q53 0 114.5 -33.5t114.5 -67t86 -33.5t46 33t-1 79h139q29 -116 -16 -194t-152 -78zM378 0h-214v1475h214v-1475z" />
    <glyph glyph-name="itilde" unicode="&#x129;" horiz-adv-x="541" 
d="M436 1274q-42 0 -90 21t-83.5 46t-74.5 46t-65 21q-34 0 -47 -33.5t1 -77.5h-139q-29 117 15.5 194t151.5 77q53 0 114.5 -33.5t114.5 -67t86 -33.5t46 32t-1 79h139q29 -116 -16 -193.5t-152 -77.5zM378 1106v-1106h-214v1106h214z" />
    <glyph glyph-name="Imacron" unicode="&#x12a;" horiz-adv-x="541" 
d="M539 1891v-171h-536v171h536zM378 0h-214v1475h214v-1475z" />
    <glyph glyph-name="imacron" unicode="&#x12b;" horiz-adv-x="541" 
d="M3 1523h536v-171h-536v171zM378 0h-214v1106h214v-1106z" />
    <glyph glyph-name="Iogonek" unicode="&#x12e;" horiz-adv-x="541" 
d="M378 1475v-1475q-95 -53 -161.5 -129t-66.5 -132q0 -29 19 -48.5t46 -19.5q40 0 82 40l81 -103q-35 -48 -85 -74t-104 -26q-90 0 -151 64.5t-61 152.5q0 79 50.5 161t136.5 151v1438h214z" />
    <glyph glyph-name="iogonek" unicode="&#x12f;" horiz-adv-x="541" 
d="M271 1257q-57 0 -95.5 39t-38.5 95q0 57 38.5 95t95.5 38t95 -38t38 -95q0 -56 -38 -95t-95 -39zM164 37v1069h214v-1106q-95 -53 -161.5 -129t-66.5 -132q0 -29 19 -48.5t46 -19.5q40 0 82 40l81 -103q-35 -48 -85 -74t-104 -26q-90 0 -151 64.5t-61 152.5
q0 79 50.5 161t136.5 151z" />
    <glyph glyph-name="Idotaccent" unicode="&#x130;" horiz-adv-x="541" 
d="M271 1679q-57 0 -95 38t-38 94q0 57 38 95.5t95 38.5q58 0 96.5 -38.5t38.5 -95.5q0 -56 -38.5 -94t-96.5 -38zM378 0h-214v1475h214v-1475z" />
    <glyph glyph-name="dotlessi" unicode="&#x131;" horiz-adv-x="541" 
d="M378 1106v-1106h-214v1106h214z" />
    <glyph glyph-name="Jcircumflex" unicode="&#x134;" horiz-adv-x="1000" 
d="M1081 1638h-204l-153 182l-152 -182h-204l264 308h185zM424 -30q-160 0 -270.5 85t-153.5 233l212 50q14 -69 73 -117.5t132 -48.5q53 0 103.5 26t74.5 78q11 23 16.5 56.5t6 57.5t0.5 82v1003h218v-1003v-41v-40t-0.5 -35t-2 -35t-3.5 -30.5t-6 -32.5t-9 -29.5t-12 -32
t-16 -30.5q-57 -99 -151 -147.5t-212 -48.5z" />
    <glyph glyph-name="jcircumflex" unicode="&#x135;" horiz-adv-x="564" 
d="M660 1270h-204l-152 181l-152 -181h-205l264 307h185zM128 -492h-148v203h56q85 0 124.5 40.5t39.5 126.5v1228h215v-1315q0 -135 -75 -209t-212 -74z" />
    <glyph glyph-name="uni0136" unicode="&#x136;" horiz-adv-x="1289" 
d="M1241 1475l-610 -662l658 -813h-269l-532 658l-137 -147v-511h-208v1475h208v-670l624 670h266zM656 -543h-138l77 359h208z" />
    <glyph glyph-name="uni0137" unicode="&#x137;" horiz-adv-x="1073" 
d="M1058 1106l-468 -465l497 -641h-237l-395 507l-108 -108v-399h-205l1 1475h204v-810l455 441h256zM564 -543h-139l77 359h208z" />
    <glyph glyph-name="Lacute" unicode="&#x139;" horiz-adv-x="1076" 
d="M220 1638h138l147 359h-209zM1046 0h-882v1475h214v-1273h668v-202z" />
    <glyph glyph-name="lacute" unicode="&#x13a;" horiz-adv-x="541" 
d="M505 1997h-209l-76 -359h138zM378 0h-214v1505h214v-1505z" />
    <glyph glyph-name="uni013B" unicode="&#x13b;" horiz-adv-x="1076" 
d="M1046 0h-882v1475h214v-1273h668v-202zM574 -543l147 359h-208l-77 -359h138z" />
    <glyph glyph-name="uni013C" unicode="&#x13c;" horiz-adv-x="541" 
d="M378 0h-214v1505h214v-1505zM241 -543l146 359h-208l-77 -359h139z" />
    <glyph glyph-name="Lcaron" unicode="&#x13d;" horiz-adv-x="1076" 
d="M646 928l92 554h207l-161 -554h-138zM1046 0h-882v1475h214v-1273h668v-202z" />
    <glyph glyph-name="lcaron" unicode="&#x13e;" horiz-adv-x="824" 
d="M378 0h-214v1505h214v-1505zM527 928l93 554h206l-160 -554h-139z" />
    <glyph glyph-name="Lslash" unicode="&#x141;" horiz-adv-x="1103" 
d="M406 565v-363h667v-202h-882v442l-119 -68v233l119 69v799h215v-676l336 193v-233z" />
    <glyph glyph-name="lslash" unicode="&#x142;" horiz-adv-x="800" 
d="M508 931l228 131v-234l-228 -131v-697h-214v574l-229 -131v234l229 131v697h214v-574z" />
    <glyph glyph-name="Nacute" unicode="&#x143;" horiz-adv-x="1446" 
d="M685 1638h139l146 359h-208zM360 0h-217v1475h217l726 -1096v1096h218v-1475h-218l-726 1097v-1097z" />
    <glyph glyph-name="nacute" unicode="&#x144;" 
d="M668 1628h208l-147 -358h-138zM699 1136q109 0 191.5 -39t128 -95t73.5 -131.5t36.5 -136t8.5 -120.5v-614h-217v544q0 57 -6 107t-24.5 103.5t-48.5 91.5t-81.5 62.5t-119.5 24.5q-126 0 -203.5 -86.5t-77.5 -271.5v-575h-217v1106h192v-132q130 162 365 162z" />
    <glyph glyph-name="uni0145" unicode="&#x145;" horiz-adv-x="1446" 
d="M360 0h-217v1475h217l726 -1096v1096h218v-1475h-218l-726 1097v-1097zM715 -543l146 359h-209l-75 -359h138z" />
    <glyph glyph-name="uni0146" unicode="&#x146;" 
d="M699 1136q109 0 191.5 -39t128 -95t73.5 -131.5t36.5 -136t8.5 -120.5v-614h-217v544q0 57 -6 107t-24.5 103.5t-48.5 91.5t-81.5 62.5t-119.5 24.5q-126 0 -203.5 -86.5t-77.5 -271.5v-575h-217v1106h192v-132q130 162 365 162zM614 -543h-138l76 359h209z" />
    <glyph glyph-name="Ncaron" unicode="&#x147;" horiz-adv-x="1446" 
d="M744 1764l153 182h205l-264 -308h-186l-264 308h205zM360 0h-217v1475h217l726 -1096v1096h218v-1475h-218l-726 1097v-1097z" />
    <glyph glyph-name="ncaron" unicode="&#x148;" 
d="M986 1577l-264 -307h-185l-265 307h205l153 -181l151 181h205zM699 1136q109 0 191.5 -39t128 -95t73.5 -131.5t36.5 -136t8.5 -120.5v-614h-217v544q0 57 -6 107t-24.5 103.5t-48.5 91.5t-81.5 62.5t-119.5 24.5q-126 0 -203.5 -86.5t-77.5 -271.5v-575h-217v1106h192
v-132q130 162 365 162z" />
    <glyph glyph-name="Eng" unicode="&#x14a;" horiz-adv-x="1446" 
d="M1086 379v1096h218v-1660q0 -133 -63 -198.5t-193 -65.5q-71 0 -138 18v164q62 -6 77 -6q70 0 102.5 30t32.5 98q0 49 -20.5 99.5t-74.5 136.5l-667 1006v-1097h-217v1475h217z" />
    <glyph glyph-name="eng" unicode="&#x14b;" 
d="M699 1136q109 0 191.5 -39t128 -95t73.5 -131.5t36.5 -136t8.5 -120.5v-799q0 -107 -47.5 -172.5t-132.5 -83.5q-104 -18 -215 10v158q32 -4 52.5 -4.5t47 5.5t41.5 21t26 46t11 77v672q0 57 -6 107t-24.5 103.5t-48.5 91.5t-81.5 62.5t-119.5 24.5q-126 0 -203.5 -86.5
t-77.5 -271.5v-575h-217v1106h192v-132q130 162 365 162z" />
    <glyph glyph-name="Omacron" unicode="&#x14c;" horiz-adv-x="1516" 
d="M1026 1891v-171h-536v171h536zM759 -31q-217 0 -376 97t-240.5 270t-81.5 401t81.5 401t240.5 270t376 97t375.5 -97t239.5 -270t81 -401t-81 -401t-239.5 -270t-375.5 -97zM759 173q229 -2 349 150.5t120 413.5q0 260 -120 412t-349 153q-153 1 -260 -70.5t-158 -197.5
t-52 -297t51 -296t158.5 -196t260.5 -72z" />
    <glyph glyph-name="omacron" unicode="&#x14d;" horiz-adv-x="1248" 
d="M357 1523h535v-171h-535v171zM624 -31q-246 0 -394 162.5t-148 422.5t149 421.5t393 161.5q247 0 394.5 -162t147.5 -421q0 -261 -148 -423t-394 -162zM624 171q154 0 234.5 104t80.5 279q0 177 -80.5 279t-234.5 102q-156 0 -235.5 -103t-79.5 -278q0 -178 81.5 -280.5
t233.5 -102.5z" />
    <glyph glyph-name="Ohungarumlaut" unicode="&#x150;" horiz-adv-x="1516" 
d="M487 1638h139l146 359h-209zM896 1638h138l147 359h-208zM759 -31q-217 0 -376 97t-240.5 270t-81.5 401t81.5 401t240.5 270t376 97t375.5 -97t239.5 -270t81 -401t-81 -401t-239.5 -270t-375.5 -97zM759 173q229 -2 349 150.5t120 413.5q0 260 -120 412t-349 153
q-153 1 -260 -70.5t-158 -197.5t-52 -297t51 -296t158.5 -196t260.5 -72z" />
    <glyph glyph-name="ohungarumlaut" unicode="&#x151;" horiz-adv-x="1248" 
d="M635 1628h-208l-77 -358h139zM1044 1628h-208l-76 -358h138zM624 -31q-246 0 -394 162.5t-148 422.5t149 421.5t393 161.5q247 0 394.5 -162t147.5 -421q0 -261 -148 -423t-394 -162zM624 171q154 0 234.5 104t80.5 279q0 177 -80.5 279t-234.5 102q-156 0 -235.5 -103
t-79.5 -278q0 -178 81.5 -280.5t233.5 -102.5z" />
    <glyph glyph-name="OE" unicode="&#x152;" horiz-adv-x="2284" 
d="M2182 1475v-202h-728v-414h605v-202h-605v-455h728v-202h-942v148q-185 -179 -481 -179q-217 0 -376 97t-240.5 270t-81.5 401t81.5 401t240.5 270t376 97q296 0 481 -179v149h942zM759 173q229 -2 349 150.5t120 413.5q0 260 -120 412t-349 153q-153 1 -260 -70.5
t-158 -197.5t-52 -297t51 -296t158.5 -196t260.5 -72z" />
    <glyph glyph-name="oe" unicode="&#x153;" horiz-adv-x="2078" 
d="M1481 1137q254 0 392 -173.5t121 -470.5h-825q12 -155 92.5 -238.5t219.5 -83.5q100 0 173 45t114 131l210 -66q-64 -147 -194.5 -229.5t-291.5 -82.5q-140 0 -252.5 53.5t-186.5 150.5q-72 -97 -181.5 -150.5t-247.5 -53.5q-246 0 -394 162.5t-148 422.5t149 421.5
t393 161.5q138 0 247.5 -53.5t181.5 -150.5q72 98 182 151t246 53zM1174 659h600q-16 147 -86.5 217.5t-198.5 70.5q-135 0 -214.5 -73.5t-100.5 -214.5zM624 171q154 0 234.5 104t80.5 279q0 177 -80.5 279t-234.5 102q-156 0 -235.5 -103t-79.5 -278q0 -178 81.5 -280.5
t233.5 -102.5z" />
    <glyph glyph-name="Racute" unicode="&#x154;" horiz-adv-x="1332" 
d="M650 1997h208l-146 -359h-139zM935 606l314 -606h-243l-299 578h-350v-578h-214v1475h596q55 0 114 -9q180 -28 275 -146.5t95 -293.5q0 -138 -75.5 -255t-212.5 -165zM731 1273h-374v-494h374q61 0 93 11q93 32 137 95.5t44 140.5q0 80 -45 147.5t-136 89.5
q-39 10 -93 10z" />
    <glyph glyph-name="racute" unicode="&#x155;" horiz-adv-x="791" 
d="M398 1628h209l-146 -358h-138zM436 1043q61 44 144 60.5t160 2.5v-201q-51 16 -119.5 8t-121.5 -42q-140 -90 -140 -313v-558h-216v1106h191v-176q41 72 102 113z" />
    <glyph glyph-name="uni0156" unicode="&#x156;" horiz-adv-x="1332" 
d="M935 606l314 -606h-243l-299 578h-350v-578h-214v1475h596q55 0 114 -9q180 -28 275 -146.5t95 -293.5q0 -138 -75.5 -255t-212.5 -165zM731 1273h-374v-494h374q61 0 93 11q93 32 137 95.5t44 140.5q0 80 -45 147.5t-136 89.5q-39 10 -93 10zM629 -543h-139l76 359h209z
" />
    <glyph glyph-name="uni0157" unicode="&#x157;" horiz-adv-x="791" 
d="M436 1043q61 44 144 60.5t160 2.5v-201q-51 16 -119.5 8t-121.5 -42q-140 -90 -140 -313v-558h-216v1106h191v-176q41 72 102 113zM222 -543h-139l77 359h208z" />
    <glyph glyph-name="Rcaron" unicode="&#x158;" horiz-adv-x="1332" 
d="M970 1946l-264 -308h-186l-264 308h205l152 -182l152 182h205zM935 606l314 -606h-243l-299 578h-350v-578h-214v1475h596q55 0 114 -9q180 -28 275 -146.5t95 -293.5q0 -138 -75.5 -255t-212.5 -165zM731 1273h-374v-494h374q61 0 93 11q93 32 137 95.5t44 140.5
q0 80 -45 147.5t-136 89.5q-39 10 -93 10z" />
    <glyph glyph-name="rcaron" unicode="&#x159;" horiz-adv-x="791" 
d="M797 1577l-265 -307h-185l-264 307h205l151 -181l153 181h205zM436 1043q61 44 144 60.5t160 2.5v-201q-51 16 -119.5 8t-121.5 -42q-140 -90 -140 -313v-558h-216v1106h191v-176q41 72 102 113z" />
    <glyph glyph-name="Sacute" unicode="&#x15a;" horiz-adv-x="1317" 
d="M615 1638h140l145 359h-208zM678 -31q-240 0 -403.5 122t-199.5 332l223 34q33 -134 140 -210t252 -76q138 0 234 64.5t96 171.5q0 75 -48 120.5t-137 72.5l-378 112q-50 15 -91 32t-86.5 47.5t-76 68.5t-51 95t-20.5 126q0 100 40.5 181t112 133.5t167.5 80.5t208 28
q225 -2 376.5 -115.5t196.5 -316.5l-229 -39q-23 123 -120 195t-227 74q-125 2 -212 -57.5t-87 -152.5q0 -44 20 -77.5t57.5 -56.5t71 -36t81.5 -26l272 -77q40 -11 65 -19t69.5 -26t74 -37t65.5 -50.5t57.5 -67.5t36.5 -87t15 -111q0 -108 -45.5 -195.5t-123.5 -142.5
t-179.5 -84.5t-216.5 -29.5z" />
    <glyph glyph-name="sacute" unicode="&#x15b;" horiz-adv-x="1097" 
d="M780 1628h-209l-75 -358h138zM566 -30q-202 0 -329 89t-155 251l219 34q21 -87 95.5 -136t184.5 -49q100 0 157 40.5t57 112.5q0 44 -21.5 69t-80 47.5t-195.5 59.5q-214 56 -297 125.5t-83 191.5q0 151 117.5 241.5t312.5 90.5q191 0 316.5 -88.5t144.5 -236.5l-219 -40
q-11 79 -75 125.5t-165 50.5q-98 4 -158 -32.5t-60 -99.5q0 -56 57.5 -87.5t251.5 -80.5q209 -54 291.5 -126.5t82.5 -200.5q0 -164 -119.5 -257.5t-329.5 -93.5z" />
    <glyph glyph-name="Scircumflex" unicode="&#x15c;" horiz-adv-x="1317" 
d="M768 1946l264 -308h-205l-152 182l-152 -182h-205l265 308h185zM678 -31q-240 0 -403.5 122t-199.5 332l223 34q33 -134 140 -210t252 -76q138 0 234 64.5t96 171.5q0 75 -48 120.5t-137 72.5l-378 112q-50 15 -91 32t-86.5 47.5t-76 68.5t-51 95t-20.5 126
q0 100 40.5 181t112 133.5t167.5 80.5t208 28q225 -2 376.5 -115.5t196.5 -316.5l-229 -39q-23 123 -120 195t-227 74q-125 2 -212 -57.5t-87 -152.5q0 -44 20 -77.5t57.5 -56.5t71 -36t81.5 -26l272 -77q40 -11 65 -19t69.5 -26t74 -37t65.5 -50.5t57.5 -67.5t36.5 -87
t15 -111q0 -108 -45.5 -195.5t-123.5 -142.5t-179.5 -84.5t-216.5 -29.5z" />
    <glyph glyph-name="scircumflex" unicode="&#x15d;" horiz-adv-x="1097" 
d="M659 1577l265 -307h-205l-153 181l-151 -181h-205l264 307h185zM566 -30q-202 0 -329 89t-155 251l219 34q21 -87 95.5 -136t184.5 -49q100 0 157 40.5t57 112.5q0 44 -21.5 69t-80 47.5t-195.5 59.5q-214 56 -297 125.5t-83 191.5q0 151 117.5 241.5t312.5 90.5
q191 0 316.5 -88.5t144.5 -236.5l-219 -40q-11 79 -75 125.5t-165 50.5q-98 4 -158 -32.5t-60 -99.5q0 -56 57.5 -87.5t251.5 -80.5q209 -54 291.5 -126.5t82.5 -200.5q0 -164 -119.5 -257.5t-329.5 -93.5z" />
    <glyph glyph-name="Scedilla" unicode="&#x15e;" horiz-adv-x="1317" 
d="M1243 421q0 -128 -63.5 -225.5t-167 -151.5t-236.5 -70l-24 -71q124 -60 124 -187q0 -91 -60.5 -150.5t-146.5 -59.5q-67 0 -139 36l50 131q44 -14 70 -14q32 0 51 18.5t19 44.5q0 16 -8 29.5t-18 22t-31 18t-35 14l-42 13.5l53 151q-225 10 -377.5 131t-186.5 322
l223 34q33 -134 140 -210t252 -76q138 0 234 64.5t96 171.5q0 75 -48 120.5t-137 72.5l-378 112q-50 15 -91 32t-86.5 47.5t-76 68.5t-51 95t-20.5 126q0 100 40.5 181t112 133.5t167.5 80.5t208 28q225 -2 376.5 -115.5t196.5 -316.5l-229 -39q-23 123 -120 195t-227 74
q-125 2 -212 -57.5t-87 -152.5q0 -44 20 -77.5t57.5 -56.5t71 -36t81.5 -26l272 -77q40 -11 65 -19t69.5 -26t74 -37t65.5 -50.5t57.5 -67.5t36.5 -87t15 -111z" />
    <glyph glyph-name="scedilla" unicode="&#x15f;" horiz-adv-x="1097" 
d="M1015 321q0 -149 -98 -240t-274 -108l-26 -70q125 -60 125 -187q0 -91 -60.5 -150.5t-146.5 -59.5q-67 0 -139 36l49 131q45 -14 71 -14q32 0 51.5 19t19.5 44q0 26 -21.5 45.5t-44.5 28.5t-69 23l54 153q-177 13 -287.5 100.5t-136.5 237.5l219 34q21 -87 95.5 -136
t184.5 -49q100 0 157 40.5t57 112.5q0 44 -21.5 69t-80 47.5t-195.5 59.5q-214 56 -297 125.5t-83 191.5q0 151 117.5 241.5t312.5 90.5q191 0 316.5 -88.5t144.5 -236.5l-219 -40q-11 79 -75 125.5t-165 50.5q-98 4 -158 -32.5t-60 -99.5q0 -56 57.5 -87.5t251.5 -80.5
q209 -54 291.5 -126.5t82.5 -200.5z" />
    <glyph glyph-name="Scaron" unicode="&#x160;" horiz-adv-x="1317" 
d="M837 1946h204l-265 -308h-184l-265 308h204l153 -182zM678 -31q-240 0 -403.5 122t-199.5 332l223 34q33 -134 140 -210t252 -76q138 0 234 64.5t96 171.5q0 75 -48 120.5t-137 72.5l-378 112q-50 15 -91 32t-86.5 47.5t-76 68.5t-51 95t-20.5 126q0 100 40.5 181
t112 133.5t167.5 80.5t208 28q225 -2 376.5 -115.5t196.5 -316.5l-229 -39q-23 123 -120 195t-227 74q-125 2 -212 -57.5t-87 -152.5q0 -44 20 -77.5t57.5 -56.5t71 -36t81.5 -26l272 -77q40 -11 65 -19t69.5 -26t74 -37t65.5 -50.5t57.5 -67.5t36.5 -87t15 -111
q0 -108 -45.5 -195.5t-123.5 -142.5t-179.5 -84.5t-216.5 -29.5z" />
    <glyph glyph-name="scaron" unicode="&#x161;" horiz-adv-x="1097" 
d="M718 1577h205l-266 -307h-184l-265 307h205l152 -181zM566 -30q-202 0 -329 89t-155 251l219 34q21 -87 95.5 -136t184.5 -49q100 0 157 40.5t57 112.5q0 44 -21.5 69t-80 47.5t-195.5 59.5q-214 56 -297 125.5t-83 191.5q0 151 117.5 241.5t312.5 90.5
q191 0 316.5 -88.5t144.5 -236.5l-219 -40q-11 79 -75 125.5t-165 50.5q-98 4 -158 -32.5t-60 -99.5q0 -56 57.5 -87.5t251.5 -80.5q209 -54 291.5 -126.5t82.5 -200.5q0 -164 -119.5 -257.5t-329.5 -93.5z" />
    <glyph glyph-name="uni0162" unicode="&#x162;" horiz-adv-x="1235" 
d="M725 1273v-1273h-43l-36 -102q125 -60 125 -186q0 -91 -61 -151t-147 -60q-66 0 -138 36l49 132q44 -15 71 -15q32 0 51 18.5t19 44.5q0 16 -8 29.5t-18 22t-32 18t-35 14t-42 13.5l66 186h-35v1273h-491v202h1195v-202h-490z" />
    <glyph glyph-name="uni0163" unicode="&#x163;" horiz-adv-x="865" 
d="M776 934h-329v-489v-35.5v-35.5t0.5 -29.5t2 -29.5t4 -23.5t6.5 -25t10 -19.5q24 -40 69.5 -59t104 -18t132.5 11v-181q-113 -21 -204 -17l-28 -80q125 -60 125 -187q0 -91 -61 -150.5t-147 -59.5q-66 0 -138 36l49 131q45 -14 70 -14q32 0 51.5 19t19.5 44
q0 26 -21.5 45.5t-44.5 28.5t-69 23l65 184q-121 37 -170 131q-10 19 -17.5 38t-12 41.5t-7 37.5t-3.5 44.5t-1.5 41.5t0 49t0.5 49v499h-212v172h212v307h215v-307h329v-172z" />
    <glyph glyph-name="Tcaron" unicode="&#x164;" horiz-adv-x="1235" 
d="M767 1946h205l-264 -308h-186l-264 308h205l152 -182zM725 0h-214v1273h-491v202h1195v-202h-490v-1273z" />
    <glyph glyph-name="tcaron" unicode="&#x165;" horiz-adv-x="865" 
d="M656 1182l93 554h207l-160 -554h-140zM232 1413h215v-307h329v-172h-329v-489v-35.5v-35.5t0.5 -29.5t2 -29.5t4 -23.5t6.5 -25t10 -19.5q24 -40 69.5 -59t104 -18t132.5 11v-181q-81 -16 -155.5 -18t-143 11.5t-122 49t-82.5 91.5q-10 19 -17.5 38t-12 41.5t-7 37.5
t-3.5 44.5t-1.5 41.5t0 49t0.5 49v499h-212v172h212v307z" />
    <glyph glyph-name="Tbar" unicode="&#x166;" horiz-adv-x="1235" 
d="M1215 1475v-202h-490v-428h364v-215h-364v-630h-214v630h-365v215h365v428h-491v202h1195z" />
    <glyph glyph-name="tbar" unicode="&#x167;" horiz-adv-x="906" 
d="M804 481h-357v-36v-35.5v-35.5t0.5 -29.5t2 -29.5t4 -23.5t6.5 -25t10 -19.5q24 -40 69.5 -59t104 -18t132.5 11v-181q-81 -16 -155.5 -18t-143 11.5t-122 49t-82.5 91.5q-10 19 -17.5 38t-12 41.5t-7 37.5t-3.5 44.5t-1.5 41.5t0 49t0.5 49v46h-212v172h212v281h-212
v172h212v307h215v-307h329v-172h-329v-281h357v-172z" />
    <glyph glyph-name="Utilde" unicode="&#x168;" horiz-adv-x="1462" 
d="M910 1642q-42 0 -90 21t-83 46.5t-74 46.5t-66 21q-34 0 -46.5 -33.5t1.5 -77.5h-139q-29 116 16 193t152 77q42 0 90 -21t83.5 -46t74.5 -46t65 -21q33 0 46 33t0 79h139q29 -116 -16.5 -194t-152.5 -78zM731 -31q-262 0 -425 157.5t-163 416.5v931l217 1v-921
q0 -91 32 -165.5t85 -121t118.5 -71.5t135.5 -25q95 0 178 42.5t138 132t55 208.5v921h217v-932q0 -259 -163 -416.5t-425 -157.5z" />
    <glyph glyph-name="utilde" unicode="&#x169;" 
d="M806 1274q-53 0 -114 33.5t-113.5 67t-85.5 33.5q-34 0 -47 -33.5t1 -77.5h-139q-29 116 16 193.5t152 77.5q53 0 114.5 -33.5t114.5 -67t85 -33.5q33 0 46 32t0 79h139q29 -116 -16.5 -193.5t-152.5 -77.5zM900 530v576h216v-1106h-190v132q-129 -162 -366 -162
q-109 0 -191.5 39t-127.5 95t-73 131.5t-36.5 135.5t-8.5 121v614h217v-544q0 -57 6 -107t24.5 -103.5t48.5 -91.5t81.5 -62.5t119.5 -24.5q126 0 203 86t77 271z" />
    <glyph glyph-name="Umacron" unicode="&#x16a;" horiz-adv-x="1462" 
d="M998 1891v-171h-534v171h534zM731 -31q-262 0 -425 157.5t-163 416.5v931l217 1v-921q0 -91 32 -165.5t85 -121t118.5 -71.5t135.5 -25q95 0 178 42.5t138 132t55 208.5v921h217v-932q0 -259 -163 -416.5t-425 -157.5z" />
    <glyph glyph-name="umacron" unicode="&#x16b;" 
d="M351 1523h536v-171h-536v171zM900 530v576h216v-1106h-190v132q-129 -162 -366 -162q-109 0 -191.5 39t-127.5 95t-73 131.5t-36.5 135.5t-8.5 121v614h217v-544q0 -57 6 -107t24.5 -103.5t48.5 -91.5t81.5 -62.5t119.5 -24.5q126 0 203 86t77 271z" />
    <glyph glyph-name="Ubreve" unicode="&#x16c;" horiz-adv-x="1462" 
d="M731 1602q-122 0 -208.5 86t-86.5 208h170q0 -52 36.5 -88t88.5 -36t88.5 36t36.5 88h170q0 -122 -86.5 -208t-208.5 -86zM731 -31q-262 0 -425 157.5t-163 416.5v931l217 1v-921q0 -91 32 -165.5t85 -121t118.5 -71.5t135.5 -25q95 0 178 42.5t138 132t55 208.5v921h217
v-932q0 -259 -163 -416.5t-425 -157.5z" />
    <glyph glyph-name="ubreve" unicode="&#x16d;" 
d="M620 1233q-122 0 -208.5 86.5t-86.5 208.5h170q0 -52 36.5 -88.5t88.5 -36.5t88 36.5t36 88.5h170q0 -122 -86 -208.5t-208 -86.5zM900 530v576h216v-1106h-190v132q-130 -162 -366 -162q-109 0 -191.5 39t-127.5 95t-73 131.5t-36.5 135.5t-8.5 121v614h217v-544
q0 -57 6 -107t24.5 -103.5t48.5 -91.5t81.5 -62.5t119.5 -24.5q126 0 203 86t77 271z" />
    <glyph glyph-name="Uring" unicode="&#x16e;" horiz-adv-x="1462" 
d="M736 1590q-103 0 -176.5 74t-73.5 177t73.5 177t176.5 74q104 0 177.5 -73.5t73.5 -177.5t-73.5 -177.5t-177.5 -73.5zM736 1729q47 0 80 33t33 79q0 47 -33 80t-80 33q-46 0 -79 -33.5t-33 -79.5t33 -79t79 -33zM731 -31q-262 0 -425 157.5t-163 416.5v931l217 1v-921
q0 -91 32 -165.5t85 -121t118.5 -71.5t135.5 -25q95 0 178 42.5t138 132t55 208.5v921h217v-932q0 -259 -163 -416.5t-425 -157.5z" />
    <glyph glyph-name="uring" unicode="&#x16f;" 
d="M620 1222q-103 0 -176.5 74t-73.5 177t73.5 176.5t176.5 73.5q104 0 177 -73t73 -177t-73 -177.5t-177 -73.5zM620 1360q47 0 79.5 33.5t32.5 79.5q0 47 -32.5 79.5t-79.5 32.5q-46 0 -79.5 -33t-33.5 -79t33.5 -79.5t79.5 -33.5zM900 530v576h216v-1106h-190v132
q-129 -162 -366 -162q-109 0 -191.5 39t-127.5 95t-73 131.5t-36.5 135.5t-8.5 121v614h217v-544q0 -57 6 -107t24.5 -103.5t48.5 -91.5t81.5 -62.5t119.5 -24.5q126 0 203 86t77 271z" />
    <glyph glyph-name="Uhungarumlaut" unicode="&#x170;" horiz-adv-x="1462" 
d="M452 1638h138l146 359h-209zM860 1638h138l147 359h-208zM731 -31q-262 0 -425 157.5t-163 416.5v931l217 1v-921q0 -91 32 -165.5t85 -121t118.5 -71.5t135.5 -25q95 0 178 42.5t138 132t55 208.5v921h217v-932q0 -259 -163 -416.5t-425 -157.5z" />
    <glyph glyph-name="uhungarumlaut" unicode="&#x171;" 
d="M633 1628h-208l-77 -358h139zM1042 1628h-208l-76 -358h138zM900 530v576h216v-1106h-190v132q-129 -162 -366 -162q-109 0 -191.5 39t-127.5 95t-73 131.5t-36.5 135.5t-8.5 121v614h217v-544q0 -57 6 -107t24.5 -103.5t48.5 -91.5t81.5 -62.5t119.5 -24.5q126 0 203 86
t77 271z" />
    <glyph glyph-name="Uogonek" unicode="&#x172;" horiz-adv-x="1462" 
d="M1102 554v921h217v-932q0 -173 -77 -305t-212 -201q-78 -54 -129.5 -118.5t-51.5 -113.5q0 -30 19 -49t46 -19q39 0 82 41l82 -105q-75 -98 -189 -98q-90 0 -151 64t-61 151q0 89 62 179h-8q-262 0 -425 157.5t-163 416.5v931l217 1v-921q0 -91 32 -165.5t85 -121
t118.5 -71.5t135.5 -25q95 0 178 42.5t138 132t55 208.5z" />
    <glyph glyph-name="uogonek" unicode="&#x173;" 
d="M1116 1106v-1106q-95 -53 -161.5 -129t-66.5 -132q0 -29 18.5 -48.5t46.5 -19.5q40 0 82 40l81 -103q-74 -100 -189 -100q-90 0 -150.5 64.5t-60.5 152.5q0 84 57.5 172t152.5 158v77q-129 -162 -366 -162q-109 0 -191.5 39t-127.5 95t-73 131.5t-36.5 135.5t-8.5 121
v614h217v-544q0 -57 6 -107t24.5 -103.5t48.5 -91.5t81.5 -62.5t119.5 -24.5q126 0 203 86t77 271v576h216z" />
    <glyph glyph-name="Wcircumflex" unicode="&#x174;" horiz-adv-x="1971" 
d="M1076 1946l264 -308h-204l-152 182l-153 -182h-204l264 308h185zM669 0h-213l-428 1475h224l310 -1116l310 1115l226 1l310 -1116l310 1116h226l-430 -1475h-212l-317 1103z" />
    <glyph glyph-name="wcircumflex" unicode="&#x175;" horiz-adv-x="1618" 
d="M899 1577l265 -307h-205l-152 181l-153 -181h-204l265 307h184zM551 0h-172l-338 1107l212 -1l231 -759l234 759h184l234 -759l231 759h211l-338 -1106h-172l-258 801z" />
    <glyph glyph-name="Ycircumflex" unicode="&#x176;" horiz-adv-x="1214" 
d="M697 1946l265 -308h-205l-152 182l-152 -182h-205l264 308h185zM716 0h-217v609l-499 866h250l357 -620l358 620h249l-498 -866v-609z" />
    <glyph glyph-name="ycircumflex" unicode="&#x177;" horiz-adv-x="1123" 
d="M728 1270l-153 181l-152 -181h-205l265 307h185l265 -307h-205zM578 274l312 832h217l-610 -1598h-204l182 497l-447 1101h223z" />
    <glyph glyph-name="Ydieresis" unicode="&#x178;" horiz-adv-x="1214" 
d="M524 1630q-57 0 -95.5 38t-38.5 94q0 57 38 95t96 38q46 0 83 -26q37 26 82 26q58 0 96 -38t38 -95q0 -56 -38.5 -94t-95.5 -38q-43 0 -82 27q-39 -27 -83 -27zM607 855l358 620h249l-498 -866v-609h-217v609l-499 866h250z" />
    <glyph glyph-name="Zacute" unicode="&#x179;" horiz-adv-x="1325" 
d="M610 1638h140l145 359h-208zM1209 0h-1107v34l753 1239h-712v202h1080v-35l-749 -1237h735v-203z" />
    <glyph glyph-name="zacute" unicode="&#x17a;" horiz-adv-x="1090" 
d="M797 1628h-208l-77 -358h139zM978 0h-937v34l628 880h-571v192h911v-35l-627 -880h596v-191z" />
    <glyph glyph-name="Zdotaccent" unicode="&#x17b;" horiz-adv-x="1325" 
d="M701 1679q-57 0 -95 38t-38 94q0 57 38 95.5t95 38.5q58 0 96.5 -38.5t38.5 -95.5q0 -56 -38.5 -94t-96.5 -38zM1209 0h-1107v34l753 1239h-712v202h1080v-35l-749 -1237h735v-203z" />
    <glyph glyph-name="zdotaccent" unicode="&#x17c;" horiz-adv-x="1090" 
d="M564 1311q-57 0 -95 38t-38 94q0 57 38 95t95 38q58 0 96 -38t38 -95q0 -56 -38.5 -94t-95.5 -38zM978 0h-937v34l628 880h-571v192h911v-35l-627 -880h596v-191z" />
    <glyph glyph-name="Zcaron" unicode="&#x17d;" horiz-adv-x="1325" 
d="M837 1946h204l-265 -308h-184l-265 308h204l153 -182zM1209 0h-1107v34l753 1239h-712v202h1080v-35l-749 -1237h735v-203z" />
    <glyph glyph-name="zcaron" unicode="&#x17e;" horiz-adv-x="1090" 
d="M716 1577h205l-265 -307h-185l-264 307h205l152 -181zM978 0h-937v34l628 880h-571v192h911v-35l-627 -880h596v-191z" />
    <glyph glyph-name="florin" unicode="&#x192;" horiz-adv-x="1458" 
d="M1105 1505q156 0 278 -64l-99 -177q-2 3 -22.5 11.5t-60 17.5t-78.5 9q-37 0 -72.5 -9t-71 -29.5t-61.5 -60t-35 -93.5l-47 -286h400v-172h-429l-41 -250q-36 -217 -149 -325t-272 -108q-132 0 -270 63l90 181q83 -40 165 -40q86 0 143 69t77 191l35 219h-318v172h345
l40 247q13 79 44.5 151.5t84 138t136.5 105t188 39.5z" />
    <glyph glyph-name="Ohorn" unicode="&#x1a0;" horiz-adv-x="1516" 
d="M1196 1365q126 -100 192.5 -262t66.5 -366q0 -228 -81 -401t-239.5 -270t-375.5 -97t-376 97t-240.5 270t-81.5 401t81.5 401t240.5 270t376 97q112 0 205 -25q80 -18 125 1q25 12 40.5 31.5t20.5 42t6.5 49.5t-0.5 54l167 1q28 -214 -95 -281q-10 -5 -32 -13zM759 173
q229 -2 349 150.5t120 413.5q0 260 -120 412t-349 153q-153 1 -260 -70.5t-158 -197.5t-52 -297t51 -296t158.5 -196t260.5 -72z" />
    <glyph glyph-name="ohorn" unicode="&#x1a1;" horiz-adv-x="1248" 
d="M1006 988q160 -162 160 -434q0 -261 -148 -423t-394 -162t-394 162.5t-148 422.5t149 421.5t393 161.5q88 0 171 -24q86 -21 131 -1q26 12 41.5 31.5t20 42t6 49.5t-0.5 54l167 1q28 -213 -95 -280q-31 -16 -59 -22zM624 171q154 0 234.5 104t80.5 279q0 177 -80.5 279
t-234.5 102q-156 0 -235.5 -103t-79.5 -278q0 -178 81.5 -280.5t233.5 -102.5z" />
    <glyph glyph-name="Uhorn" unicode="&#x1af;" horiz-adv-x="1462" 
d="M1384 1658l167 1q27 -204 -94 -278q-54 -32 -138 -35v-803q0 -259 -163 -416.5t-425 -157.5t-425 157.5t-163 416.5v931l217 1v-921q0 -91 32 -165.5t85 -121t118.5 -71.5t135.5 -25q95 0 178 42.5t138 132t55 208.5v921h91q59 0 88 5q35 6 58 23t32 44t11.5 51.5
t1.5 59.5z" />
    <glyph glyph-name="uhorn" unicode="&#x1b0;" 
d="M1141 1289l167 1q27 -203 -95 -277q-43 -24 -97 -32v-981h-190v132q-130 -162 -366 -162q-109 0 -191.5 39t-127.5 95t-73 131.5t-36.5 135.5t-8.5 121v614h217v-544q0 -57 6 -107t24.5 -103.5t48.5 -91.5t81.5 -62.5t119.5 -24.5q126 0 203 86t77 271v576h49q59 0 88 5
q35 6 58 23t32.5 44t12 51.5t1.5 59.5z" />
    <glyph glyph-name="uni0218" unicode="&#x218;" horiz-adv-x="1317" 
d="M678 -31q-240 0 -403.5 122t-199.5 332l223 34q33 -134 140 -210t252 -76q138 0 234 64.5t96 171.5q0 75 -48 120.5t-137 72.5l-378 112q-50 15 -91 32t-86.5 47.5t-76 68.5t-51 95t-20.5 126q0 100 40.5 181t112 133.5t167.5 80.5t208 28q225 -2 376.5 -115.5
t196.5 -316.5l-229 -39q-23 123 -120 195t-227 74q-125 2 -212 -57.5t-87 -152.5q0 -44 20 -77.5t57.5 -56.5t71 -36t81.5 -26l272 -77q40 -11 65 -19t69.5 -26t74 -37t65.5 -50.5t57.5 -67.5t36.5 -87t15 -111q0 -108 -45.5 -195.5t-123.5 -142.5t-179.5 -84.5
t-216.5 -29.5zM677 -543l145 359h-208l-76 -359h139z" />
    <glyph glyph-name="uni0219" unicode="&#x219;" horiz-adv-x="1097" 
d="M566 -30q-202 0 -329 89t-155 251l219 34q21 -87 95.5 -136t184.5 -49q100 0 157 40.5t57 112.5q0 44 -21.5 69t-80 47.5t-195.5 59.5q-214 56 -297 125.5t-83 191.5q0 151 117.5 241.5t312.5 90.5q191 0 316.5 -88.5t144.5 -236.5l-219 -40q-11 79 -75 125.5t-165 50.5
q-98 4 -158 -32.5t-60 -99.5q0 -56 57.5 -87.5t251.5 -80.5q209 -54 291.5 -126.5t82.5 -200.5q0 -164 -119.5 -257.5t-329.5 -93.5zM531 -543l146 359h-208l-77 -359h139z" />
    <glyph glyph-name="uni021A" unicode="&#x21a;" horiz-adv-x="1235" 
d="M725 0h-214v1273h-491v202h1195v-202h-490v-1273zM588 -543l146 359h-209l-75 -359h138z" />
    <glyph glyph-name="uni021B" unicode="&#x21b;" horiz-adv-x="865" 
d="M776 934h-329v-489v-35.5v-35.5t0.5 -29.5t2 -29.5t4 -23.5t6.5 -25t10 -19.5q24 -40 69.5 -59t104 -18t132.5 11v-181q-81 -16 -155.5 -18t-143 11.5t-122 49t-82.5 91.5q-10 19 -17.5 38t-12 41.5t-7 37.5t-3.5 44.5t-1.5 41.5t0 49t0.5 49v499h-212v172h212v307h215
v-307h329v-172zM439 -543h-138l77 359h208z" />
    <glyph glyph-name="uni0259" unicode="&#x259;" horiz-adv-x="1221" 
d="M86 613h824q-13 155 -93 238.5t-219 83.5q-100 0 -173.5 -45t-114.5 -131l-210 66q64 147 195 229.5t293 82.5q248 0 400 -159t152 -416q0 -270 -149 -431.5t-393 -161.5q-253 0 -391 173.5t-121 470.5zM590 159q272 0 315 287h-600q17 -147 87 -217t198 -70z" />
    <glyph glyph-name="circumflex" unicode="&#x2c6;" horiz-adv-x="1150" 
d="M666 1946l264 -308h-205l-153 182l-151 -182h-205l264 308h186z" />
    <glyph glyph-name="caron" unicode="&#x2c7;" horiz-adv-x="1142" 
d="M725 1946h205l-264 -308h-186l-264 308h205l151 -182z" />
    <glyph glyph-name="breve" unicode="&#x2d8;" horiz-adv-x="1081" 
d="M541 1602q-122 0 -208.5 86t-86.5 208h170q0 -52 36.5 -88t88.5 -36t88.5 36t36.5 88h170q0 -122 -86.5 -208t-208.5 -86z" />
    <glyph glyph-name="dotaccent" unicode="&#x2d9;" horiz-adv-x="717" 
d="M359 1679q-57 0 -95 38t-38 94q0 57 38 95.5t95 38.5q58 0 96.5 -38.5t38.5 -95.5q0 -56 -38.5 -94t-96.5 -38z" />
    <glyph glyph-name="ring" unicode="&#x2da;" horiz-adv-x="1077" 
d="M539 1590q-103 0 -177 74t-74 177t74 177t177 74t177 -74t74 -177t-74 -177t-177 -74zM539 1729q46 0 79 33t33 79q0 47 -33 80t-79 33t-79.5 -33.5t-33.5 -79.5t33.5 -79t79.5 -33z" />
    <glyph glyph-name="ogonek" unicode="&#x2db;" horiz-adv-x="892" 
d="M456 -492q-90 0 -150.5 64.5t-60.5 152.5q0 104 85.5 212t215.5 176l99 -113q-95 -53 -161.5 -129t-66.5 -132q0 -29 18.5 -48.5t46.5 -19.5q40 0 82 40l81 -103q-74 -100 -189 -100z" />
    <glyph glyph-name="tilde" unicode="&#x2dc;" horiz-adv-x="1157" 
d="M743 1642q-42 0 -90 21t-83 46.5t-74 46.5t-66 21q-34 0 -46.5 -33.5t0.5 -77.5h-139q-28 116 17 193t151 77q53 0 114.5 -33.5t114 -67t85.5 -33.5t46 32.5t0 79.5h139q29 -116 -16.5 -194t-152.5 -78z" />
    <glyph glyph-name="hungarumlaut" unicode="&#x2dd;" horiz-adv-x="1156" 
d="M318 1997l-76 -359h139l145 359h-208zM727 1997l-76 -359h139l146 359h-209z" />
    <glyph glyph-name="uni0374" unicode="&#x374;" horiz-adv-x="601" 
d="M228 1475l-75 -359h138l146 359h-209z" />
    <glyph glyph-name="uni0375" unicode="&#x375;" horiz-adv-x="601" 
d="M228 -125l-75 -358h138l146 358h-209z" />
    <glyph glyph-name="uni037E" unicode="&#x37e;" horiz-adv-x="676" 
d="M339 862q-57 0 -95.5 38t-38.5 95t38.5 95t95.5 38t95 -38t38 -95t-38 -95t-95 -38zM175 -306l92 553h208l-161 -553h-139z" />
    <glyph glyph-name="tonos" unicode="&#x384;" horiz-adv-x="1228" 
d="M552 1475l-77 -359h138l147 359h-208z" />
    <glyph glyph-name="dieresistonos" unicode="&#x385;" horiz-adv-x="1228" 
d="M579 1628l-77 -358h138l146 358h-207zM313 1275q-51 0 -85.5 34.5t-34.5 84.5q0 51 34 85t86 34t86.5 -34t34.5 -85t-34.5 -85t-86.5 -34zM923 1275q-51 0 -85.5 34.5t-34.5 84.5q0 51 34 85t86 34t86 -34t34 -85t-34 -85t-86 -34z" />
    <glyph glyph-name="Alphatonos" unicode="&#x386;" horiz-adv-x="1371" 
d="M65 0l479 1475h307l479 -1475h-221l-110 333h-605l-108 -333h-221zM388 1475h-208l-77 -359h140zM695 1260l-236 -726h475z" />
    <glyph glyph-name="anoteleia" unicode="&#x387;" horiz-adv-x="1228" 
d="M263 509q-60 0 -100 38.5t-40 97.5t40 97.5t100 38.5q55 0 94 -39t39 -97t-39 -97t-94 -39z" />
    <glyph glyph-name="Epsilontonos" unicode="&#x388;" horiz-adv-x="1507" 
d="M349 1475h-208l-76 -359h139zM677 202h728v-202h-942v1475h942v-202h-728v-414h605v-202h-605v-455z" />
    <glyph glyph-name="Etatonos" unicode="&#x389;" horiz-adv-x="1754" 
d="M335 1475h-209l-76 -359h138zM658 0h-214v1475h214v-636h738v636h215v-1475h-215v637h-738v-637z" />
    <glyph glyph-name="Iotatonos" unicode="&#x38a;" horiz-adv-x="799" 
d="M126 1475l-76 -359h138l147 359h-209zM656 0h-214v1475h214v-1475z" />
    <glyph glyph-name="Omicrontonos" unicode="&#x38c;" horiz-adv-x="1733" 
d="M975 -31q-217 0 -375.5 97t-240 270t-81.5 401t81.5 401t240 270t375.5 97t375.5 -97t240 -270t81.5 -401t-81.5 -401t-240 -270t-375.5 -97zM138 1475l-76 -359h139l146 359h-209zM975 173q229 -2 349.5 150.5t120.5 413.5q0 260 -120.5 412t-349.5 153
q-228 2 -348 -150.5t-122 -414.5q-1 -171 51 -296t158.5 -196t260.5 -72z" />
    <glyph glyph-name="Upsilontonos" unicode="&#x38e;" horiz-adv-x="1646" 
d="M155 1475l-76 -359h138l147 359h-209zM1148 609v-609h-217v609l-499 866h250l357 -620l358 620h250z" />
    <glyph glyph-name="Omegatonos" unicode="&#x38f;" horiz-adv-x="1759" 
d="M813 0h-509v202h234q-118 100 -183 248t-65 327q0 153 49.5 286.5t139 231t221 153.5t287.5 56t287.5 -56t221 -153.5t139 -231t49.5 -286.5q0 -179 -65 -327t-182 -248h233v-202h-504v202q116 60 202 202.5t89 336.5q1 115 -31.5 217t-92 178.5t-149 121t-197.5 44.5
q-142 0 -250.5 -76t-164 -201.5t-55.5 -278.5q0 -104 27 -196.5t71.5 -159t94.5 -113.5t103 -75v-202zM151 1475l-76 -359h138l146 359h-208z" />
    <glyph glyph-name="iotadieresistonos" unicode="&#x390;" horiz-adv-x="930" 
d="M401 1628l-76 -358h139l145 358h-208zM136 1275q-52 0 -86 34.5t-34 84.5q0 51 34 85t86 34t86.5 -34t34.5 -85t-34.5 -85t-86.5 -34zM746 1275q-52 0 -86 34t-34 85t34 85t86 34t86 -34t34 -85q0 -50 -34 -84.5t-86 -34.5zM562 -9q-152 25 -219 139q-13 21 -21.5 45.5
t-13 41.5t-6.5 50.5t-2.5 47.5t0 59.5t0.5 60.5v671h214v-661v-42v-41t1 -32t3.5 -32.5t7 -25t11.5 -25.5q36 -63 125 -74q90 -6 181 8v-181q-56 -16 -142 -17.5t-139 8.5z" />
    <glyph glyph-name="Alpha" unicode="&#x391;" horiz-adv-x="1348" 
d="M41 0l479 1475h308l480 -1475h-223l-109 333h-605l-108 -333h-222zM672 1260l-236 -726h474z" />
    <glyph glyph-name="Beta" unicode="&#x392;" horiz-adv-x="1280" 
d="M993 779q109 -46 168 -138t59 -211q0 -197 -117 -313.5t-325 -116.5h-635v1475h580q102 0 185 -33.5t135 -90t79.5 -126.5t27.5 -147q0 -100 -41.5 -178t-115.5 -121zM720 1273h-360v-401h360q92 0 151.5 55t59.5 149q0 87 -58 142t-153 55zM360 204h385
q112 0 183.5 62.5t71.5 167.5q0 102 -66.5 169.5t-174.5 67.5h-399v-467z" />
    <glyph glyph-name="Gamma" unicode="&#x393;" horiz-adv-x="1105" 
d="M357 0h-214v1475h942v-202h-728v-1273z" />
    <glyph glyph-name="uni0394" unicode="&#x394;" horiz-adv-x="1348" 
d="M520 1475h308l480 -1475h-1267zM672 1258l-343 -1056h690z" />
    <glyph glyph-name="Epsilon" unicode="&#x395;" horiz-adv-x="1187" 
d="M357 202h728v-202h-942v1475h942v-202h-728v-414h606v-202h-606v-455z" />
    <glyph glyph-name="Zeta" unicode="&#x396;" horiz-adv-x="1325" 
d="M1209 0h-1107v34l753 1239h-712v202h1080v-35l-749 -1237h735v-203z" />
    <glyph glyph-name="Eta" unicode="&#x397;" horiz-adv-x="1453" 
d="M357 0h-214v1475h214v-636h738v636h215v-1475h-215v637h-738v-637z" />
    <glyph glyph-name="Theta" unicode="&#x398;" horiz-adv-x="1516" 
d="M759 -31q-217 0 -376 97t-240.5 270t-81.5 401t81.5 401t240.5 270t376 97t375.5 -97t239.5 -270t81 -401t-81 -401t-239.5 -270t-375.5 -97zM759 173q229 -2 349 150.5t120 413.5q0 260 -120 412t-349 153q-153 1 -260 -70.5t-158 -197.5t-52 -297t51 -296t158.5 -196
t260.5 -72zM490 822h536v-170h-536v170z" />
    <glyph glyph-name="Iota" unicode="&#x399;" horiz-adv-x="541" 
d="M378 0h-214v1475h214v-1475z" />
    <glyph glyph-name="Kappa" unicode="&#x39a;" horiz-adv-x="1289" 
d="M1289 0h-269l-532 658l-137 -147v-511h-208v1475h208v-670l624 670h266l-610 -662z" />
    <glyph glyph-name="Lambda" unicode="&#x39b;" horiz-adv-x="1287" 
d="M10 0l479 1475h309l479 -1475h-222l-414 1258l-409 -1258h-222z" />
    <glyph glyph-name="Mu" unicode="&#x39c;" horiz-adv-x="1741" 
d="M345 0h-202v1475h194l534 -1109l532 1109h195v-1474h-202v1009l-476 -1010h-98l-477 1010v-1010z" />
    <glyph glyph-name="Nu" unicode="&#x39d;" horiz-adv-x="1446" 
d="M360 1097v-1097h-217v1475h217l726 -1096v1096h218v-1475h-218z" />
    <glyph glyph-name="Xi" unicode="&#x39e;" horiz-adv-x="1459" 
d="M1316 1273h-1173v202h1173v-202zM1213 637h-967v202h967v-202zM1316 0h-1173v202h1173v-202z" />
    <glyph glyph-name="Omicron" unicode="&#x39f;" horiz-adv-x="1516" 
d="M759 -31q-217 0 -376 97t-240.5 270t-81.5 401t81.5 401t240.5 270t376 97t375.5 -97t239.5 -270t81 -401t-81 -401t-239.5 -270t-375.5 -97zM759 173q229 -2 349 150.5t120 413.5q0 260 -120 412t-349 153q-153 1 -260 -70.5t-158 -197.5t-52 -297t51 -296t158.5 -196
t260.5 -72z" />
    <glyph glyph-name="Pi" unicode="&#x3a0;" horiz-adv-x="1459" 
d="M357 0h-214v1475h1173v-1475h-214v1273h-745v-1273z" />
    <glyph glyph-name="Rho" unicode="&#x3a1;" horiz-adv-x="1284" 
d="M357 0h-214v1475h596q55 0 114 -9q180 -28 275 -153.5t95 -310.5q0 -122 -40.5 -218.5t-125 -161.5t-204.5 -84q-59 -9 -114 -9h-382v-529zM357 1273v-541h374q53 0 93 9q62 15 104.5 58t59.5 94t17 109q0 91 -45 165t-136 96q-39 10 -93 10h-374z" />
    <glyph glyph-name="Sigma" unicode="&#x3a3;" horiz-adv-x="1310" 
d="M1154 0h-1011v194l535 543l-535 542v196h1024v-202h-746l510 -518v-35l-510 -518h733v-202z" />
    <glyph glyph-name="Tau" unicode="&#x3a4;" horiz-adv-x="1235" 
d="M725 0h-214v1273h-491v202h1195v-202h-490v-1273z" />
    <glyph glyph-name="Upsilon" unicode="&#x3a5;" horiz-adv-x="1214" 
d="M716 609v-609h-217v609l-499 866h250l357 -620l358 620h249z" />
    <glyph glyph-name="Phi" unicode="&#x3a6;" horiz-adv-x="1494" 
d="M853 0h-213v206q-114 -19 -218.5 10.5t-184.5 100.5t-128 191t-48 272t48 273.5t128 194t184.5 103t218.5 11.5v113h213v-113q114 19 218.5 -11.5t185 -103t128.5 -194t48 -273.5t-48 -272t-128.5 -191t-185 -100.5t-218.5 -10.5v-206zM640 404v762q-90 13 -160.5 -13
t-112.5 -82t-64 -130t-22 -161t21.5 -159.5t64.5 -126.5t113 -78.5t160 -11.5zM853 1166v-762q89 -13 159.5 11.5t113.5 78t65 125.5t22 156q0 67 -13.5 128t-42.5 114t-70.5 90t-102 53.5t-131.5 5.5z" />
    <glyph glyph-name="Chi" unicode="&#x3a7;" horiz-adv-x="1308" 
d="M284 0h-264l503 746l-489 729h262l359 -547l358 547h263l-490 -729l502 -746h-262l-371 564z" />
    <glyph glyph-name="Psi" unicode="&#x3a8;" horiz-adv-x="1516" 
d="M865 0h-214v334q-186 7 -314 93t-171 252q-23 79 -23 171v625h202v-572q0 -89 15 -148q55 -218 291 -221v941h214v-941q114 2 191.5 60t102.5 171q12 56 12 138v572h202v-625q0 -96 -22 -168q-45 -168 -173.5 -254.5t-312.5 -93.5v-334z" />
    <glyph glyph-name="uni03A9" unicode="&#x3a9;" horiz-adv-x="1516" 
d="M585 0h-510v202h234q-118 100 -183 248t-65 327q0 153 49.5 286.5t139 231t221 153.5t288.5 56q208 0 367.5 -96t244 -261t84.5 -370q0 -179 -65 -327t-183 -248h234v-202h-504l1 202q115 60 201.5 203t88.5 336q1 115 -31 217t-91.5 178.5t-149 121t-197.5 44.5
q-142 0 -250.5 -76t-164 -201.5t-55.5 -278.5q0 -104 26.5 -196.5t71 -159t94.5 -113.5t104 -75v-202z" />
    <glyph glyph-name="Iotadieresis" unicode="&#x3aa;" horiz-adv-x="541" 
d="M353 1895q58 0 95.5 -38t37.5 -95q0 -56 -38 -94t-95 -38q-45 0 -83 28q-38 -28 -83 -28q-57 0 -95 38t-38 94q0 57 38 95t95 38q46 0 83 -26q37 26 83 26zM378 0h-214v1475h214v-1475z" />
    <glyph glyph-name="Upsilondieresis" unicode="&#x3ab;" horiz-adv-x="1214" 
d="M524 1630q-57 0 -95.5 38t-38.5 94q0 57 38 95t96 38q46 0 83 -26q37 26 82 26q58 0 96 -38t38 -95q0 -56 -38.5 -94t-95.5 -38q-43 0 -82 27q-39 -27 -83 -27zM607 855l358 620h249l-498 -866v-609h-217v609l-499 866h250z" />
    <glyph glyph-name="alphatonos" unicode="&#x3ac;" horiz-adv-x="1273" 
d="M647 1628h209l-146 -358h-139zM940 962v144h190v-1106h-190v146q-56 -85 -147 -131t-206 -46q-153 0 -269 77t-176 209t-60 298q0 168 61 299.5t178 208t272 76.5q114 0 203 -45.5t144 -129.5zM616 163q149 0 222.5 105.5t73.5 285.5q0 179 -73 284t-219 105
q-148 0 -229.5 -105.5t-81.5 -285.5q0 -172 78 -280.5t229 -108.5z" />
    <glyph glyph-name="epsilontonos" unicode="&#x3ad;" horiz-adv-x="1056" 
d="M515 1628h208l-146 -358h-139zM839 339l170 -112q-74 -122 -202.5 -190t-288.5 -68q-187 0 -311.5 95t-124.5 257q0 82 33.5 151t96.5 108q-97 97 -97 230q0 153 114.5 240t282.5 87q256 0 445 -181l-124 -146q-64 57 -145.5 91.5t-164.5 34.5q-82 0 -135 -36t-53 -108
q0 -136 231 -136h98v-172h-99q-51 0 -86.5 -2.5t-71.5 -11t-57.5 -23.5t-35 -41t-13.5 -63q0 -79 60 -125.5t162 -46.5q192 0 316 168z" />
    <glyph glyph-name="etatonos" unicode="&#x3ae;" 
d="M668 1628h208l-147 -358h-138zM699 1136q109 0 191.5 -39t128 -95t73.5 -131.5t36.5 -136t8.5 -120.5v-614h-217v544q0 57 -6 107t-24.5 103.5t-48.5 91.5t-81.5 62.5t-119.5 24.5q-126 0 -203.5 -86.5t-77.5 -271.5v-575h-217v1106h192v-132q130 162 365 162z" />
    <glyph glyph-name="iotatonos" unicode="&#x3af;" horiz-adv-x="796" 
d="M296 1628l-76 -358h138l147 358h-209zM427 -9q-152 25 -219 139q-13 21 -21.5 45.5t-13 41.5t-6.5 50.5t-2.5 47.5t0 59.5t0.5 60.5v671h214v-661q0 -14 -0.5 -42.5t0 -40.5t1.5 -32t3 -32t6.5 -26t11.5 -25q36 -63 125 -74q90 -6 182 8v-181q-56 -16 -142 -17.5
t-139 8.5z" />
    <glyph glyph-name="upsilondieresistonos" unicode="&#x3b0;" horiz-adv-x="1238" 
d="M583 1628l-77 -358h139l146 358h-208zM317 1275q-51 0 -85 34t-34 85t33.5 85t85.5 34t86.5 -34t34.5 -85t-34.5 -85t-86.5 -34zM928 1275q-52 0 -86.5 34t-34.5 85t34.5 85t86.5 34t86 -34t34 -85q0 -50 -34 -84.5t-86 -34.5zM123 505v601h217v-544q0 -57 6 -107
t24.5 -103.5t48.5 -91.5t81.5 -62.5t119.5 -24.5q67 0 118.5 24.5t81 62.5t48 91.5t24.5 103.5t6 107v544h217v-601q0 -79 -9 -145t-40 -141.5t-83 -127.5t-145 -86.5t-218 -34.5q-91 0 -165 18t-124.5 47.5t-89 73t-60.5 89t-35.5 101.5t-18 103.5t-4.5 102.5z" />
    <glyph glyph-name="alpha" unicode="&#x3b1;" horiz-adv-x="1273" 
d="M940 962v144h190v-1106h-190v146q-56 -85 -147 -131t-206 -46q-153 0 -269 77t-176 209t-60 298q0 168 61 299.5t178 208t272 76.5q114 0 203 -45.5t144 -129.5zM616 163q149 0 222.5 105.5t73.5 285.5q0 179 -73 284t-219 105q-148 0 -229.5 -105.5t-81.5 -285.5
q0 -172 78 -280.5t229 -108.5z" />
    <glyph glyph-name="beta" unicode="&#x3b2;" horiz-adv-x="1211" 
d="M357 -492h-215v1598q0 65 21 134q40 129 153.5 197t262.5 68q198 0 323.5 -113.5t125.5 -296.5q0 -93 -36 -167t-106 -116q114 -34 189.5 -137t75.5 -254q0 -208 -139.5 -330t-377.5 -122q-164 0 -277 74v-535zM644 171q129 0 210 71t81 189q0 124 -93.5 189.5
t-256.5 67.5v190q104 9 164.5 64t60.5 150q0 99 -64 155.5t-163 56.5q-65 0 -119 -28.5t-80 -88.5q-25 -58 -25 -158v-583q0 -81 16 -128q24 -70 100 -108.5t169 -38.5z" />
    <glyph glyph-name="gamma" unicode="&#x3b3;" horiz-adv-x="1101" 
d="M659 -369h-217v369l-401 1106h216l294 -838l294 838h216l-402 -1106v-369z" />
    <glyph glyph-name="delta" unicode="&#x3b4;" horiz-adv-x="1248" 
d="M853 998q148 -59 230.5 -188t82.5 -304q0 -239 -148.5 -387.5t-397.5 -148.5q-245 0 -391.5 142t-146.5 376q0 187 94 318t260 160q-193 96 -193 269q0 95 55.5 169.5t178.5 93.5q38 7 128 7h349v-176h-301q-74 0 -108 -9q-88 -22 -88 -94q0 -27 16 -51t39.5 -40.5
t66.5 -36t78.5 -31.5t96 -33t99.5 -36zM625 172q145 0 221.5 89.5t76.5 245.5t-77 244t-221 88q-146 0 -222 -88.5t-76 -244.5q0 -159 77 -246.5t221 -87.5z" />
    <glyph glyph-name="epsilon" unicode="&#x3b5;" horiz-adv-x="1056" 
d="M839 339l170 -112q-74 -122 -202.5 -190t-288.5 -68q-187 0 -311.5 95t-124.5 257q0 82 33.5 151t96.5 108q-97 97 -97 230q0 153 114.5 240t282.5 87q256 0 445 -181l-124 -146q-64 57 -145.5 91.5t-164.5 34.5q-82 0 -135 -36t-53 -108q0 -136 231 -136h98v-172h-99
q-51 0 -86.5 -2.5t-71.5 -11t-57.5 -23.5t-35 -41t-13.5 -63q0 -79 60 -125.5t162 -46.5q192 0 316 168z" />
    <glyph glyph-name="zeta" unicode="&#x3b6;" horiz-adv-x="1061" 
d="M1037 -246h-188q1 36 -1.5 66t-10.5 53t-16 41t-24 31.5t-29 23t-36 15t-39.5 9t-46 5t-49 2t-53.5 0.5q-84 0 -151.5 11.5t-126.5 39.5t-99 72.5t-62.5 113t-22.5 158.5q0 133 62.5 257t232.5 300q128 129 343 330h-577v193h906v-163q-20 -19 -90.5 -88t-155.5 -150
t-220 -207q-153 -148 -214 -250.5t-61 -201.5q0 -55 17 -94t44.5 -62t74 -36.5t94.5 -17.5t116 -4q117 0 196 -24q110 -35 162 -143t25 -280z" />
    <glyph glyph-name="eta" unicode="&#x3b7;" 
d="M699 1136q109 0 191.5 -39t128 -95t73.5 -131.5t36.5 -136t8.5 -120.5v-614h-217v544q0 57 -6 107t-24.5 103.5t-48.5 91.5t-81.5 62.5t-119.5 24.5q-126 0 -203.5 -86.5t-77.5 -271.5v-575h-217v1106h192v-132q129 162 365 162z" />
    <glyph glyph-name="theta" unicode="&#x3b8;" horiz-adv-x="1385" 
d="M693 1504q192 0 331 -98.5t209.5 -270.5t70.5 -398q0 -229 -70.5 -401.5t-209.5 -269.5t-331 -97t-331.5 98.5t-209.5 271t-70 398.5t70 398t209.5 270.5t331.5 98.5zM693 1302q-170 0 -267 -131t-114 -349h761q-14 217 -112 348.5t-268 131.5zM693 173q169 0 266 130.5
t114 348.5h-761q15 -217 112.5 -348t268.5 -131z" />
    <glyph glyph-name="iota" unicode="&#x3b9;" horiz-adv-x="796" 
d="M427 -9q-152 25 -219 139q-13 21 -21.5 45.5t-13 41.5t-6.5 50.5t-2.5 47.5t0 59.5t0.5 60.5v671h214v-661q0 -14 -0.5 -42.5t0 -40.5t1.5 -32t3 -32t6.5 -26t11.5 -25q36 -63 125 -74q90 -6 182 8v-181q-56 -16 -142 -17.5t-139 8.5z" />
    <glyph glyph-name="kappa" unicode="&#x3ba;" horiz-adv-x="1073" 
d="M360 0h-218l1 1106h217v-533l435 533h272l-459 -553l506 -553h-291l-463 532v-532z" />
    <glyph glyph-name="lambda" unicode="&#x3bb;" horiz-adv-x="1142" 
d="M298 0h-216l401 1106q-47 119 -96 165t-153 46h-53v188h74q92 0 152 -13q36 -8 67 -25.5t53.5 -35.5t46 -52.5t37 -56.5t33.5 -69.5t28 -69.5l28 -77l402 -1106h-216l-294 838z" />
    <glyph glyph-name="uni03BC" unicode="&#x3bc;" horiz-adv-x="1278" 
d="M333 -492h-191v1598h217v-544q0 -57 6.5 -107t25 -103.5t48 -91.5t81 -62.5t118.5 -24.5q127 0 204.5 86t77.5 271v576h216v-1106h-191v136q-125 -166 -365 -166q-155 0 -247 87v-549z" />
    <glyph glyph-name="nu" unicode="&#x3bd;" horiz-adv-x="1101" 
d="M659 0h-217l-401 1106h216l294 -838l294 838h216z" />
    <glyph glyph-name="xi" unicode="&#x3be;" horiz-adv-x="1158" 
d="M1145 -246h-190q4 50 -0.5 87t-14 63.5t-31.5 44t-44 28t-60.5 15.5t-72.5 6.5t-88 1.5q-287 0 -424.5 115.5t-137.5 320.5q0 129 54.5 219.5t161.5 128.5q-160 122 -160 325q0 82 27.5 149t74.5 112t110.5 76t134 45t147.5 14q165 0 292.5 -64t209.5 -175l-158 -149
q-115 187 -344 187q-121 0 -193.5 -51t-72.5 -150q0 -100 75.5 -154.5t207.5 -60.5q39 -2 149 -2v-203q-22 0 -166 -5q-160 -6 -241.5 -55t-81.5 -169q0 -70 29 -119t84.5 -77.5t127.5 -42t168 -14.5q150 -2 227 -24q118 -37 176.5 -143.5t23.5 -279.5z" />
    <glyph glyph-name="omicron" unicode="&#x3bf;" horiz-adv-x="1248" 
d="M624 -31q-246 0 -394 162.5t-148 422.5t149 421.5t393 161.5q247 0 394.5 -162t147.5 -421q0 -261 -148 -423t-394 -162zM624 171q154 0 234.5 104t80.5 279q0 177 -80.5 279t-234.5 102q-156 0 -235.5 -103t-79.5 -278q0 -178 81.5 -280.5t233.5 -102.5z" />
    <glyph glyph-name="pi" unicode="&#x3c0;" horiz-adv-x="1368" 
d="M474 0h-215v913h-190v193h1230v-193h-190v-913h-215v913h-420v-913z" />
    <glyph glyph-name="rho" unicode="&#x3c1;" horiz-adv-x="1274" 
d="M357 -492h-215v970q0 136 11 203q30 206 166 331t351 125q164 0 284 -76.5t179.5 -206.5t59.5 -298t-60 -300.5t-175 -209.5t-267 -77q-104 0 -191 38t-143 103v-602zM665 163q151 0 231.5 107.5t80.5 284.5q0 178 -80 283t-232 105q-154 0 -231.5 -104.5t-77.5 -284.5
t79 -285.5t230 -105.5z" />
    <glyph glyph-name="uni03C2" unicode="&#x3c2;" horiz-adv-x="1164" 
d="M1065 -246h-189q2 58 -6 99.5t-27.5 67.5t-43.5 41.5t-62.5 23t-76 10t-92.5 4.5h-10q-231 8 -353.5 151.5t-122.5 377.5q0 283 143 445.5t391 162.5q184 0 312.5 -89.5t170.5 -247.5l-213 -62q-32 94 -104 145.5t-173 51.5q-144 0 -214.5 -105t-71.5 -281q0 -56 7 -102
t27.5 -93t53.5 -79t89.5 -52.5t132.5 -21.5q168 0 243 -24q113 -36 164 -145.5t25 -277.5z" />
    <glyph glyph-name="sigma" unicode="&#x3c3;" horiz-adv-x="1282" 
d="M760 1106h468v-193h-188q126 -154 126 -374q0 -162 -67 -291.5t-191.5 -204t-283.5 -74.5q-160 0 -284.5 75t-191 204.5t-66.5 290.5q0 213 112 363t301 190q68 14 265 14zM624 171q152 0 233.5 101.5t81.5 266.5q0 163 -82 263.5t-233 101.5q-153 0 -234 -102t-81 -263
q0 -168 82.5 -268t232.5 -100z" />
    <glyph glyph-name="tau" unicode="&#x3c4;" horiz-adv-x="1108" 
d="M691 -9q-152 25 -219 139q-13 21 -21.5 45.5t-13 41.5t-6.5 50.5t-2.5 47.5t0 59.5t0.5 60.5v478h-378v193h970v-193h-378v-468v-42v-41t1 -32t3.5 -32.5t7 -25t11.5 -25.5q36 -63 125 -74q90 -6 181 8v-181q-56 -16 -142 -17.5t-139 8.5z" />
    <glyph glyph-name="upsilon" unicode="&#x3c5;" horiz-adv-x="1238" 
d="M123 505v601h217v-544q0 -57 6 -107t24.5 -103.5t48.5 -91.5t81.5 -62.5t119.5 -24.5q67 0 118.5 24.5t81 62.5t48 91.5t24.5 103.5t6 107v544h217v-601q0 -79 -9 -145t-40 -141.5t-83 -127.5t-145 -86.5t-218 -34.5q-91 0 -165 18t-124.5 47.5t-89 73t-60.5 89
t-35.5 101.5t-18 103.5t-4.5 102.5z" />
    <glyph glyph-name="phi" unicode="&#x3c6;" horiz-adv-x="1532" 
d="M856 -461h-192v442q-121 -19 -227.5 11t-185 102t-124 190t-45.5 268t45.5 268.5t124 191t185 102.5t227.5 11v335h192v-335q121 19 227.5 -11t185 -102.5t124 -191t45.5 -268.5t-45.5 -268t-124 -190t-185 -102t-227.5 -11v-442zM664 174v757q-167 28 -265 -73.5
t-98 -305.5q0 -202 100 -303.5t263 -74.5zM856 931v-757q163 -27 263 73t100 305q0 207 -98 307t-265 72z" />
    <glyph glyph-name="chi" unicode="&#x3c7;" horiz-adv-x="1116" 
d="M275 0h-255l414 559l-404 547h254l275 -380l272 380h254l-404 -547l415 -559h-255l-282 392z" />
    <glyph glyph-name="psi" unicode="&#x3c8;" horiz-adv-x="1475" 
d="M841 -461h-206v411q-186 7 -316.5 93t-173.5 253q-22 73 -22 170v640h202v-587q0 -89 15 -148q28 -112 106.5 -165.5t188.5 -55.5v956h206v-956q112 2 192.5 60.5t105.5 171.5q12 55 12 137v587h202v-640q0 -93 -23 -168q-44 -166 -174 -253.5t-315 -94.5v-411z" />
    <glyph glyph-name="omega" unicode="&#x3c9;" horiz-adv-x="1618" 
d="M1068 964l143 173q161 -96 243.5 -258.5t82.5 -365.5q0 -156 -48 -278t-146 -194.5t-233 -72.5q-101 0 -180.5 45t-119.5 141q-41 -96 -120 -141t-180 -45q-137 0 -235.5 74t-145.5 195.5t-47 276.5q0 204 83.5 365.5t243.5 257.5l143 -173q-130 -90 -186.5 -192
t-56.5 -249q0 -156 59.5 -253.5t168.5 -97.5q39 0 68.5 12.5t48 40t30.5 58t17.5 78t7 88.5t1.5 101v151h199v-151q0 -60 2 -101.5t7.5 -89t17 -78t30.5 -57.5t48 -39.5t68 -12.5q74 0 126.5 48t77 125.5t24.5 177.5q0 150 -57 251.5t-185 189.5z" />
    <glyph glyph-name="iotadieresis" unicode="&#x3ca;" horiz-adv-x="783" 
d="M270 1289q-37 -27 -83 -27q-57 0 -95 38t-38 94q0 57 38 95t95 38q44 0 83 -27q39 27 83 27q58 0 95.5 -38t37.5 -95q0 -56 -38 -94t-95 -38q-46 0 -83 27zM526 173q90 -6 182 8v-181q-56 -16 -142 -17.5t-139 8.5q-152 25 -219 139q-13 21 -21.5 45.5t-13 41.5
t-6.5 50.5t-2.5 47.5t0 59.5t0.5 60.5v671h214v-661q0 -14 -0.5 -42.5t0 -40.5t1.5 -32t3 -32t6.5 -26t11.5 -25q36 -63 125 -74z" />
    <glyph glyph-name="upsilondieresis" unicode="&#x3cb;" horiz-adv-x="1238" 
d="M536 1262q-57 0 -95.5 38t-38.5 94q0 57 38.5 95t95.5 38q43 0 82 -27q39 27 83 27q58 0 96 -38t38 -95q0 -56 -38.5 -94t-95.5 -38q-46 0 -83 27q-37 -27 -82 -27zM898 562v544h217v-601q0 -79 -9 -145t-40 -141.5t-83 -127.5t-145 -86.5t-218 -34.5q-91 0 -165 18
t-124.5 47.5t-89 73t-60.5 89t-35.5 101.5t-18 103.5t-4.5 102.5v601h217v-544q0 -57 6 -107t24.5 -103.5t48.5 -91.5t81.5 -62.5t119.5 -24.5q67 0 118.5 24.5t81 62.5t48 91.5t24.5 103.5t6 107z" />
    <glyph glyph-name="omicrontonos" unicode="&#x3cc;" horiz-adv-x="1248" 
d="M855 1628h-208l-77 -358h139zM624 -31q-246 0 -394 162.5t-148 422.5t149 421.5t393 161.5q247 0 394.5 -162t147.5 -421q0 -261 -148 -423t-394 -162zM624 171q154 0 234.5 104t80.5 279q0 177 -80.5 279t-234.5 102q-156 0 -235.5 -103t-79.5 -278q0 -178 81.5 -280.5
t233.5 -102.5z" />
    <glyph glyph-name="upsilontonos" unicode="&#x3cd;" horiz-adv-x="1238" 
d="M612 1628l-76 -358h138l146 358h-208zM123 505v601h217v-544q0 -57 6 -107t24.5 -103.5t48.5 -91.5t81.5 -62.5t119.5 -24.5q67 0 118.5 24.5t81 62.5t48 91.5t24.5 103.5t6 107v544h217v-601q0 -79 -9 -145t-40 -141.5t-83 -127.5t-145 -86.5t-218 -34.5q-91 0 -165 18
t-124.5 47.5t-89 73t-60.5 89t-35.5 101.5t-18 103.5t-4.5 102.5z" />
    <glyph glyph-name="omegatonos" unicode="&#x3ce;" horiz-adv-x="1618" 
d="M785 1628h208l-145 -358h-139zM1068 964l143 173q161 -96 243.5 -258.5t82.5 -365.5q0 -156 -48 -278t-146 -194.5t-233 -72.5q-101 0 -180.5 45t-119.5 141q-41 -96 -120 -141t-180 -45q-137 0 -235.5 74t-145.5 195.5t-47 276.5q0 204 83.5 365.5t243.5 257.5l143 -173
q-130 -90 -186.5 -192t-56.5 -249q0 -156 59.5 -253.5t168.5 -97.5q39 0 68.5 12.5t48 40t30.5 58t17.5 78t7 88.5t1.5 101v151h199v-151q0 -60 2 -101.5t7.5 -89t17 -78t30.5 -57.5t48 -39.5t68 -12.5q74 0 126.5 48t77 125.5t24.5 177.5q0 150 -57 251.5t-185 189.5z" />
    <glyph glyph-name="uni0400" unicode="&#x400;" horiz-adv-x="1187" 
d="M693 1638l-76 359h-208l146 -359h138zM1085 202v-202h-942v1475h942v-202h-728v-414h606v-202h-606v-455h728z" />
    <glyph glyph-name="uni0401" unicode="&#x401;" horiz-adv-x="1187" 
d="M519 1630q-57 0 -95 38t-38 94q0 57 38 95t95 38q46 0 83 -26q37 26 83 26q58 0 95.5 -38t37.5 -95q0 -56 -38 -94t-95 -38q-45 0 -83 28q-38 -28 -83 -28zM1085 1475v-202h-728v-414h606v-202h-606v-455h728v-202h-942v1475h942z" />
    <glyph glyph-name="uni0402" unicode="&#x402;" horiz-adv-x="1363" 
d="M373 0h-216v1282h-157v193h676v-193h-329v-301q137 156 407 156q255 0 391.5 -143.5t136.5 -419.5q0 -270 -134 -422t-405 -152v217q165 0 243.5 97t78.5 265q0 350 -339 350q-133 0 -217 -53t-114 -151q-22 -75 -22 -209v-516z" />
    <glyph glyph-name="uni0403" unicode="&#x403;" horiz-adv-x="1105" 
d="M730 1997h-208l-77 -359h139zM357 0h-214v1475h942v-202h-728v-1273z" />
    <glyph glyph-name="uni0404" unicode="&#x404;" horiz-adv-x="1475" 
d="M760 -31q-159 0 -290 59.5t-217 163.5t-132.5 244t-45.5 301q2 229 83 402t236 269.5t366 96.5q256 0 427 -132.5t227 -374.5l-215 -30q-39 153 -152 242.5t-275 91.5q-201 3 -322 -123.5t-144 -339.5h531v-202h-529q15 -183 105 -300q59 -81 153 -121.5t206 -42.5
q154 -2 266 84t156 233l210 -53q-64 -229 -231 -348.5t-413 -119.5z" />
    <glyph glyph-name="uni0405" unicode="&#x405;" horiz-adv-x="1317" 
d="M678 -31q-240 0 -403.5 122t-199.5 332l223 34q33 -134 140 -210t252 -76q138 0 234 64.5t96 171.5q0 75 -48 120.5t-137 72.5l-378 112q-50 15 -91 32t-86.5 47.5t-76 68.5t-51 95t-20.5 126q0 100 40.5 181t112 133.5t167.5 80.5t208 28q225 -2 376.5 -115.5
t196.5 -316.5l-229 -39q-23 123 -120 195t-227 74q-125 2 -212 -57.5t-87 -152.5q0 -44 20 -77.5t57.5 -56.5t71 -36t81.5 -26l272 -77q40 -11 65 -19t69.5 -26t74 -37t65.5 -50.5t57.5 -67.5t36.5 -87t15 -111q0 -108 -45.5 -195.5t-123.5 -142.5t-179.5 -84.5
t-216.5 -29.5z" />
    <glyph glyph-name="uni0406" unicode="&#x406;" horiz-adv-x="541" 
d="M378 0h-214v1475h214v-1475z" />
    <glyph glyph-name="uni0407" unicode="&#x407;" horiz-adv-x="541" 
d="M353 1895q58 0 95.5 -38t37.5 -95q0 -56 -38 -94t-95 -38q-45 0 -83 28q-38 -28 -83 -28q-57 0 -95 38t-38 94q0 57 38 95t95 38q46 0 83 -26q37 26 83 26zM378 0h-214v1475h214v-1475z" />
    <glyph glyph-name="uni0408" unicode="&#x408;" horiz-adv-x="1000" 
d="M424 -30q-160 0 -270.5 85t-153.5 233l212 50q14 -69 73 -117.5t132 -48.5q53 0 103.5 26t74.5 78q11 23 16.5 56.5t6 57.5t0.5 82v1003h218v-1003v-41v-40t-0.5 -35t-2 -35t-3.5 -30.5t-6 -32.5t-9 -29.5t-12 -32t-16 -30.5q-57 -99 -151 -147.5t-212 -48.5z" />
    <glyph glyph-name="uni0409" unicode="&#x409;" horiz-adv-x="2245" 
d="M1793 937q180 -28 275.5 -154t95.5 -311t-95 -310.5t-276 -153.5q-51 -8 -113 -8h-596v1273h-552q-36 -562 -92 -876q-10 -57 -20 -100t-24.5 -88.5t-31.5 -77.5t-40.5 -61.5t-52.5 -47t-66 -27.5t-83.5 -8.5t-101.5 13.5v183q54 -5 86.5 4.5t58 45t41.5 93t33 158.5
q66 368 93 991h967v-530h381q62 0 113 -8zM1764 212q92 22 137 95.5t45 164.5t-45 165t-137 96q-39 9 -92 9h-373v-540h373q54 0 92 10z" />
    <glyph glyph-name="uni040A" unicode="&#x40a;" horiz-adv-x="2227" 
d="M1776 937q120 -19 204 -84.5t124.5 -162t40.5 -218.5q0 -186 -94.5 -311t-274.5 -153q-51 -8 -114 -8h-596v741h-709v-741h-214v1475h214v-532h709v532h215v-530h381q63 0 114 -8zM1747 212q92 22 136.5 95t44.5 165q0 91 -44.5 165t-136.5 96q-39 9 -93 9h-373v-540h373
q56 0 93 10z" />
    <glyph glyph-name="uni040B" unicode="&#x40b;" horiz-adv-x="1364" 
d="M710 980q138 0 238.5 -41t159.5 -117.5t86.5 -176.5t27.5 -228v-417h-217v348q0 75 -7 132t-28.5 115t-57.5 95.5t-97.5 61t-145.5 23.5q-97 0 -178 -27.5t-132 -68.5v-679h-216v1282h-143v193h676v-193h-317v-383q138 81 351 81z" />
    <glyph glyph-name="uni040C" unicode="&#x40c;" horiz-adv-x="1289" 
d="M890 1997h-208l-77 -359h138zM357 0h-214v1475h214v-689l618 689h266l-652 -720l700 -755h-274l-658 705v-705z" />
    <glyph glyph-name="uni040D" unicode="&#x40d;" horiz-adv-x="1446" 
d="M802 1638l-77 359h-208l146 -359h139zM360 0h-217v1475h217v-1096l726 1096h218v-1475h-218v1097z" />
    <glyph glyph-name="uni040E" unicode="&#x40e;" horiz-adv-x="1294" 
d="M660 1602q-123 0 -208.5 86t-85.5 208h170q0 -52 36 -88t88 -36t88.5 36t36.5 88h170q0 -122 -86.5 -208t-208.5 -86zM587 0h-232l187 382l-514 1093h240l385 -866l396 866h228z" />
    <glyph glyph-name="uni040F" unicode="&#x40f;" horiz-adv-x="1549" 
d="M882 -246h-214v246h-525v1475h214v-1273h835v1273h214v-1475h-524v-246z" />
    <glyph glyph-name="uni0410" unicode="&#x410;" horiz-adv-x="1348" 
d="M41 0l479 1475h308l480 -1475h-223l-109 333h-605l-108 -333h-222zM672 1260l-236 -726h474z" />
    <glyph glyph-name="uni0411" unicode="&#x411;" horiz-adv-x="1284" 
d="M739 0h-596v1475h962v-202h-748v-355h382q52 0 114 -8q117 -14 202 -78.5t126.5 -160.5t41.5 -212q0 -179 -97 -305t-273 -147q-55 -7 -114 -7zM357 716v-514h374q52 0 93 8q92 20 136.5 89.5t44.5 159.5t-44.5 159.5t-136.5 89.5q-41 8 -93 8h-374z" />
    <glyph glyph-name="uni0412" unicode="&#x412;" horiz-adv-x="1280" 
d="M993 779q109 -46 168 -138t59 -211q0 -197 -117 -313.5t-325 -116.5h-635v1475h580q102 0 185 -33.5t135 -90t79.5 -126.5t27.5 -147q0 -100 -41.5 -178t-115.5 -121zM720 1273h-360v-401h360q92 0 151.5 55t59.5 149q0 87 -58 142t-153 55zM360 204h385
q112 0 183.5 62.5t71.5 167.5q0 102 -66.5 169.5t-174.5 67.5h-399v-467z" />
    <glyph glyph-name="uni0413" unicode="&#x413;" horiz-adv-x="1105" 
d="M357 0h-214v1475h942v-202h-728v-1273z" />
    <glyph glyph-name="uni0414" unicode="&#x414;" horiz-adv-x="1530" 
d="M283 -246h-214v448q59 0 104 26.5t72.5 67.5t47.5 107.5t29.5 128t18.5 148.5q15 152 54 796l944 -1v-1273h110v-448h-215v246h-951v-246zM420 202h705v1071l-532 1q-3 -47 -11 -194.5t-15 -242.5t-18 -202q-18 -186 -42 -275t-87 -158z" />
    <glyph glyph-name="uni0415" unicode="&#x415;" horiz-adv-x="1187" 
d="M357 202h728v-202h-942v1475h942v-202h-728v-414h606v-202h-606v-455z" />
    <glyph glyph-name="uni0416" unicode="&#x416;" horiz-adv-x="1858" 
d="M288 0h-268l588 755l-539 720h259l494 -675v675h214v-675l495 675h259l-540 -720l588 -755h-268l-534 691v-691h-214v691z" />
    <glyph glyph-name="uni0417" unicode="&#x417;" horiz-adv-x="1293" 
d="M648 -31q-146 0 -266 46.5t-192 115t-115 155.5l186 121q41 -102 139 -168t257 -66q163 0 248.5 71.5t85.5 185.5q0 50 -17.5 88t-46 61.5t-71 39t-87.5 22t-100 8.5q-144 5 -166 5v203q110 0 148 2q130 6 207 63.5t77 158.5q0 103 -76 163t-201 60q-112 0 -198 -51.5
t-135 -135.5l-158 149q77 107 207 173t291 66q98 0 185.5 -25.5t158 -75t112 -131t41.5 -184.5q0 -105 -43 -193t-117 -140q104 -38 160.5 -121t56.5 -206q0 -209 -160 -334.5t-411 -125.5z" />
    <glyph glyph-name="uni0418" unicode="&#x418;" horiz-adv-x="1447" 
d="M1304 0h-218v1097l-726 -1097h-217v1475h217v-1096l726 1096h218v-1475z" />
    <glyph glyph-name="uni0419" unicode="&#x419;" horiz-adv-x="1446" 
d="M727 1602q-122 0 -208.5 86t-86.5 208h170q0 -52 36.5 -88t88.5 -36t88.5 36t36.5 88h170q0 -122 -86.5 -208t-208.5 -86zM360 0h-217v1475h217v-1096l726 1096h218v-1475h-218v1097z" />
    <glyph glyph-name="uni041A" unicode="&#x41a;" horiz-adv-x="1289" 
d="M1289 0h-269l-532 658l-137 -147v-511h-208v1475h208v-670l624 670h266l-610 -662z" />
    <glyph glyph-name="uni041B" unicode="&#x41b;" horiz-adv-x="1463" 
d="M41 0v183q54 -5 86.5 4.5t58 45t41 92.5t32.5 159q66 368 93 991h968v-1475h-214v1273h-553q-36 -562 -92 -876q-10 -57 -20 -100t-24.5 -88.5t-31.5 -77.5t-40.5 -61.5t-52.5 -47t-66 -27.5t-83.5 -8.5t-101.5 13.5z" />
    <glyph glyph-name="uni041C" unicode="&#x41c;" horiz-adv-x="1741" 
d="M345 0h-202v1475h194l534 -1109l532 1109h195v-1474h-202v1009l-476 -1010h-98l-477 1010v-1010z" />
    <glyph glyph-name="uni041D" unicode="&#x41d;" horiz-adv-x="1453" 
d="M357 0h-214v1475h214v-636h738v636h215v-1475h-215v637h-738v-637z" />
    <glyph glyph-name="uni041E" unicode="&#x41e;" horiz-adv-x="1516" 
d="M759 -31q-217 0 -376 97t-240.5 270t-81.5 401t81.5 401t240.5 270t376 97t375.5 -97t239.5 -270t81 -401t-81 -401t-239.5 -270t-375.5 -97zM759 173q229 -2 349 150.5t120 413.5q0 260 -120 412t-349 153q-153 1 -260 -70.5t-158 -197.5t-52 -297t51 -296t158.5 -196
t260.5 -72z" />
    <glyph glyph-name="uni041F" unicode="&#x41f;" horiz-adv-x="1459" 
d="M357 0h-214v1475h1173v-1475h-214v1273h-745v-1273z" />
    <glyph glyph-name="uni0420" unicode="&#x420;" horiz-adv-x="1284" 
d="M357 0h-214v1475h596q55 0 114 -9q180 -28 275 -153.5t95 -310.5q0 -122 -40.5 -218.5t-125 -161.5t-204.5 -84q-59 -9 -114 -9h-382v-529zM357 1273v-541h374q53 0 93 9q62 15 104.5 58t59.5 94t17 109q0 91 -45 165t-136 96q-39 10 -93 10h-374z" />
    <glyph glyph-name="uni0421" unicode="&#x421;" horiz-adv-x="1496" 
d="M759 -31q-217 0 -376 97t-240.5 270t-81.5 401t81.5 401t240.5 270t376 97q250 0 419 -126.5t236 -349.5l-217 -58q-44 158 -155.5 244.5t-282.5 86.5q-229 0 -349.5 -152t-121.5 -413q-2 -260 119.5 -412t351.5 -152q171 0 282.5 86.5t155.5 244.5l217 -59
q-67 -223 -236 -349.5t-419 -126.5z" />
    <glyph glyph-name="uni0422" unicode="&#x422;" horiz-adv-x="1235" 
d="M725 0h-214v1273h-491v202h1195v-202h-490v-1273z" />
    <glyph glyph-name="uni0423" unicode="&#x423;" horiz-adv-x="1294" 
d="M587 0h-232l187 382l-514 1093h240l385 -866l396 866h228z" />
    <glyph glyph-name="uni0424" unicode="&#x424;" horiz-adv-x="1494" 
d="M853 0h-213v206q-114 -19 -218.5 10.5t-184.5 100.5t-128 191t-48 272t48 273.5t128 194t184.5 103t218.5 11.5v113h213v-113q114 19 218.5 -11.5t185 -103t128.5 -194t48 -273.5t-48 -272t-128.5 -191t-185 -100.5t-218.5 -10.5v-206zM640 404v762q-90 13 -160.5 -13
t-112.5 -82t-64 -130t-22 -161t21.5 -159.5t64.5 -126.5t113 -78.5t160 -11.5zM853 1166v-762q89 -13 159.5 11.5t113.5 78t65 125.5t22 156q0 67 -13.5 128t-42.5 114t-70.5 90t-102 53.5t-131.5 5.5z" />
    <glyph glyph-name="uni0425" unicode="&#x425;" horiz-adv-x="1308" 
d="M284 0h-264l503 746l-489 729h262l359 -547l358 547h263l-490 -729l502 -746h-262l-371 564z" />
    <glyph glyph-name="uni0426" unicode="&#x426;" horiz-adv-x="1512" 
d="M1492 -218h-214v218h-1135v1475h214v-1282h760v1254h214v-1254h161v-411z" />
    <glyph glyph-name="uni0427" unicode="&#x427;" horiz-adv-x="1364" 
d="M1006 796v679h216v-1475h-216v575q-135 -80 -351 -80q-138 0 -238.5 41t-159.5 117.5t-86.5 176.5t-27.5 228v417h217v-349q0 -75 7 -132t28.5 -115t57 -95.5t97 -61t145.5 -23.5q97 0 178 27.5t133 69.5z" />
    <glyph glyph-name="uni0428" unicode="&#x428;" horiz-adv-x="1911" 
d="M1768 0h-1625v1475h214v-1273h492v1273h214v-1273h490v1273h215v-1475z" />
    <glyph glyph-name="uni0429" unicode="&#x429;" horiz-adv-x="1949" 
d="M1768 1475v-1282h161v-411h-214v218h-1572v1475h214v-1273h492v1273h214v-1273h490v1273h215z" />
    <glyph glyph-name="uni042A" unicode="&#x42a;" horiz-adv-x="1320" 
d="M787 0h-596v1303h-198v172h413v-530h381q62 0 113 -8q180 -28 275.5 -154t95.5 -311t-95 -310.5t-276 -153.5q-51 -8 -113 -8zM406 742v-540h373q55 0 92 10q92 22 137 95.5t45 164.5t-45 165t-137 96q-39 9 -92 9h-373z" />
    <glyph glyph-name="uni042B" unicode="&#x42b;" horiz-adv-x="1725" 
d="M738 0h-596v1475h214v-530h382q62 0 113 -8q180 -28 275.5 -154t95.5 -311t-95 -310.5t-276 -153.5q-51 -8 -113 -8zM1582 0h-215v1475h215v-1475zM730 742h-374v-540h374q54 0 92 10q92 22 137 95.5t45 164.5t-45 165t-137 96q-39 9 -92 9z" />
    <glyph glyph-name="uni042C" unicode="&#x42c;" horiz-adv-x="1303" 
d="M738 0h-596v1475h214v-530h382q62 0 113 -8q180 -28 275.5 -154t95.5 -311t-95 -310.5t-276 -153.5q-51 -8 -113 -8zM730 742h-374v-540h374q54 0 92 10q92 22 137 95.5t45 164.5t-45 165t-137 96q-39 9 -92 9z" />
    <glyph glyph-name="uni042D" unicode="&#x42d;" horiz-adv-x="1462" 
d="M716 -31q-246 0 -413 119.5t-231 348.5l210 53q44 -147 156 -233t265 -84q112 2 206.5 43t153.5 121q88 115 105 300h-528v202h529q-23 213 -144 339.5t-322 123.5q-162 -2 -274 -91.5t-151 -242.5l-217 30q56 242 227.5 374.5t427.5 132.5q211 0 366.5 -96.5t236 -269.5
t82.5 -402q1 -161 -45 -301t-132 -244t-217 -163.5t-291 -59.5z" />
    <glyph glyph-name="uni042E" unicode="&#x42e;" horiz-adv-x="1917" 
d="M1246 1504q192 0 331 -98.5t209.5 -270.5t70.5 -398q0 -229 -70.5 -401.5t-209.5 -269.5t-331 -97q-264 0 -423 180t-184 481h-282v-630h-214v1475h214v-630h282q25 301 184 480t423 179zM1629 737q1 164 -40 289.5t-129.5 200.5t-213.5 75q-126 0 -213.5 -75.5
t-128.5 -200.5t-42 -289t40.5 -289t129.5 -200t214 -75q125 0 212.5 75t128.5 200t42 289z" />
    <glyph glyph-name="uni042F" unicode="&#x42f;" horiz-adv-x="1332" 
d="M593 1475h596v-1475h-214v578h-349l-299 -578h-244l314 606q-137 48 -212 165t-75 255q0 175 94.5 293.5t274.5 146.5q58 9 114 9zM601 779h374v494h-374q-54 0 -93 -10q-91 -22 -135.5 -89.5t-44.5 -147.5q0 -77 43.5 -140.5t136.5 -95.5q32 -11 93 -11z" />
    <glyph glyph-name="uni0430" unicode="&#x430;" horiz-adv-x="1166" 
d="M1005 926q24 -50 31 -106t7 -139v-681h-189v161q-134 -192 -398 -192q-177 0 -275.5 95t-98.5 237q0 246 261 328q27 8 55.5 15t69 14.5t63.5 12t77 12.5t69.5 10.5t81.5 11.5t74 10q-5 116 -63.5 170t-186.5 54q-93 0 -163.5 -43t-97.5 -131l-200 61q41 146 158.5 228.5
t304.5 82.5q153 0 261 -52.5t159 -158.5zM494 144q128 0 210.5 65.5t103.5 154.5q20 59 22 173q-301 -45 -384 -70q-152 -52 -152 -164q0 -69 51 -114t149 -45z" />
    <glyph glyph-name="uni0431" unicode="&#x431;" horiz-adv-x="1215" 
d="M598 -32q-234 1 -366 150.5t-147 421.5q-8 137 10.5 302.5t57.5 261.5q60 149 193 239q79 55 183 83t265 48t217 31l20 -191q-50 -11 -174.5 -24.5t-230 -35t-168.5 -61.5q-74 -46 -116 -134.5t-50 -198.5q60 92 156.5 136.5t208.5 44.5q218 0 347.5 -149.5t129.5 -380.5
q0 -246 -147.5 -395.5t-388.5 -147.5zM609 170q144 0 221 89.5t77 244.5q0 156 -78.5 245t-219.5 89q-143 0 -220 -88.5t-77 -245.5q0 -158 77.5 -246t219.5 -88z" />
    <glyph glyph-name="uni0432" unicode="&#x432;" horiz-adv-x="1129" 
d="M676 0h-534v1106h487q104 0 181 -22q90 -26 146.5 -97.5t56.5 -182.5q0 -121 -77 -191q-35 -31 -72 -43q34 -6 75 -26q129 -66 129 -235q0 -112 -54.5 -187t-153.5 -103q-66 -19 -184 -19zM359 934v-296h240q74 0 114 16q38 15 58.5 51t20.5 80q0 48 -22.5 85t-63.5 51
q-41 13 -117 13h-230zM359 466v-297h304q50 0 98 15q43 13 64.5 50t21.5 83q0 56 -30 92.5t-79 47.5q-29 9 -87 9h-292z" />
    <glyph glyph-name="uni0433" unicode="&#x433;" horiz-adv-x="972" 
d="M357 0h-214v1106h779v-202h-565v-904z" />
    <glyph glyph-name="uni0434" unicode="&#x434;" horiz-adv-x="1272" 
d="M265 -246h-204v418q89 0 129 58.5t65 209.5q34 208 55 666h793v-934h108v-418h-202v246h-744v-246zM368 172h520v762h-387q-21 -378 -48 -534q-13 -89 -31 -140.5t-54 -87.5z" />
    <glyph glyph-name="uni0435" unicode="&#x435;" horiz-adv-x="1221" 
d="M1136 493h-825q13 -155 93.5 -238.5t219.5 -83.5q100 0 173 45t114 131l210 -66q-64 -147 -194.5 -229.5t-292.5 -82.5q-248 0 -400 159t-152 416q0 270 149 431.5t393 161.5q253 0 391 -173.5t121 -470.5zM632 947q-136 0 -215.5 -73.5t-100.5 -214.5h600
q-17 147 -86.5 217.5t-197.5 70.5z" />
    <glyph glyph-name="uni0436" unicode="&#x436;" horiz-adv-x="1522" 
d="M269 0h-249l426 553l-402 553h236l385 -540v540h192v-540l385 540h237l-403 -553l426 -553h-249l-396 540v-540h-192v540z" />
    <glyph glyph-name="uni0437" unicode="&#x437;" horiz-adv-x="1055" 
d="M844 580q63 -40 96.5 -108.5t33.5 -150.5q0 -162 -124.5 -257t-311.5 -95q-160 0 -288.5 68t-201.5 190l170 112q123 -168 314 -168q102 0 162.5 46.5t60.5 125.5q0 45 -19 74.5t-58 43.5t-81.5 18.5t-106.5 4.5h-98v172h98q231 0 231 136q0 72 -53.5 108t-135.5 36
q-83 0 -164 -34.5t-144 -91.5l-125 146q187 181 445 181q168 0 282.5 -87t114.5 -240q0 -133 -97 -230z" />
    <glyph glyph-name="uni0438" unicode="&#x438;" horiz-adv-x="1218" 
d="M902 1106h173v-1106h-206v769l-553 -769h-174v1106h206v-754z" />
    <glyph glyph-name="uni0439" unicode="&#x439;" horiz-adv-x="1218" 
d="M637 1233q-122 0 -208.5 86.5t-86.5 208.5h170q0 -52 36.5 -88.5t88.5 -36.5t88.5 36.5t36.5 88.5h170q0 -122 -86.5 -208.5t-208.5 -86.5zM902 1106h173v-1106h-206v769l-553 -769h-174v1106h206v-754z" />
    <glyph glyph-name="uni043A" unicode="&#x43a;" horiz-adv-x="1073" 
d="M360 0h-218l1 1106h217v-533l435 533h272l-459 -553l506 -553h-291l-463 532v-532z" />
    <glyph glyph-name="uni043B" unicode="&#x43b;" horiz-adv-x="1219" 
d="M41 0v181q86 -16 118 20.5t51 141.5q43 235 72 763h794v-1106h-215v904h-387q-34 -465 -72 -651q-13 -69 -31 -116t-46 -83t-66.5 -50.5t-93 -18t-124.5 14.5z" />
    <glyph glyph-name="uni043C" unicode="&#x43c;" horiz-adv-x="1461" 
d="M348 0h-206v1106h180l408 -811l408 811h180v-1106h-207v668l-333 -668h-97l-333 668v-668z" />
    <glyph glyph-name="uni043D" unicode="&#x43d;" horiz-adv-x="1253" 
d="M356 0h-214v1106h214v-452h540v452h214v-1106h-214v453h-540v-453z" />
    <glyph glyph-name="uni043E" unicode="&#x43e;" horiz-adv-x="1248" 
d="M624 -31q-246 0 -394 162.5t-148 422.5t149 421.5t393 161.5q247 0 394.5 -162t147.5 -421q0 -261 -148 -423t-394 -162zM624 171q154 0 234.5 104t80.5 279q0 177 -80.5 279t-234.5 102q-156 0 -235.5 -103t-79.5 -278q0 -178 81.5 -280.5t233.5 -102.5z" />
    <glyph glyph-name="uni043F" unicode="&#x43f;" horiz-adv-x="1218" 
d="M356 0h-214v1106h933v-1106h-214v904h-505v-904z" />
    <glyph glyph-name="uni0440" unicode="&#x440;" horiz-adv-x="1245" 
d="M658 1137q229 0 367 -164t138 -419q0 -166 -60 -298.5t-174.5 -209.5t-265.5 -77q-183 0 -306 109v-570h-215v1598h191v-99q125 130 325 130zM633 163q148 0 225.5 109t77.5 282q0 172 -78.5 280.5t-231.5 108.5q-146 0 -219.5 -105t-73.5 -284q0 -181 74 -286t226 -105z
" />
    <glyph glyph-name="uni0441" unicode="&#x441;" horiz-adv-x="1164" 
d="M616 -31q-248 0 -390 162.5t-144 421.5q2 261 146.5 422.5t391.5 161.5q181 0 309.5 -90.5t169.5 -246.5l-213 -62q-31 92 -103.5 144.5t-166.5 52.5q-152 0 -229 -104t-78 -278q1 -176 79.5 -279t227.5 -103q196 0 266 184l217 -51q-55 -162 -179.5 -248.5t-303.5 -86.5
z" />
    <glyph glyph-name="uni0442" unicode="&#x442;" horiz-adv-x="1072" 
d="M643 0h-214v913h-378v193h970v-193h-378v-913z" />
    <glyph glyph-name="uni0443" unicode="&#x443;" horiz-adv-x="1123" 
d="M251 1106l328 -831l311 831h217l-610 -1598h-204l182 497l-447 1101h223z" />
    <glyph glyph-name="uni0444" unicode="&#x444;" horiz-adv-x="1519" 
d="M856 -461h-192v442q-121 -19 -227.5 11t-185 102t-124 190t-45.5 268t45.5 268.5t124 191t185 102.5t227.5 11v335h192v-335q121 19 227.5 -11t185 -102.5t124 -191t45.5 -268.5t-45.5 -268t-124 -190t-185 -102t-227.5 -11v-442zM664 174v757q-167 28 -265 -73.5
t-98 -305.5q0 -202 100 -303.5t263 -74.5zM856 931v-757q163 -27 263 73t100 305q0 207 -98 307t-265 72z" />
    <glyph glyph-name="uni0445" unicode="&#x445;" horiz-adv-x="1116" 
d="M275 0h-255l414 559l-404 547h254l275 -380l272 380h254l-404 -547l415 -559h-255l-282 392z" />
    <glyph glyph-name="uni0446" unicode="&#x446;" horiz-adv-x="1311" 
d="M1291 -218h-214v218h-935v1106h214v-904h505v904h214v-913h216v-411z" />
    <glyph glyph-name="uni0447" unicode="&#x447;" horiz-adv-x="1157" 
d="M1014 0h-216v385q-128 -64 -292 -64q-169 0 -272.5 75.5t-134.5 220.5q-17 85 -17 229v260h217v-260q0 -95 13 -155q20 -93 78.5 -137t164.5 -44q145 0 243 72v524h216v-1106z" />
    <glyph glyph-name="uni0448" unicode="&#x448;" horiz-adv-x="1596" 
d="M1453 0h-1311v1106h206v-913h347v913h206v-913h346v913h206v-1106z" />
    <glyph glyph-name="uni0449" unicode="&#x449;" horiz-adv-x="1591" 
d="M1571 -218h-214v218h-1215v1106h206v-913h347v913h206v-913h346v913h206v-913h118v-411z" />
    <glyph glyph-name="uni044A" unicode="&#x44a;" horiz-adv-x="1197" 
d="M638 0h-439l-1 934h-157v172h372v-384h219q131 0 192 -12q291 -60 291 -351q0 -141 -72.5 -228t-204.5 -117q-63 -14 -200 -14zM413 550v-378h237q78 0 120 11q53 15 89.5 61t36.5 115q0 73 -37 119.5t-98 60.5q-44 11 -111 11h-237z" />
    <glyph glyph-name="uni044B" unicode="&#x44b;" horiz-adv-x="1466" 
d="M510 0h-368v1106h215v-384h146q132 0 193 -12q291 -60 291 -351q0 -141 -73 -228t-204 -117q-64 -14 -200 -14zM1323 1106v-1106h-214v1106h214zM357 550v-378h165q78 0 120 11q53 15 89.5 61t36.5 115q0 73 -37 119.5t-98 60.5q-44 11 -111 11h-165z" />
    <glyph glyph-name="uni044C" unicode="&#x44c;" horiz-adv-x="1141" 
d="M583 0h-441v1106h215v-384h218q133 0 194 -12q291 -60 291 -351q0 -141 -73.5 -228t-205.5 -117q-63 -14 -198 -14zM357 550v-378h238q78 0 119 11q54 15 90.5 61t36.5 115q0 73 -37 119.5t-98 60.5q-45 11 -111 11h-238z" />
    <glyph glyph-name="uni044D" unicode="&#x44d;" horiz-adv-x="1165" 
d="M550 -31q-179 0 -303.5 86t-179.5 249l217 51q70 -184 265 -184q129 0 205 78.5t95 218.5h-411v172h411q-17 134 -92 214.5t-203 80.5q-98 0 -170 -51.5t-104 -145.5l-213 62q41 156 170 246.5t312 90.5q245 0 389.5 -162t144.5 -423q0 -260 -143 -421.5t-390 -161.5z
" />
    <glyph glyph-name="uni044E" unicode="&#x44e;" horiz-adv-x="1701" 
d="M1077 -31q-205 0 -341 127.5t-164 348.5h-216v-445h-214v1106h214v-446h215q28 224 165 350.5t344 126.5q162 0 285.5 -75t189 -207t65.5 -300q0 -262 -149 -424t-394 -162zM1074 171q157 0 238 103.5t81 279.5q0 178 -81.5 279.5t-236.5 101.5q-152 0 -232 -101.5
t-80 -278.5q0 -179 80.5 -281.5t230.5 -102.5z" />
    <glyph glyph-name="uni044F" unicode="&#x44f;" horiz-adv-x="1174" 
d="M1030 1106l1 -1106h-215v384h-219q-28 0 -43 1l-244 -385h-228l264 413q-107 35 -169.5 118t-62.5 211q0 141 75.5 231.5t201.5 117.5q70 15 200 15h439zM579 556h237v378h-237q-75 0 -119 -13q-52 -15 -89.5 -62.5t-37.5 -114.5q0 -68 38.5 -114.5t96.5 -61.5
q47 -12 111 -12z" />
    <glyph glyph-name="uni0450" unicode="&#x450;" horiz-adv-x="1221" 
d="M684 1270l-77 358h-208l147 -358h138zM1136 493h-825q13 -155 93.5 -238.5t219.5 -83.5q100 0 173 45t114 131l210 -66q-64 -147 -194.5 -229.5t-292.5 -82.5q-248 0 -400 159t-152 416q0 270 149 431.5t393 161.5q253 0 391 -173.5t121 -470.5zM632 947
q-136 0 -215.5 -73.5t-100.5 -214.5h600q-17 147 -86.5 217.5t-197.5 70.5z" />
    <glyph glyph-name="uni0451" unicode="&#x451;" horiz-adv-x="1221" 
d="M540 1262q-57 0 -95 38t-38 94q0 57 38 95t95 38q44 0 83 -27q39 27 83 27q58 0 95.5 -38t37.5 -95q0 -56 -38 -94t-95 -38q-46 0 -83 27q-37 -27 -83 -27zM624 1137q253 0 391 -173.5t121 -470.5h-825q13 -155 93.5 -238.5t219.5 -83.5q100 0 173 45t114 131l210 -66
q-64 -147 -194.5 -229.5t-292.5 -82.5q-248 0 -400 159t-152 416q0 270 149 431.5t393 161.5zM316 659h600q-17 147 -86.5 217.5t-197.5 70.5q-136 0 -215.5 -73.5t-100.5 -214.5z" />
    <glyph glyph-name="uni0452" unicode="&#x452;" 
d="M957 -441q-99 -21 -215 10v158q32 -4 52.5 -4.5t47 5.5t41.5 21t26 46t11 77v672q0 57 -6 107t-24.5 103.5t-48.5 91.5t-81.5 62.5t-119.5 24.5q-126 0 -203.5 -86.5t-77.5 -271.5v-575h-216v1201h-118v171h118v103h191v-103h226v-171h-226v-231q124 166 365 166
q109 0 191.5 -39t128 -95t73.5 -131.5t36.5 -136t8.5 -120.5v-799q0 -216 -180 -256z" />
    <glyph glyph-name="uni0453" unicode="&#x453;" horiz-adv-x="972" 
d="M702 1628h-207l-77 -358h139zM357 0h-214v1106h779v-202h-565v-904z" />
    <glyph glyph-name="uni0454" unicode="&#x454;" horiz-adv-x="1165" 
d="M615 -31q-247 0 -390 161.5t-143 421.5q0 261 144.5 423t389.5 162q183 0 312.5 -90.5t170.5 -246.5l-213 -62q-32 94 -104.5 145.5t-170.5 51.5q-128 0 -203 -80.5t-92 -214.5h411v-172h-411q19 -140 95 -218.5t205 -78.5q196 0 266 184l217 -51q-55 -162 -179.5 -248.5
t-304.5 -86.5z" />
    <glyph glyph-name="uni0455" unicode="&#x455;" horiz-adv-x="1097" 
d="M566 -30q-202 0 -329 89t-155 251l219 34q21 -87 95.5 -136t184.5 -49q100 0 157 40.5t57 112.5q0 44 -21.5 69t-80 47.5t-195.5 59.5q-214 56 -297 125.5t-83 191.5q0 151 117.5 241.5t312.5 90.5q191 0 316.5 -88.5t144.5 -236.5l-219 -40q-11 79 -75 125.5t-165 50.5
q-98 4 -158 -32.5t-60 -99.5q0 -56 57.5 -87.5t251.5 -80.5q209 -54 291.5 -126.5t82.5 -200.5q0 -164 -119.5 -257.5t-329.5 -93.5z" />
    <glyph glyph-name="uni0456" unicode="&#x456;" horiz-adv-x="541" 
d="M271 1257q-57 0 -95.5 39t-38.5 95q0 57 38.5 95t95.5 38t95 -38t38 -95q0 -56 -38 -95t-95 -39zM378 0h-214v1106h214v-1106z" />
    <glyph glyph-name="uni0457" unicode="&#x457;" horiz-adv-x="541" 
d="M353 1527q58 0 95.5 -38t37.5 -95q0 -56 -38 -94t-95 -38q-46 0 -83 27q-37 -27 -83 -27q-57 0 -95 38t-38 94q0 57 38 95t95 38q44 0 83 -27q39 27 83 27zM378 0h-214v1106h214v-1106z" />
    <glyph glyph-name="uni0458" unicode="&#x458;" horiz-adv-x="564" 
d="M307 1257q-57 0 -95.5 39t-38.5 95q0 57 38.5 95t95.5 38t95.5 -38t38.5 -95q0 -56 -38.5 -95t-95.5 -39zM128 -492h-148v203h56q85 0 124.5 40.5t39.5 126.5v1228h215v-1315q0 -135 -75 -209t-212 -74z" />
    <glyph glyph-name="uni0459" unicode="&#x459;" horiz-adv-x="1739" 
d="M41 0v181q26 -5 46.5 -5t36 4.5t28 15t21 23t15.5 33t12 41t10 50.5q42 225 72 763h746v-384h147q131 0 192 -12q132 -25 211.5 -111.5t79.5 -234.5q0 -145 -75.5 -234.5t-202.5 -115.5q-71 -14 -199 -14h-367l-1 904h-339q-34 -465 -72 -651q-13 -69 -31 -116t-46 -83
t-66.5 -50.5t-93 -18t-124.5 14.5zM1028 550v-378h165q77 0 120 11q53 15 89.5 61t36.5 118q0 71 -37.5 117t-97.5 60q-48 11 -111 11h-165z" />
    <glyph glyph-name="uni045A" unicode="&#x45a;" horiz-adv-x="1688" 
d="M356 0h-214v1106h214v-384h406v384h215v-384h146q132 0 193 -12q132 -25 211.5 -111.5t79.5 -234.5q0 -145 -75.5 -234.5t-202.5 -115.5q-71 -14 -200 -14h-366l-1 550h-406v-550zM977 550v-378h165q77 0 120 11q53 15 89.5 61t36.5 118q0 71 -38 117t-98 60
q-48 11 -110 11h-165z" />
    <glyph glyph-name="uni045B" unicode="&#x45b;" 
d="M699 1136q109 0 191.5 -39t128 -95t73.5 -131.5t36.5 -136t8.5 -120.5v-614h-217v544q0 57 -6 107t-24.5 103.5t-48.5 91.5t-81.5 62.5t-119.5 24.5q-126 0 -203.5 -86.5t-77.5 -271.5v-575h-217v1201h-117v171h117v103h192v-103h226v-171h-226v-227q130 162 365 162z
" />
    <glyph glyph-name="uni045C" unicode="&#x45c;" horiz-adv-x="1073" 
d="M739 1628h-209l-75 -358h138zM360 0h-218l1 1106h217v-533l435 533h272l-459 -553l506 -553h-291l-463 532v-532z" />
    <glyph glyph-name="uni045D" unicode="&#x45d;" horiz-adv-x="1218" 
d="M750 1270l-77 358h-208l145 -358h140zM902 1106h173v-1106h-206v769l-553 -769h-174v1106h206v-754z" />
    <glyph glyph-name="uni045E" unicode="&#x45e;" horiz-adv-x="1123" 
d="M591 1233q-122 0 -208.5 86.5t-86.5 208.5h170q0 -52 36.5 -88.5t88.5 -36.5t88.5 36.5t36.5 88.5h170q0 -122 -86 -208.5t-209 -86.5zM251 1106l328 -831l311 831h217l-610 -1598h-204l182 497l-447 1101h223z" />
    <glyph glyph-name="uni045F" unicode="&#x45f;" horiz-adv-x="1218" 
d="M733 -246h-214v246h-377v1106h214v-904h505v904h214v-1106h-342v-246z" />
    <glyph glyph-name="uni0490" unicode="&#x490;" horiz-adv-x="1126" 
d="M357 0h-214v1475h749v218h214v-420h-749v-1273z" />
    <glyph glyph-name="uni0491" unicode="&#x491;" horiz-adv-x="972" 
d="M357 0h-214v1106h565v218h214v-420h-565v-904z" />
    <glyph glyph-name="uni04AE" unicode="&#x4ae;" horiz-adv-x="1214" 
d="M716 609v-609h-217v609l-499 866h250l357 -620l358 620h249z" />
    <glyph glyph-name="uni04AF" unicode="&#x4af;" horiz-adv-x="1101" 
d="M659 -369h-217v369l-401 1106h216l294 -838l294 838h216l-402 -1106v-369z" />
    <glyph glyph-name="uni04BA" unicode="&#x4ba;" horiz-adv-x="1364" 
d="M710 980q138 0 238.5 -41t159.5 -117.5t86.5 -176.5t27.5 -228v-417h-217v348q0 75 -7 132t-28.5 115t-57 95.5t-97 61t-145.5 23.5q-98 0 -179 -27.5t-132 -68.5v-679h-216v1475h216v-576q137 81 351 81z" />
    <glyph glyph-name="uni04BB" unicode="&#x4bb;" horiz-adv-x="1170" 
d="M157 1106h216v-385q128 64 292 64q170 0 273 -76t133 -221q18 -90 18 -228v-260h-218v260q0 100 -12 155q-20 93 -79 137t-165 44q-144 0 -242 -72v-524h-216v1106z" />
    <glyph glyph-name="uni04E8" unicode="&#x4e8;" horiz-adv-x="1557" 
d="M759 1505q217 0 375.5 -97t239.5 -270t81 -401t-81 -401t-239.5 -270t-375.5 -97t-376 97t-240.5 270t-81.5 401t81.5 401t240.5 270t376 97zM759 1302q-204 2 -322 -120t-142 -337h927q-23 214 -140.5 335t-322.5 122zM759 173q204 -2 322 120t141 337h-928
q24 -214 142 -335t323 -122z" />
    <glyph glyph-name="uni04E9" unicode="&#x4e9;" horiz-adv-x="1248" 
d="M624 1137q247 0 394.5 -162t147.5 -421q0 -261 -148 -423t-394 -162t-394 162.5t-148 422.5t149 421.5t393 161.5zM624 935q-135 0 -213 -78.5t-97 -216.5h620q-19 140 -98 217.5t-212 77.5zM624 171q133 0 212 79t98 218h-620q19 -140 98.5 -218.5t211.5 -78.5z" />
    <glyph glyph-name="Wgrave" unicode="&#x1e80;" horiz-adv-x="1971" 
d="M744 1997l146 -359h139l-77 359h-208zM669 0h-213l-428 1475h224l310 -1116l310 1115l226 1l310 -1116l310 1116h226l-430 -1475h-212l-317 1103z" />
    <glyph glyph-name="wgrave" unicode="&#x1e81;" horiz-adv-x="1618" 
d="M853 1270l-77 358h-208l147 -358h138zM551 0h-172l-338 1107l212 -1l231 -759l234 759h184l234 -759l231 759h211l-338 -1106h-172l-258 801z" />
    <glyph glyph-name="Wacute" unicode="&#x1e82;" horiz-adv-x="1971" 
d="M942 1638h138l147 359h-208zM669 0h-213l-428 1475h224l310 -1116l310 1115l226 1l310 -1116l310 1116h226l-430 -1475h-212l-317 1103z" />
    <glyph glyph-name="wacute" unicode="&#x1e83;" horiz-adv-x="1618" 
d="M1051 1628h-208l-77 -358h139zM551 0h-172l-338 1107l212 -1l231 -759l234 759h184l234 -759l231 759h211l-338 -1106h-172l-258 801z" />
    <glyph glyph-name="Wdieresis" unicode="&#x1e84;" horiz-adv-x="1971" 
d="M903 1630q-57 0 -95.5 38t-38.5 94q0 57 38 95t96 38q46 0 83 -26q37 26 82 26q58 0 96 -38t38 -95q0 -56 -38.5 -94t-95.5 -38q-43 0 -82 27q-39 -27 -83 -27zM1408 359l310 1116h226l-430 -1475h-212l-317 1103l-316 -1103h-213l-428 1475h224l310 -1116l310 1115
l226 1z" />
    <glyph glyph-name="wdieresis" unicode="&#x1e85;" horiz-adv-x="1618" 
d="M726 1262q-57 0 -95 38t-38 94q0 57 38 95t95 38q44 0 83 -27q39 27 83 27q58 0 95.5 -38t37.5 -95q0 -56 -38 -94t-95 -38q-46 0 -83 27q-37 -27 -83 -27zM1136 347l231 759h211l-338 -1106h-172l-258 801l-259 -801h-172l-338 1107l212 -1l231 -759l234 759h184z" />
    <glyph glyph-name="uni1E9E" unicode="&#x1e9e;" horiz-adv-x="1507" 
d="M916 -31q-123 0 -208 31v210q86 -29 182 -29q127 0 206 64.5t78 188.5q-1 131 -100 198t-256 69l-34 142l241 398q-117 61 -248 61q-152 0 -254.5 -71t-137.5 -198q-25 -100 -25 -247v-786h-218v851q0 176 35 277q32 99 92 173.5t138.5 118t166.5 64.5t187 21
q93 0 174 -14.5t150.5 -44.5t110.5 -52.5t99 -59.5l-276 -481q74 -13 138.5 -46.5t116 -85t81 -127.5t29.5 -166q0 -213 -123.5 -336t-344.5 -123z" />
    <glyph glyph-name="uni1EA0" unicode="&#x1ea0;" horiz-adv-x="1348" 
d="M520 1475h308l480 -1475h-223l-109 333h-605l-108 -333h-222zM436 534h474l-238 726zM675 -425q-57 0 -95.5 38t-38.5 94q0 57 38 95t96 38t96 -38t38 -95q0 -56 -38.5 -94t-95.5 -38z" />
    <glyph glyph-name="uni1EA1" unicode="&#x1ea1;" horiz-adv-x="1166" 
d="M1005 926q24 -50 31 -106t7 -139v-681h-189v161q-134 -192 -398 -192q-177 0 -275.5 95t-98.5 237q0 246 261 328q27 8 55.5 15t69 14.5t63.5 12t77 12.5t69.5 10.5t81.5 11.5t74 10q-5 116 -63.5 170t-186.5 54q-93 0 -163.5 -43t-97.5 -131l-200 61q41 146 158.5 228.5
t304.5 82.5q153 0 261 -52.5t159 -158.5zM494 144q128 0 210.5 65.5t103.5 154.5q20 59 22 173q-301 -45 -384 -70q-152 -52 -152 -164q0 -69 51 -114t149 -45zM587 -160q58 0 96 -38t38 -95q0 -56 -38.5 -94t-95.5 -38t-95 38t-38 94q0 57 38 95t95 38z" />
    <glyph glyph-name="uni1EA2" unicode="&#x1ea2;" horiz-adv-x="1348" 
d="M536 1906l-60 107q53 49 122.5 64.5t135.5 -13t99 -100.5q36 -82 13.5 -148.5t-75.5 -110t-119 -56.5l-46 91q63 23 92.5 65t4.5 93q-16 33 -47 41.5t-61.5 -1.5t-58.5 -32zM520 1475h308l480 -1475h-223l-109 333h-605l-108 -333h-222zM436 534h474l-238 726z" />
    <glyph glyph-name="uni1EA3" unicode="&#x1ea3;" horiz-adv-x="1166" 
d="M642 1535q-16 33 -47 41.5t-61.5 -2t-59.5 -32.5l-58 108q53 49 122 65t135 -12.5t99 -101.5q36 -82 14 -148.5t-75 -110t-119 -57.5l-47 91q63 22 93 65t4 94zM1005 926q24 -50 31 -106t7 -139v-681h-189v161q-134 -192 -398 -192q-177 0 -275.5 95t-98.5 237
q0 246 261 328q27 8 55.5 15t69 14.5t63.5 12t77 12.5t69.5 10.5t81.5 11.5t74 10q-5 116 -63.5 170t-186.5 54q-93 0 -163.5 -43t-97.5 -131l-200 61q41 146 158.5 228.5t304.5 82.5q153 0 261 -52.5t159 -158.5zM494 144q128 0 210.5 65.5t103.5 154.5q20 59 22 173
q-301 -45 -384 -70q-152 -52 -152 -164q0 -69 51 -114t149 -45z" />
    <glyph glyph-name="uni1EA4" unicode="&#x1ea4;" horiz-adv-x="1348" 
d="M1300 2212h-208l-76 -359h138zM519 1638h-205l265 308h185l264 -308h-205l-151 182zM828 1475l480 -1475h-223l-109 333h-605l-108 -333h-222l479 1475h308zM910 534l-238 726l-236 -726h474z" />
    <glyph glyph-name="uni1EA5" unicode="&#x1ea5;" horiz-adv-x="1166" 
d="M950 1485l76 358h209l-146 -358h-139zM758 1270l-152 181l-152 -181h-205l264 307h185l265 -307h-205zM585 1137q153 0 261 -52.5t159 -158.5q24 -50 31 -106t7 -139v-681h-189v161q-134 -192 -398 -192q-177 0 -275.5 95t-98.5 237q0 246 261 328q27 8 55.5 15t69 14.5
t63.5 12t77 12.5t69.5 10.5t81.5 11.5t74 10q-5 116 -63.5 170t-186.5 54q-93 0 -163.5 -43t-97.5 -131l-200 61q41 146 158.5 228.5t304.5 82.5zM494 144q128 0 210.5 65.5t103.5 154.5q20 59 22 173q-301 -45 -384 -70q-152 -52 -152 -164q0 -69 51 -114t149 -45z" />
    <glyph glyph-name="uni1EA6" unicode="&#x1ea6;" horiz-adv-x="1348" 
d="M1133 1853l-76 359h-209l146 -359h139zM519 1638h-205l265 308h185l264 -308h-205l-151 182zM828 1475l480 -1475h-223l-109 333h-605l-108 -333h-222l479 1475h308zM910 534l-238 726l-236 -726h474z" />
    <glyph glyph-name="uni1EA7" unicode="&#x1ea7;" horiz-adv-x="1166" 
d="M989 1843l76 -358h-138l-147 358h209zM756 1270l-152 181l-152 -181h-205l264 307h185l265 -307h-205zM585 1137q153 0 261 -52.5t159 -158.5q24 -50 31 -106t7 -139v-681h-189v161q-134 -192 -398 -192q-177 0 -275.5 95t-98.5 237q0 246 261 328q27 8 55.5 15t69 14.5
t63.5 12t77 12.5t69.5 10.5t81.5 11.5t74 10q-5 116 -63.5 170t-186.5 54q-93 0 -163.5 -43t-97.5 -131l-200 61q41 146 158.5 228.5t304.5 82.5zM494 144q128 0 210.5 65.5t103.5 154.5q20 59 22 173q-301 -45 -384 -70q-152 -52 -152 -164q0 -69 51 -114t149 -45z" />
    <glyph glyph-name="uni1EA8" unicode="&#x1ea8;" horiz-adv-x="1348" 
d="M1002 1906l-58 107q39 36 90 54t101 15t95 -33t70 -85q36 -82 14 -148.5t-75 -110t-119 -56.5l-46 91q63 23 92.5 65.5t3.5 92.5q-16 33 -47 41.5t-61.5 -1.5t-59.5 -32zM520 1638h-205l265 308h185l264 -308h-205l-151 182zM828 1475l480 -1475h-223l-109 333h-605
l-108 -333h-222l479 1475h308zM910 534l-238 726l-236 -726h474z" />
    <glyph glyph-name="uni1EA9" unicode="&#x1ea9;" horiz-adv-x="1166" 
d="M1218 1595q36 -82 13.5 -148.5t-75.5 -110t-119 -56.5l-47 91q63 22 93 65t4 94q-16 33 -47 41.5t-61 -2t-59 -32.5l-59 108q53 49 122 64.5t135.5 -13.5t99.5 -101zM741 1270l-152 181l-152 -181h-205l265 307h185l264 -307h-205zM585 1137q153 0 261 -52.5t159 -158.5
q24 -50 31 -106t7 -139v-681h-189v161q-134 -192 -398 -192q-177 0 -275.5 95t-98.5 237q0 246 261 328q27 8 55.5 15t69 14.5t63.5 12t77 12.5t69.5 10.5t81.5 11.5t74 10q-5 116 -63.5 170t-186.5 54q-93 0 -163.5 -43t-97.5 -131l-200 61q41 146 158.5 228.5t304.5 82.5z
M494 144q128 0 210.5 65.5t103.5 154.5q20 59 22 173q-301 -45 -384 -70q-152 -52 -152 -164q0 -69 51 -114t149 -45z" />
    <glyph glyph-name="uni1EAA" unicode="&#x1eaa;" horiz-adv-x="1348" 
d="M845 1997q-42 0 -90 21t-83.5 46t-74.5 46t-66 21q-34 0 -46.5 -33.5t1.5 -77.5h-139q-29 116 16 193.5t152 77.5q42 0 90 -21t83.5 -46t74.5 -46t65 -21q33 0 46 32.5t0 78.5h140q29 -116 -16.5 -193.5t-152.5 -77.5zM671 1820l-153 -182h-205l265 308h185l264 -308
h-205zM520 1475h308l480 -1475h-223l-109 333h-605l-108 -333h-222zM436 534h474l-238 726z" />
    <glyph glyph-name="uni1EAB" unicode="&#x1eab;" horiz-adv-x="1166" 
d="M403 1652h-139q-29 116 16 193t152 77q53 0 114.5 -33.5t114 -67t85.5 -33.5t46.5 33t-0.5 79h139q29 -116 -16 -194t-152 -78q-42 0 -90 21t-83.5 46t-74.5 46t-65 21q-34 0 -47.5 -33t0.5 -77zM740 1270l-152 181l-153 -181h-205l266 307h184l265 -307h-205zM1005 926
q24 -50 31 -106t7 -139v-681h-189v161q-134 -192 -398 -192q-177 0 -275.5 95t-98.5 237q0 246 261 328q27 8 55.5 15t69 14.5t63.5 12t77 12.5t69.5 10.5t81.5 11.5t74 10q-5 116 -63.5 170t-186.5 54q-93 0 -163.5 -43t-97.5 -131l-200 61q41 146 158.5 228.5t304.5 82.5
q153 0 261 -52.5t159 -158.5zM494 144q128 0 210.5 65.5t103.5 154.5q20 59 22 173q-301 -45 -384 -70q-152 -52 -152 -164q0 -69 51 -114t149 -45z" />
    <glyph glyph-name="uni1EAC" unicode="&#x1eac;" horiz-adv-x="1348" 
d="M520 1638h-205l265 308h185l264 -308h-205l-151 182zM828 1475l480 -1475h-223l-109 333h-605l-108 -333h-222l479 1475h308zM910 534l-238 726l-236 -726h474zM675 -425q-57 0 -95.5 38t-38.5 94q0 57 38 95t96 38t96 -38t38 -95q0 -56 -38.5 -94t-95.5 -38z" />
    <glyph glyph-name="uni1EAD" unicode="&#x1ead;" horiz-adv-x="1166" 
d="M750 1270l-153 181l-152 -181h-204l264 307h185l264 -307h-204zM1005 926q24 -50 31 -106t7 -139v-681h-189v161q-134 -192 -398 -192q-177 0 -275.5 95t-98.5 237q0 246 261 328q27 8 55.5 15t69 14.5t63.5 12t77 12.5t69.5 10.5t81.5 11.5t74 10q-5 116 -63.5 170
t-186.5 54q-93 0 -163.5 -43t-97.5 -131l-200 61q41 146 158.5 228.5t304.5 82.5q153 0 261 -52.5t159 -158.5zM494 144q128 0 210.5 65.5t103.5 154.5q20 59 22 173q-301 -45 -384 -70q-152 -52 -152 -164q0 -69 51 -114t149 -45zM587 -160q58 0 96 -38t38 -95
q0 -56 -38.5 -94t-95.5 -38t-95 38t-38 94q0 57 38 95t95 38z" />
    <glyph glyph-name="uni1EAE" unicode="&#x1eae;" horiz-adv-x="1348" 
d="M698 2335h208l-146 -359h-138zM674 1602q-122 0 -208.5 86t-86.5 208h170q0 -52 36.5 -88t88.5 -36t88.5 36t36.5 88h170q0 -122 -86 -208t-209 -86zM1308 0h-223l-109 333h-605l-108 -333h-222l479 1475h308zM672 1261l-236 -727h474z" />
    <glyph glyph-name="uni1EAF" unicode="&#x1eaf;" horiz-adv-x="1166" 
d="M616 1966h209l-146 -358h-138zM593 1233q-122 0 -208.5 86.5t-86.5 208.5h170q0 -52 36.5 -88.5t88.5 -36.5t88.5 36.5t36.5 88.5h170q0 -122 -86.5 -208.5t-208.5 -86.5zM1005 926q24 -50 31 -106t7 -139v-681h-189v161q-134 -192 -398 -192q-177 0 -275.5 95t-98.5 237
q0 246 261 328q27 8 55.5 15t69 14.5t63.5 12t77 12.5t69.5 10.5t81.5 11.5t74 10q-5 116 -63.5 170t-186.5 54q-93 0 -163.5 -43t-97.5 -131l-200 61q41 146 158.5 228.5t304.5 82.5q153 0 261 -52.5t159 -158.5zM494 144q128 0 210.5 65.5t103.5 154.5q20 59 22 173
q-301 -45 -384 -70q-152 -52 -152 -164q0 -69 51 -114t149 -45z" />
    <glyph glyph-name="uni1EB0" unicode="&#x1eb0;" horiz-adv-x="1348" 
d="M650 2335l77 -359h-139l-146 359h208zM674 1602q-122 0 -208.5 86t-86.5 208h170q0 -52 36.5 -88t88.5 -36t88.5 36t36.5 88h170q0 -122 -86 -208t-209 -86zM1308 0h-223l-109 333h-605l-108 -333h-222l479 1475h308zM672 1261l-236 -727h474z" />
    <glyph glyph-name="uni1EB1" unicode="&#x1eb1;" horiz-adv-x="1166" 
d="M574 1966l77 -358h-139l-145 358h207zM598 1233q-122 0 -208.5 86.5t-86.5 208.5h170q0 -52 36.5 -88.5t88.5 -36.5t88.5 36.5t36.5 88.5h170q0 -122 -86 -208.5t-209 -86.5zM1005 926q24 -50 31 -106t7 -139v-681h-189v161q-134 -192 -398 -192q-177 0 -275.5 95
t-98.5 237q0 246 261 328q27 8 55.5 15t69 14.5t63.5 12t77 12.5t69.5 10.5t81.5 11.5t74 10q-5 116 -63.5 170t-186.5 54q-93 0 -163.5 -43t-97.5 -131l-200 61q41 146 158.5 228.5t304.5 82.5q153 0 261 -52.5t159 -158.5zM494 144q128 0 210.5 65.5t103.5 154.5
q20 59 22 173q-301 -45 -384 -70q-152 -52 -152 -164q0 -69 51 -114t149 -45z" />
    <glyph glyph-name="uni1EB2" unicode="&#x1eb2;" horiz-adv-x="1348" 
d="M680 2213q-16 33 -47.5 41.5t-62 -2t-58.5 -32.5l-59 108q53 49 122 64.5t135 -13t99 -101.5q36 -82 14 -148.5t-75 -110t-119 -56.5l-46 91q63 23 92.5 65.5t4.5 93.5zM674 1602q-122 0 -208.5 86t-86.5 208h170q0 -52 36.5 -88t88.5 -36t88.5 36t36.5 88h170
q0 -122 -86 -208t-209 -86zM1308 0h-223l-109 333h-605l-108 -333h-222l479 1475h308zM672 1261l-236 -727h474z" />
    <glyph glyph-name="uni1EB3" unicode="&#x1eb3;" horiz-adv-x="1166" 
d="M627 1844q-16 33 -47.5 41.5t-62 -2t-58.5 -32.5l-60 108q53 49 122.5 64.5t135.5 -13t99 -100.5q36 -82 13.5 -148.5t-75.5 -110.5t-119 -57l-46 92q63 23 93 65.5t5 92.5zM621 1233q-122 0 -208.5 86.5t-86.5 208.5h170q0 -52 36.5 -88.5t88.5 -36.5t88 36.5t36 88.5
h170q0 -123 -85.5 -209t-208.5 -86zM1005 926q24 -50 31 -106t7 -139v-681h-189v161q-134 -192 -398 -192q-177 0 -275.5 95t-98.5 237q0 246 261 328q27 8 55.5 15t69 14.5t63.5 12t77 12.5t69.5 10.5t81.5 11.5t74 10q-5 116 -63.5 170t-186.5 54q-93 0 -163.5 -43
t-97.5 -131l-200 61q41 146 158.5 228.5t304.5 82.5q153 0 261 -52.5t159 -158.5zM494 144q128 0 210.5 65.5t103.5 154.5q20 59 22 173q-301 -45 -384 -70q-152 -52 -152 -164q0 -69 51 -114t149 -45z" />
    <glyph glyph-name="uni1EB4" unicode="&#x1eb4;" horiz-adv-x="1348" 
d="M821 1963q-53 0 -114 33.5t-113.5 66.5t-85.5 33q-34 0 -46.5 -33t1.5 -76h-139q-29 116 16 192.5t152 76.5q42 0 90 -21t83.5 -45.5t74.5 -45.5t65 -21q33 0 46 32t0 78h139q29 -116 -16.5 -193t-152.5 -77zM653 1602q-122 0 -208.5 86t-86.5 208h170q0 -52 36.5 -88
t88.5 -36t88.5 36t36.5 88h170q0 -122 -86.5 -208t-208.5 -86zM828 1475l480 -1475h-223l-109 333h-605l-108 -333h-222l479 1475h308zM910 534l-238 726l-236 -726h474z" />
    <glyph glyph-name="uni1EB5" unicode="&#x1eb5;" horiz-adv-x="1166" 
d="M393 1618h-139q-29 116 16 192.5t152 76.5q42 0 90 -21t83.5 -45.5t74.5 -45.5t65 -21q33 0 46 32.5t0 78.5h140q29 -116 -16.5 -193.5t-152.5 -77.5q-42 0 -90 21t-83.5 45.5t-74.5 45.5t-66 21q-34 0 -46.5 -32.5t1.5 -76.5zM584 1403q52 0 88.5 36.5t36.5 88.5h170
q0 -122 -86.5 -208.5t-208.5 -86.5t-208.5 86.5t-86.5 208.5h170q0 -52 36.5 -88.5t88.5 -36.5zM1005 926q24 -50 31 -106t7 -139v-681h-189v161q-134 -192 -398 -192q-177 0 -275.5 95t-98.5 237q0 246 261 328q27 8 55.5 15t69 14.5t63.5 12t77 12.5t69.5 10.5t81.5 11.5
t74 10q-5 116 -63.5 170t-186.5 54q-93 0 -163.5 -43t-97.5 -131l-200 61q41 146 158.5 228.5t304.5 82.5q153 0 261 -52.5t159 -158.5zM494 144q128 0 210.5 65.5t103.5 154.5q20 59 22 173q-301 -45 -384 -70q-152 -52 -152 -164q0 -69 51 -114t149 -45z" />
    <glyph glyph-name="uni1EB6" unicode="&#x1eb6;" horiz-adv-x="1348" 
d="M675 1602q-122 0 -208.5 86t-86.5 208h170q0 -52 36.5 -88t88.5 -36t88.5 36t36.5 88h170q0 -122 -86 -208t-209 -86zM828 1475l480 -1475h-223l-109 333h-605l-108 -333h-222l479 1475h308zM672 1261l-236 -727h474zM675 -160q58 0 96 -38t38 -95q0 -56 -38.5 -94
t-95.5 -38t-95.5 38t-38.5 94q0 57 38 95t96 38z" />
    <glyph glyph-name="uni1EB7" unicode="&#x1eb7;" horiz-adv-x="1166" 
d="M595 1233q-122 0 -208.5 86.5t-86.5 208.5h170q0 -52 36.5 -88.5t88.5 -36.5t88.5 36.5t36.5 88.5h170q0 -122 -86 -208.5t-209 -86.5zM1005 926q24 -50 31 -106t7 -139v-681h-189v161q-134 -192 -398 -192q-177 0 -275.5 95t-98.5 237q0 246 261 328q27 8 55.5 15
t69 14.5t63.5 12t77 12.5t69.5 10.5t81.5 11.5t74 10q-5 116 -63.5 170t-186.5 54q-93 0 -163.5 -43t-97.5 -131l-200 61q41 146 158.5 228.5t304.5 82.5q153 0 261 -52.5t159 -158.5zM494 144q128 0 210.5 65.5t103.5 154.5q20 59 22 173q-301 -45 -384 -70
q-152 -52 -152 -164q0 -69 51 -114t149 -45zM587 -160q58 0 96 -38t38 -95q0 -56 -38.5 -94t-95.5 -38t-95 38t-38 94q0 57 38 95t95 38z" />
    <glyph glyph-name="uni1EB8" unicode="&#x1eb8;" horiz-adv-x="1228" 
d="M1085 202v-202h-942v1475h942v-202h-728v-414h606v-202h-606v-455h728zM615 -425q-57 0 -95.5 38t-38.5 94q0 57 38 95t96 38t96 -38t38 -95q0 -56 -38.5 -94t-95.5 -38z" />
    <glyph glyph-name="uni1EB9" unicode="&#x1eb9;" horiz-adv-x="1221" 
d="M1136 493h-825q13 -155 93.5 -238.5t219.5 -83.5q100 0 173 45t114 131l210 -66q-64 -147 -194.5 -229.5t-292.5 -82.5q-248 0 -400 159t-152 416q0 270 149 431.5t393 161.5q253 0 391 -173.5t121 -470.5zM632 947q-136 0 -215.5 -73.5t-100.5 -214.5h600
q-17 147 -86.5 217.5t-197.5 70.5zM639 -425q-57 0 -95 38t-38 94q0 57 38 95t95 38q58 0 96 -38t38 -95q0 -56 -38.5 -94t-95.5 -38z" />
    <glyph glyph-name="uni1EBA" unicode="&#x1eba;" horiz-adv-x="1187" 
d="M498 1906l-59 107q53 49 122.5 64.5t135.5 -13t99 -100.5q36 -82 13.5 -148.5t-75.5 -110t-119 -56.5l-46 91q63 23 93 65.5t4 92.5q-16 33 -47 41.5t-61.5 -1.5t-59.5 -32zM1085 202v-202h-942v1475h942v-202h-728v-414h606v-202h-606v-455h728z" />
    <glyph glyph-name="uni1EBB" unicode="&#x1ebb;" horiz-adv-x="1228" 
d="M505 1542l-59 108q53 49 122 65t135.5 -12.5t99.5 -101.5q36 -82 14 -148.5t-75 -110t-119 -57.5l-48 91q64 23 94 65.5t4 93.5q-16 33 -47 41.5t-61.5 -2t-59.5 -32.5zM1136 493h-825q13 -155 93.5 -238.5t219.5 -83.5q100 0 173 45t114 131l210 -66
q-64 -147 -194.5 -229.5t-292.5 -82.5q-248 0 -400 159t-152 416q0 270 149 431.5t393 161.5q253 0 391 -173.5t121 -470.5zM632 947q-136 0 -215.5 -73.5t-100.5 -214.5h600q-17 147 -86.5 217.5t-197.5 70.5z" />
    <glyph glyph-name="uni1EBC" unicode="&#x1ebc;" horiz-adv-x="1187" 
d="M766 1642q-42 0 -90 21t-83.5 46.5t-74.5 46.5t-65 21q-34 0 -47 -33.5t1 -77.5h-140q-29 116 16 193t152 77q53 0 114.5 -33.5t114.5 -67t86 -33.5t46 33t-1 79h139q29 -116 -16 -194t-152 -78zM357 202h728v-202h-942v1475h942v-202h-728v-414h606v-202h-606v-455z" />
    <glyph glyph-name="uni1EBD" unicode="&#x1ebd;" horiz-adv-x="1221" 
d="M803 1274q-42 0 -90 21t-83.5 46t-74.5 46t-66 21q-34 0 -46.5 -33.5t0.5 -77.5h-139q-28 116 17 193.5t151 77.5q53 0 114.5 -33.5t114 -67t85.5 -33.5t46.5 32t0.5 79h139q29 -116 -16.5 -193.5t-152.5 -77.5zM1136 493h-825q13 -155 93.5 -238.5t219.5 -83.5
q100 0 173 45t114 131l210 -66q-64 -147 -194.5 -229.5t-292.5 -82.5q-248 0 -400 159t-152 416q0 270 149 431.5t393 161.5q253 0 391 -173.5t121 -470.5zM632 947q-136 0 -215.5 -73.5t-100.5 -214.5h600q-17 147 -86.5 217.5t-197.5 70.5z" />
    <glyph glyph-name="uni1EBE" unicode="&#x1ebe;" horiz-adv-x="1187" 
d="M1241 2212h-208l-77 -359h140zM612 1820l-151 -182h-205l264 308h186l264 -308h-205zM1085 0h-942v1475h942v-202h-728v-414h606v-202h-606v-455h728v-202z" />
    <glyph glyph-name="uni1EBF" unicode="&#x1ebf;" horiz-adv-x="1221" 
d="M1054 1843h208l-147 -358h-138zM785 1270l-152 181l-153 -181h-205l266 307h184l265 -307h-205zM624 1137q253 0 391 -173.5t121 -470.5h-825q13 -155 93.5 -238.5t219.5 -83.5q100 0 173 45t114 131l210 -66q-64 -147 -194.5 -229.5t-292.5 -82.5q-248 0 -400 159
t-152 416q0 270 149 431.5t393 161.5zM632 947q-273 0 -316 -288h600q-17 146 -87 217t-197 71z" />
    <glyph glyph-name="uni1EC0" unicode="&#x1ec0;" horiz-adv-x="1187" 
d="M1107 1853l-77 359h-208l146 -359h139zM645 1820l-152 -182h-205l265 308h184l265 -308h-204zM1085 0h-942v1475h942v-202h-728v-414h606v-202h-606v-455h728v-202z" />
    <glyph glyph-name="uni1EC1" unicode="&#x1ec1;" horiz-adv-x="1221" 
d="M1006 1843l75 -358h-138l-146 358h209zM772 1270l-151 181l-153 -181h-205l264 307h186l264 -307h-205zM1136 493h-825q13 -155 93.5 -238.5t219.5 -83.5q100 0 173 45t114 131l210 -66q-64 -147 -194.5 -229.5t-292.5 -82.5q-248 0 -400 159t-152 416q0 270 149 431.5
t393 161.5q253 0 391 -173.5t121 -470.5zM632 947q-273 0 -316 -288h600q-17 146 -87 217t-197 71z" />
    <glyph glyph-name="uni1EC2" unicode="&#x1ec2;" horiz-adv-x="1228" 
d="M952 1906l-59 107q39 36 90 54t101 15t95 -33t70 -85q36 -82 14 -148.5t-75 -110t-119 -56.5l-46 91q63 23 92.5 65t4.5 93q-16 33 -47 41.5t-62 -1.5t-59 -32zM622 1820l-153 -182h-205l265 308h185l265 -308h-205zM1085 0h-942v1475h942v-202h-728v-414h606v-202h-606
v-455h728v-202z" />
    <glyph glyph-name="uni1EC3" unicode="&#x1ec3;" horiz-adv-x="1221" 
d="M1254 1595q36 -82 14 -148.5t-75 -110t-119 -56.5l-47 91q63 22 93 65t4 94q-16 33 -47 41.5t-61.5 -2t-59.5 -32.5l-58 108q53 49 122 64.5t135 -13.5t99 -101zM778 1270l-152 181l-152 -181h-205l265 307h185l264 -307h-205zM624 1137q253 0 391 -173.5t121 -470.5
h-825q13 -155 93.5 -238.5t219.5 -83.5q100 0 173 45t114 131l210 -66q-64 -147 -194.5 -229.5t-292.5 -82.5q-248 0 -400 159t-152 416q0 270 149 431.5t393 161.5zM632 947q-273 0 -316 -288h600q-17 146 -87 217t-197 71z" />
    <glyph glyph-name="uni1EC4" unicode="&#x1ec4;" horiz-adv-x="1187" 
d="M784 1997q-53 0 -114 33.5t-113.5 67t-85.5 33.5q-34 0 -46.5 -33.5t1.5 -77.5h-139q-29 116 16 193.5t152 77.5q42 0 90 -21t83.5 -46t74.5 -46t65 -21q33 0 46 32.5t0 78.5h139q29 -116 -16.5 -193.5t-152.5 -77.5zM762 1638l-152 182l-152 -182h-205l264 308h185
l265 -308h-205zM1085 202v-202h-942v1475h942v-202h-728v-414h606v-202h-606v-455h728z" />
    <glyph glyph-name="uni1EC5" unicode="&#x1ec5;" horiz-adv-x="1221" 
d="M799 1628q-53 0 -114.5 33.5t-114.5 67t-85 33.5q-34 0 -47 -33t1 -77h-139q-29 116 16 193t152 77q53 0 114.5 -33.5t114 -67t85.5 -33.5t46 33t-1 79h140q29 -116 -16 -194t-152 -78zM981 1270h-205l-152 181l-153 -181h-205l265 307h185zM1136 493h-825
q13 -155 93.5 -238.5t219.5 -83.5q100 0 173 45t114 131l210 -66q-64 -147 -194.5 -229.5t-292.5 -82.5q-248 0 -400 159t-152 416q0 270 149 431.5t393 161.5q253 0 391 -173.5t121 -470.5zM632 947q-136 0 -215.5 -73.5t-100.5 -214.5h600q-17 147 -86.5 217.5
t-197.5 70.5z" />
    <glyph glyph-name="uni1EC6" unicode="&#x1ec6;" horiz-adv-x="1187" 
d="M601 1820l-151 -182h-205l264 308h185l264 -308h-204zM1085 0h-942v1475h942v-202h-728v-414h606v-202h-606v-455h728v-202zM615 -425q-57 0 -95.5 38t-38.5 94q0 57 38 95t96 38t96 -38t38 -95q0 -56 -38.5 -94t-95.5 -38z" />
    <glyph glyph-name="uni1EC7" unicode="&#x1ec7;" horiz-adv-x="1221" 
d="M773 1270l-152 181l-153 -181h-205l265 307h185l265 -307h-205zM1136 493h-825q13 -155 93.5 -238.5t219.5 -83.5q100 0 173 45t114 131l210 -66q-64 -147 -194.5 -229.5t-292.5 -82.5q-248 0 -400 159t-152 416q0 270 149 431.5t393 161.5q253 0 391 -173.5t121 -470.5z
M632 947q-273 0 -316 -288h600q-17 146 -87 217t-197 71zM610 -160q58 0 96 -38t38 -95q0 -56 -38.5 -94t-95.5 -38t-95 38t-38 94q0 57 38 95t95 38z" />
    <glyph glyph-name="uni1EC8" unicode="&#x1ec8;" horiz-adv-x="541" 
d="M120 1906l-59 107q53 49 122.5 64.5t135.5 -13t99 -100.5q36 -82 14 -148.5t-75 -110t-119 -56.5l-47 91q63 23 93 65.5t4 92.5q-16 33 -47 41.5t-61.5 -1.5t-59.5 -32zM378 0h-214v1475h214v-1475z" />
    <glyph glyph-name="uni1EC9" unicode="&#x1ec9;" horiz-adv-x="541" 
d="M122 1542l-59 108q53 49 122 65t135.5 -12.5t99.5 -101.5q36 -82 14 -148.5t-75 -110t-119 -57.5l-47 91q63 22 93 65t4 94q-16 33 -47 41.5t-61.5 -2t-59.5 -32.5zM378 0h-214v1106h214v-1106z" />
    <glyph glyph-name="uni1ECA" unicode="&#x1eca;" horiz-adv-x="541" 
d="M378 0h-214v1475h214v-1475zM271 -425q-57 0 -95 38t-38 94q0 57 38 95t95 38q58 0 96.5 -38t38.5 -95q0 -56 -38.5 -94t-96.5 -38z" />
    <glyph glyph-name="uni1ECB" unicode="&#x1ecb;" horiz-adv-x="541" 
d="M271 1257q-57 0 -95.5 39t-38.5 95q0 57 38.5 95t95.5 38t95 -38t38 -95q0 -56 -38 -95t-95 -39zM378 0h-214v1106h214v-1106zM271 -425q-57 0 -95 38t-38 94q0 57 38 95t95 38q58 0 96.5 -38t38.5 -95q0 -56 -38.5 -94t-96.5 -38z" />
    <glyph glyph-name="uni1ECC" unicode="&#x1ecc;" horiz-adv-x="1516" 
d="M759 -31q-217 0 -376 97t-240.5 270t-81.5 401t81.5 401t240.5 270t376 97t375.5 -97t239.5 -270t81 -401t-81 -401t-239.5 -270t-375.5 -97zM759 173q229 -2 349 150.5t120 413.5q0 260 -120 412t-349 153q-153 1 -260 -70.5t-158 -197.5t-52 -297t51 -296t158.5 -196
t260.5 -72zM751 -425q-57 0 -95.5 38t-38.5 94q0 57 38.5 95t95.5 38q58 0 96 -38t38 -95q0 -56 -38.5 -94t-95.5 -38z" />
    <glyph glyph-name="uni1ECD" unicode="&#x1ecd;" horiz-adv-x="1248" 
d="M624 -31q-246 0 -394 162.5t-148 422.5t149 421.5t393 161.5q247 0 394.5 -162t147.5 -421q0 -261 -148 -423t-394 -162zM624 171q154 0 234.5 104t80.5 279q0 177 -80.5 279t-234.5 102q-156 0 -235.5 -103t-79.5 -278q0 -178 81.5 -280.5t233.5 -102.5zM625 -425
q-58 0 -96.5 38t-38.5 94q0 57 38.5 95t96.5 38t96 -38t38 -95q0 -56 -38.5 -94t-95.5 -38z" />
    <glyph glyph-name="uni1ECE" unicode="&#x1ece;" horiz-adv-x="1516" 
d="M664 1906l-60 107q53 49 122.5 64.5t135.5 -13t99 -100.5q36 -82 13.5 -148.5t-75.5 -110t-119 -56.5l-46 91q63 23 92.5 65t4.5 93q-16 33 -47 41.5t-61.5 -1.5t-58.5 -32zM759 -31q-217 0 -376 97t-240.5 270t-81.5 401t81.5 401t240.5 270t376 97t375.5 -97
t239.5 -270t81 -401t-81 -401t-239.5 -270t-375.5 -97zM759 173q229 -2 349 150.5t120 413.5q0 260 -120 412t-349 153q-153 1 -260 -70.5t-158 -197.5t-52 -297t51 -296t158.5 -196t260.5 -72z" />
    <glyph glyph-name="uni1ECF" unicode="&#x1ecf;" horiz-adv-x="1248" 
d="M505 1542l-59 108q53 49 122 65t135.5 -12.5t99.5 -101.5q36 -82 14 -148.5t-75 -110t-119 -57.5l-48 91q64 23 94 65.5t4 93.5q-16 33 -47 41.5t-61.5 -2t-59.5 -32.5zM624 -31q-246 0 -394 162.5t-148 422.5t149 421.5t393 161.5q247 0 394.5 -162t147.5 -421
q0 -261 -148 -423t-394 -162zM624 171q154 0 234.5 104t80.5 279q0 177 -80.5 279t-234.5 102q-156 0 -235.5 -103t-79.5 -278q0 -178 81.5 -280.5t233.5 -102.5z" />
    <glyph glyph-name="uni1ED0" unicode="&#x1ed0;" horiz-adv-x="1516" 
d="M1117 1853h138l147 359h-208zM1130 1638h-204l-153 182l-152 -182h-205l265 308h184zM759 -31q-217 0 -376 97t-240.5 270t-81.5 401t81.5 401t240.5 270t376 97t375.5 -97t239.5 -270t81 -401t-81 -401t-239.5 -270t-375.5 -97zM759 173q229 -2 349 150.5t120 413.5
q0 260 -120 412t-349 153q-153 1 -260 -70.5t-158 -197.5t-52 -297t51 -296t158.5 -196t260.5 -72z" />
    <glyph glyph-name="uni1ED1" unicode="&#x1ed1;" horiz-adv-x="1248" 
d="M1264 1843h-208l-77 -358h138zM992 1270h-205l-152 181l-153 -181h-204l265 307h184zM624 -31q-246 0 -394 162.5t-148 422.5t149 421.5t393 161.5q247 0 394.5 -162t147.5 -421q0 -261 -148 -423t-394 -162zM624 171q154 0 234.5 104t80.5 279q0 177 -80.5 279
t-234.5 102q-156 0 -235.5 -103t-79.5 -278q0 -178 81.5 -280.5t233.5 -102.5z" />
    <glyph glyph-name="uni1ED2" unicode="&#x1ed2;" horiz-adv-x="1516" 
d="M933 2212l146 -359h139l-77 359h-208zM1113 1638h-205l-152 182l-152 -182h-205l265 308h185zM759 -31q-217 0 -376 97t-240.5 270t-81.5 401t81.5 401t240.5 270t376 97t375.5 -97t239.5 -270t81 -401t-81 -401t-239.5 -270t-375.5 -97zM759 173q229 -2 349 150.5
t120 413.5q0 260 -120 412t-349 153q-153 1 -260 -70.5t-158 -197.5t-52 -297t51 -296t158.5 -196t260.5 -72z" />
    <glyph glyph-name="uni1ED3" unicode="&#x1ed3;" horiz-adv-x="1248" 
d="M1102 1485l-77 358h-208l146 -358h139zM997 1270h-204l-153 181l-153 -181h-204l265 307h184zM624 -31q-246 0 -394 162.5t-148 422.5t149 421.5t393 161.5q247 0 394.5 -162t147.5 -421q0 -261 -148 -423t-394 -162zM624 171q154 0 234.5 104t80.5 279q0 177 -80.5 279
t-234.5 102q-156 0 -235.5 -103t-79.5 -278q0 -178 81.5 -280.5t233.5 -102.5z" />
    <glyph glyph-name="uni1ED4" unicode="&#x1ed4;" horiz-adv-x="1516" 
d="M1098 1906l-59 107q53 49 122.5 64.5t135.5 -13t99 -100.5q36 -82 13.5 -148.5t-75.5 -110t-119 -56.5l-46 91q63 23 93 65.5t4 92.5q-16 33 -47 41.5t-61.5 -1.5t-59.5 -32zM1124 1638h-204l-152 182l-153 -182h-204l264 308h185zM759 -31q-217 0 -376 97t-240.5 270
t-81.5 401t81.5 401t240.5 270t376 97t375.5 -97t239.5 -270t81 -401t-81 -401t-239.5 -270t-375.5 -97zM759 173q229 -2 349 150.5t120 413.5q0 260 -120 412t-349 153q-153 1 -260 -70.5t-158 -197.5t-52 -297t51 -296t158.5 -196t260.5 -72z" />
    <glyph glyph-name="uni1ED5" unicode="&#x1ed5;" horiz-adv-x="1248" 
d="M951 1537l-58 108q53 49 122 64.5t135 -13.5t99 -101q36 -82 14 -148.5t-75 -110t-119 -56.5l-47 91q63 22 93 65t4 94q-16 33 -47 41.5t-61.5 -2t-59.5 -32.5zM978 1270h-205l-152 181l-152 -181h-205l264 307h186zM624 -31q-246 0 -394 162.5t-148 422.5t149 421.5
t393 161.5q247 0 394.5 -162t147.5 -421q0 -261 -148 -423t-394 -162zM624 171q154 0 234.5 104t80.5 279q0 177 -80.5 279t-234.5 102q-156 0 -235.5 -103t-79.5 -278q0 -178 81.5 -280.5t233.5 -102.5z" />
    <glyph glyph-name="uni1ED6" unicode="&#x1ed6;" horiz-adv-x="1516" 
d="M924 1997q-53 0 -114.5 33.5t-114.5 67t-85 33.5q-34 0 -47 -33.5t1 -77.5h-139q-29 116 16 193.5t152 77.5q53 0 114.5 -33.5t114 -67t85.5 -33.5t46 32.5t-1 78.5h140q29 -116 -16 -193.5t-152 -77.5zM841 1946l265 -308h-205l-152 182l-153 -182h-205l265 308h185z
M759 -31q-217 0 -376 97t-240.5 270t-81.5 401t81.5 401t240.5 270t376 97t375.5 -97t239.5 -270t81 -401t-81 -401t-239.5 -270t-375.5 -97zM759 173q229 -2 349 150.5t120 413.5q0 260 -120 412t-349 153q-153 1 -260 -70.5t-158 -197.5t-52 -297t51 -296t158.5 -196
t260.5 -72z" />
    <glyph glyph-name="uni1ED7" unicode="&#x1ed7;" horiz-adv-x="1248" 
d="M819 1628q-53 0 -114 33.5t-113.5 67t-85.5 33.5q-34 0 -46.5 -33t0.5 -77h-139q-29 116 16 193t151 77q53 0 114.5 -33.5t114.5 -67t86 -33.5t46 32.5t0 79.5h139q29 -116 -16.5 -194t-152.5 -78zM737 1577l264 -307h-204l-153 181l-151 -181h-205l264 307h185zM624 -31
q-246 0 -394 162.5t-148 422.5t149 421.5t393 161.5q247 0 394.5 -162t147.5 -421q0 -261 -148 -423t-394 -162zM624 171q154 0 234.5 104t80.5 279q0 177 -80.5 279t-234.5 102q-156 0 -235.5 -103t-79.5 -278q0 -178 81.5 -280.5t233.5 -102.5z" />
    <glyph glyph-name="uni1ED8" unicode="&#x1ed8;" horiz-adv-x="1516" 
d="M1113 1638h-205l-152 182l-153 -182h-205l266 308h184zM759 -31q-217 0 -376 97t-240.5 270t-81.5 401t81.5 401t240.5 270t376 97t375.5 -97t239.5 -270t81 -401t-81 -401t-239.5 -270t-375.5 -97zM759 173q229 -2 349 150.5t120 413.5q0 260 -120 412t-349 153
q-153 1 -260 -70.5t-158 -197.5t-52 -297t51 -296t158.5 -196t260.5 -72zM759 -425q-57 0 -95 38t-38 94q0 57 38 95t95 38q58 0 96 -38t38 -95q0 -56 -38.5 -94t-95.5 -38z" />
    <glyph glyph-name="uni1ED9" unicode="&#x1ed9;" horiz-adv-x="1248" 
d="M979 1270h-205l-152 181l-152 -181h-205l264 307h186zM624 -31q-246 0 -394 162.5t-148 422.5t149 421.5t393 161.5q247 0 394.5 -162t147.5 -421q0 -261 -148 -423t-394 -162zM624 171q154 0 234.5 104t80.5 279q0 177 -80.5 279t-234.5 102q-156 0 -235.5 -103
t-79.5 -278q0 -178 81.5 -280.5t233.5 -102.5zM640 -425q-57 0 -95 38t-38 94q0 57 38 95t95 38q58 0 96 -38t38 -95q0 -56 -38.5 -94t-95.5 -38z" />
    <glyph glyph-name="uni1EDA" unicode="&#x1eda;" horiz-adv-x="1516" 
d="M794 1997h207l-146 -359h-138zM1196 1365q126 -100 192.5 -262t66.5 -366q0 -228 -81 -401t-239.5 -270t-375.5 -97t-376 97t-240.5 270t-81.5 401t81.5 401t240.5 270t376 97q112 0 205 -25q80 -18 125 1q25 12 40.5 31.5t20.5 42t6.5 49.5t-0.5 54l167 1
q28 -214 -95 -281q-10 -5 -32 -13zM759 173q229 -2 349 150.5t120 413.5q0 260 -120 412t-349 153q-153 1 -260 -70.5t-158 -197.5t-52 -297t51 -296t158.5 -196t260.5 -72z" />
    <glyph glyph-name="uni1EDB" unicode="&#x1edb;" horiz-adv-x="1265" 
d="M647 1628h208l-146 -358h-139zM1006 988q160 -162 160 -434q0 -261 -148 -423t-394 -162t-394 162.5t-148 422.5t149 421.5t393 161.5q88 0 171 -24q86 -21 131 -1q26 12 41.5 31.5t20 42t6 49.5t-0.5 54l167 1q28 -213 -95 -280q-31 -16 -59 -22zM624 171
q154 0 234.5 104t80.5 279q0 177 -80.5 279t-234.5 102q-156 0 -235.5 -103t-79.5 -278q0 -178 81.5 -280.5t233.5 -102.5z" />
    <glyph glyph-name="uni1EDC" unicode="&#x1edc;" horiz-adv-x="1516" 
d="M720 1997l77 -359h-139l-146 359h208zM1196 1365q126 -100 192.5 -262t66.5 -366q0 -228 -81 -401t-239.5 -270t-375.5 -97t-376 97t-240.5 270t-81.5 401t81.5 401t240.5 270t376 97q112 0 205 -25q80 -18 125 1q25 12 40.5 31.5t20.5 42t6.5 49.5t-0.5 54l167 1
q28 -214 -95 -281q-10 -5 -32 -13zM759 173q229 -2 349 150.5t120 413.5q0 260 -120 412t-349 153q-153 1 -260 -70.5t-158 -197.5t-52 -297t51 -296t158.5 -196t260.5 -72z" />
    <glyph glyph-name="uni1EDD" unicode="&#x1edd;" horiz-adv-x="1265" 
d="M591 1628l77 -358h-140l-145 358h208zM1006 988q160 -162 160 -434q0 -261 -148 -423t-394 -162t-394 162.5t-148 422.5t149 421.5t393 161.5q88 0 171 -24q86 -21 131 -1q26 12 41.5 31.5t20 42t6 49.5t-0.5 54l167 1q28 -213 -95 -280q-31 -16 -59 -22zM624 171
q154 0 234.5 104t80.5 279q0 177 -80.5 279t-234.5 102q-156 0 -235.5 -103t-79.5 -278q0 -178 81.5 -280.5t233.5 -102.5z" />
    <glyph glyph-name="uni1EDE" unicode="&#x1ede;" horiz-adv-x="1516" 
d="M831 1898q-16 33 -47 41.5t-61.5 -1.5t-58.5 -32l-60 107q53 49 122.5 64.5t135.5 -13t99 -100.5q36 -82 13.5 -148.5t-75.5 -110t-119 -56.5l-46 91q63 23 92.5 65t4.5 93zM1196 1365q126 -100 192.5 -262t66.5 -366q0 -228 -81 -401t-239.5 -270t-375.5 -97t-376 97
t-240.5 270t-81.5 401t81.5 401t240.5 270t376 97q112 0 205 -25q80 -18 125 1q25 12 40.5 31.5t20.5 42t6.5 49.5t-0.5 54l167 1q28 -214 -95 -281q-10 -5 -32 -13zM759 173q229 -2 349 150.5t120 413.5q0 260 -120 412t-349 153q-153 1 -260 -70.5t-158 -197.5t-52 -297
t51 -296t158.5 -196t260.5 -72z" />
    <glyph glyph-name="uni1EDF" unicode="&#x1edf;" horiz-adv-x="1248" 
d="M673 1535q-16 33 -47 41.5t-61.5 -2t-59.5 -32.5l-59 108q53 49 122 65t135.5 -12.5t99.5 -101.5q36 -82 14 -148.5t-75 -110t-119 -57.5l-48 91q64 23 94 65.5t4 93.5zM1006 988q160 -162 160 -434q0 -261 -148 -423t-394 -162t-394 162.5t-148 422.5t149 421.5
t393 161.5q88 0 171 -24q86 -21 131 -1q26 12 41.5 31.5t20 42t6 49.5t-0.5 54l167 1q28 -213 -95 -280q-31 -16 -59 -22zM624 171q154 0 234.5 104t80.5 279q0 177 -80.5 279t-234.5 102q-156 0 -235.5 -103t-79.5 -278q0 -178 81.5 -280.5t233.5 -102.5z" />
    <glyph glyph-name="uni1EE0" unicode="&#x1ee0;" horiz-adv-x="1516" 
d="M563 1666h-139q-29 116 16 193t152 77q42 0 90 -21t83.5 -46t74.5 -46t65 -21q33 0 46 33t0 79h140q29 -116 -16.5 -194t-152.5 -78q-53 0 -114.5 34t-114 67.5t-85.5 33.5q-34 0 -46.5 -33.5t1.5 -77.5zM1196 1365q126 -100 192.5 -262t66.5 -366q0 -228 -81 -401
t-239.5 -270t-375.5 -97t-376 97t-240.5 270t-81.5 401t81.5 401t240.5 270t376 97q112 0 205 -25q80 -18 125 1q25 12 40.5 31.5t20.5 42t6.5 49.5t-0.5 54l167 1q28 -214 -95 -281q-10 -5 -32 -13zM759 173q229 -2 349 150.5t120 413.5q0 260 -120 412t-349 153
q-153 1 -260 -70.5t-158 -197.5t-52 -297t51 -296t158.5 -196t260.5 -72z" />
    <glyph glyph-name="uni1EE1" unicode="&#x1ee1;" horiz-adv-x="1248" 
d="M443 1297h-139q-28 116 17 193.5t151 77.5q53 0 114.5 -33.5t114 -67t85.5 -33.5t46.5 32t0.5 79h139q29 -116 -16.5 -193.5t-152.5 -77.5q-42 0 -90 21t-83.5 46t-74.5 46t-66 21q-34 0 -46.5 -33.5t0.5 -77.5zM1006 988q160 -162 160 -434q0 -261 -148 -423t-394 -162
t-394 162.5t-148 422.5t149 421.5t393 161.5q88 0 171 -24q86 -21 131 -1q26 12 41.5 31.5t20 42t6 49.5t-0.5 54l167 1q28 -213 -95 -280q-31 -16 -59 -22zM624 171q154 0 234.5 104t80.5 279q0 177 -80.5 279t-234.5 102q-156 0 -235.5 -103t-79.5 -278
q0 -178 81.5 -280.5t233.5 -102.5z" />
    <glyph glyph-name="uni1EE2" unicode="&#x1ee2;" horiz-adv-x="1516" 
d="M1196 1365q126 -100 192.5 -262t66.5 -366q0 -228 -81 -401t-239.5 -270t-375.5 -97t-376 97t-240.5 270t-81.5 401t81.5 401t240.5 270t376 97q112 0 205 -25q80 -18 125 1q25 12 40.5 31.5t20.5 42t6.5 49.5t-0.5 54l167 1q28 -214 -95 -281q-10 -5 -32 -13zM759 173
q229 -2 349 150.5t120 413.5q0 260 -120 412t-349 153q-153 1 -260 -70.5t-158 -197.5t-52 -297t51 -296t158.5 -196t260.5 -72zM775 -160q58 0 96 -38t38 -95q0 -56 -38.5 -94t-95.5 -38t-95 38t-38 94q0 57 38 95t95 38z" />
    <glyph glyph-name="uni1EE3" unicode="&#x1ee3;" horiz-adv-x="1248" 
d="M1006 988q160 -162 160 -434q0 -261 -148 -423t-394 -162t-394 162.5t-148 422.5t149 421.5t393 161.5q88 0 171 -24q86 -21 131 -1q26 12 41.5 31.5t20 42t6 49.5t-0.5 54l167 1q28 -213 -95 -280q-31 -16 -59 -22zM624 171q154 0 234.5 104t80.5 279q0 177 -80.5 279
t-234.5 102q-156 0 -235.5 -103t-79.5 -278q0 -178 81.5 -280.5t233.5 -102.5zM639 -160q58 0 96 -38t38 -95q0 -56 -38.5 -94t-95.5 -38t-95 38t-38 94q0 57 38 95t95 38z" />
    <glyph glyph-name="uni1EE4" unicode="&#x1ee4;" horiz-adv-x="1462" 
d="M731 -31q-262 0 -425 157.5t-163 416.5v931l217 1v-921q0 -91 32 -165.5t85 -121t118.5 -71.5t135.5 -25q95 0 178 42.5t138 132t55 208.5v921h217v-932q0 -259 -163 -416.5t-425 -157.5zM759 -425q-57 0 -95 38t-38 94q0 57 38 95t95 38q58 0 96 -38t38 -95
q0 -56 -38.5 -94t-95.5 -38z" />
    <glyph glyph-name="uni1EE5" unicode="&#x1ee5;" 
d="M900 530v576h216v-1106h-190v132q-130 -162 -366 -162q-109 0 -191.5 39t-127.5 95t-73 131.5t-36.5 135.5t-8.5 121v614h217v-544q0 -57 6 -107t24.5 -103.5t48.5 -91.5t81.5 -62.5t119.5 -24.5q126 0 203 86t77 271zM629 -160q58 0 96 -38t38 -95q0 -56 -38.5 -94
t-95.5 -38t-95 38t-38 94q0 57 38 95t95 38z" />
    <glyph glyph-name="uni1EE6" unicode="&#x1ee6;" horiz-adv-x="1462" 
d="M624 1906l-60 107q53 49 122.5 64.5t135.5 -13t99 -100.5q36 -82 13.5 -148.5t-75.5 -110t-119 -56.5l-46 91q63 23 93 65.5t5 92.5q-16 33 -47 41.5t-62 -1.5t-59 -32zM731 -31q-262 0 -425 157.5t-163 416.5v931l217 1v-921q0 -91 32 -165.5t85 -121t118.5 -71.5
t135.5 -25q95 0 178 42.5t138 132t55 208.5v921h217v-932q0 -259 -163 -416.5t-425 -157.5z" />
    <glyph glyph-name="uni1EE7" unicode="&#x1ee7;" 
d="M673 1535q-16 33 -47 41.5t-61.5 -2t-59.5 -32.5l-59 108q53 49 122 65t135.5 -12.5t99.5 -101.5q36 -82 14 -148.5t-75 -110t-119 -57.5l-48 91q64 23 94 65.5t4 93.5zM900 530v576h216v-1106h-190v132q-130 -162 -366 -162q-109 0 -191.5 39t-127.5 95t-73 131.5
t-36.5 135.5t-8.5 121v614h217v-544q0 -57 6 -107t24.5 -103.5t48.5 -91.5t81.5 -62.5t119.5 -24.5q126 0 203 86t77 271z" />
    <glyph glyph-name="uni1EE8" unicode="&#x1ee8;" horiz-adv-x="1462" 
d="M743 1997h209l-146 -359h-138zM1384 1658l167 1q27 -204 -94 -278q-54 -32 -138 -35v-803q0 -259 -163 -416.5t-425 -157.5t-425 157.5t-163 416.5v931l217 1v-921q0 -91 32 -165.5t85 -121t118.5 -71.5t135.5 -25q95 0 178 42.5t138 132t55 208.5v921h91q59 0 88 5
q35 6 58 23t32 44t11.5 51.5t1.5 59.5z" />
    <glyph glyph-name="uni1EE9" unicode="&#x1ee9;" 
d="M632 1628h209l-147 -358h-138zM1141 1289l167 1q27 -203 -95 -277q-43 -24 -97 -32v-981h-190v132q-130 -162 -366 -162q-109 0 -191.5 39t-127.5 95t-73 131.5t-36.5 135.5t-8.5 121v614h217v-544q0 -57 6 -107t24.5 -103.5t48.5 -91.5t81.5 -62.5t119.5 -24.5
q126 0 203 86t77 271v576h49q59 0 88 5q35 6 58 23t32.5 44t12 51.5t1.5 59.5z" />
    <glyph glyph-name="uni1EEA" unicode="&#x1eea;" horiz-adv-x="1462" 
d="M729 1997l76 -359h-138l-147 359h209zM1384 1658l167 1q27 -204 -94 -278q-54 -32 -138 -35v-803q0 -259 -163 -416.5t-425 -157.5t-425 157.5t-163 416.5v931l217 1v-921q0 -91 32 -165.5t85 -121t118.5 -71.5t135.5 -25q95 0 178 42.5t138 132t55 208.5v921h91
q59 0 88 5q35 6 58 23t32 44t11.5 51.5t1.5 59.5z" />
    <glyph glyph-name="uni1EEB" unicode="&#x1eeb;" 
d="M605 1628l77 -358h-139l-146 358h208zM1141 1288l167 1q27 -203 -95 -277q-45 -26 -97 -33v-979h-190v132q-130 -162 -366 -162q-109 0 -191.5 39t-127.5 95t-73 131.5t-36.5 135.5t-8.5 121v614h217v-544q0 -57 6 -107t24.5 -103.5t48.5 -91.5t81.5 -62.5t119.5 -24.5
q126 0 203 86t77 271v576h108q20 2 29 4q35 6 58 23t32.5 44t12 51.5t1.5 59.5z" />
    <glyph glyph-name="uni1EEC" unicode="&#x1eec;" horiz-adv-x="1462" 
d="M792 1898q-16 33 -47 41.5t-62 -1.5t-59 -32l-60 107q53 49 122.5 64.5t135.5 -13t99 -100.5q36 -82 13.5 -148.5t-75.5 -110t-119 -56.5l-46 91q63 23 93 65.5t5 92.5zM1384 1658l167 1q27 -204 -94 -278q-54 -32 -138 -35v-803q0 -259 -163 -416.5t-425 -157.5
t-425 157.5t-163 416.5v931l217 1v-921q0 -91 32 -165.5t85 -121t118.5 -71.5t135.5 -25q95 0 178 42.5t138 132t55 208.5v921h91q59 0 88 5q35 6 58 23t32 44t11.5 51.5t1.5 59.5z" />
    <glyph glyph-name="uni1EED" unicode="&#x1eed;" 
d="M673 1535q-16 33 -47 41.5t-61.5 -2t-59.5 -32.5l-59 108q53 49 122 65t135.5 -12.5t99.5 -101.5q36 -82 14 -148.5t-75 -110t-119 -57.5l-48 91q64 23 94 65.5t4 93.5zM1141 1289l167 1q27 -203 -95 -277q-43 -24 -97 -32v-981h-190v132q-130 -162 -366 -162
q-109 0 -191.5 39t-127.5 95t-73 131.5t-36.5 135.5t-8.5 121v614h217v-544q0 -57 6 -107t24.5 -103.5t48.5 -91.5t81.5 -62.5t119.5 -24.5q126 0 203 86t77 271v576h49q59 0 88 5q35 6 58 23t32.5 44t12 51.5t1.5 59.5z" />
    <glyph glyph-name="uni1EEE" unicode="&#x1eee;" horiz-adv-x="1462" 
d="M557 1666h-139q-28 116 17 193t151 77q53 0 114.5 -33.5t114 -67t85.5 -33.5t46 32.5t0 79.5h139q29 -116 -16.5 -194t-152.5 -78q-42 0 -90 21t-83 46.5t-74 46.5t-66 21q-34 0 -46.5 -33.5t0.5 -77.5zM1384 1658l167 1q27 -204 -94 -278q-54 -32 -138 -35v-803
q0 -259 -163 -416.5t-425 -157.5t-425 157.5t-163 416.5v931l217 1v-921q0 -91 32 -165.5t85 -121t118.5 -71.5t135.5 -25q95 0 178 42.5t138 132t55 208.5v921h91q59 0 88 5q35 6 58 23t32 44t11.5 51.5t1.5 59.5z" />
    <glyph glyph-name="uni1EEF" unicode="&#x1eef;" 
d="M443 1297h-139q-28 116 17 193.5t151 77.5q53 0 114.5 -33.5t114 -67t85.5 -33.5t46.5 32t0.5 79h139q29 -116 -16.5 -193.5t-152.5 -77.5q-42 0 -90 21t-83.5 46t-74.5 46t-66 21q-34 0 -46.5 -33.5t0.5 -77.5zM1141 1289l167 1q27 -203 -95 -277q-43 -24 -97 -32v-981
h-190v132q-129 -162 -366 -162q-109 0 -191.5 39t-127.5 95t-73 131.5t-36.5 135.5t-8.5 121v614h217v-544q0 -57 6 -107t24.5 -103.5t48.5 -91.5t81.5 -62.5t119.5 -24.5q126 0 203 86t77 271v576h49q59 0 88 5q35 6 58 23t32.5 44t12 51.5t1.5 59.5z" />
    <glyph glyph-name="uni1EF0" unicode="&#x1ef0;" horiz-adv-x="1462" 
d="M1384 1658l167 1q27 -204 -94 -278q-54 -32 -138 -35v-803q0 -259 -163 -416.5t-425 -157.5t-425 157.5t-163 416.5v931l217 1v-921q0 -91 32 -165.5t85 -121t118.5 -71.5t135.5 -25q95 0 178 42.5t138 132t55 208.5v921h91q59 0 88 5q35 6 58 23t32 44t11.5 51.5
t1.5 59.5zM737 -160q58 0 96 -38t38 -95q0 -56 -38.5 -94t-95.5 -38t-95.5 38t-38.5 94q0 57 38 95t96 38z" />
    <glyph glyph-name="uni1EF1" unicode="&#x1ef1;" 
d="M1142 1289l167 1q27 -203 -95 -277q-46 -26 -98 -32v-981h-190v132q-130 -162 -366 -162q-109 0 -191.5 39t-127.5 95t-73 131.5t-36.5 135.5t-8.5 121v614h217v-544q0 -57 6 -107t24.5 -103.5t48.5 -91.5t81.5 -62.5t119.5 -24.5q126 0 203 86t77 271v576h50q59 0 87 5
q29 5 49.5 18t31.5 29t17 39.5t7 44t0 47.5zM639 -160q58 0 96 -38t38 -95q0 -56 -38.5 -94t-95.5 -38t-95 38t-38 94q0 57 38 95t95 38z" />
    <glyph glyph-name="Ygrave" unicode="&#x1ef2;" horiz-adv-x="1214" 
d="M381 1997l146 -359h139l-76 359h-209zM716 0h-217v609l-499 866h250l357 -620l358 620h249l-498 -866v-609z" />
    <glyph glyph-name="ygrave" unicode="&#x1ef3;" horiz-adv-x="1123" 
d="M558 1628l76 -358h-138l-147 358h209zM578 274l312 832h217l-610 -1598h-204l182 497l-447 1101h223z" />
    <glyph glyph-name="uni1EF4" unicode="&#x1ef4;" horiz-adv-x="1214" 
d="M716 0h-217v609l-499 866h250l357 -620l358 620h249l-498 -866v-609zM608 -425q-57 0 -95.5 38t-38.5 94q0 57 38 95t96 38t95.5 -38t37.5 -95q0 -56 -38 -94t-95 -38z" />
    <glyph glyph-name="uni1EF5" unicode="&#x1ef5;" horiz-adv-x="1123" 
d="M578 274l312 832h217l-610 -1598h-204l182 497l-447 1101h223zM890 -160q58 0 95.5 -38t37.5 -95q0 -56 -38 -94t-95 -38t-95.5 38t-38.5 94q0 57 38 95t96 38z" />
    <glyph glyph-name="uni1EF6" unicode="&#x1ef6;" horiz-adv-x="1214" 
d="M477 1906l-58 107q53 49 122 64.5t135 -13t99 -100.5q36 -82 14 -148.5t-75 -110t-119 -56.5l-47 91q64 23 93.5 65t3.5 93q-16 33 -47 41.5t-61.5 -1.5t-59.5 -32zM716 0h-217v609l-499 866h250l357 -620l358 620h249l-498 -866v-609z" />
    <glyph glyph-name="uni1EF7" unicode="&#x1ef7;" horiz-adv-x="1123" 
d="M611 1535q-16 33 -47 41.5t-61.5 -2t-59.5 -32.5l-58 108q53 49 122 65t135 -12.5t99 -101.5q36 -82 14 -148.5t-75 -110t-119 -57.5l-47 91q63 22 93 65t4 94zM578 274l312 832h217l-610 -1598h-204l182 497l-447 1101h223z" />
    <glyph glyph-name="uni1EF8" unicode="&#x1ef8;" horiz-adv-x="1214" 
d="M781 1642q-42 0 -90 21t-83.5 46.5t-74.5 46.5t-65 21q-34 0 -47 -33.5t1 -77.5h-139q-29 116 16 193t152 77q53 0 114.5 -33.5t114 -67t85.5 -33.5t46 33t-1 79h139q29 -116 -16 -194t-152 -78zM716 609v-609h-217v609l-499 866h250l357 -620l358 620h249z" />
    <glyph glyph-name="uni1EF9" unicode="&#x1ef9;" horiz-adv-x="1123" 
d="M738 1274q-53 0 -114 33.5t-113.5 67t-85.5 33.5q-34 0 -46.5 -33.5t0.5 -77.5h-139q-28 116 17 193.5t151 77.5q53 0 114.5 -33.5t114 -67t85.5 -33.5t46 32t0 79h139q29 -116 -16.5 -193.5t-152.5 -77.5zM251 1106l328 -831l311 831h217l-610 -1598h-204l182 497
l-447 1101h223z" />
    <glyph glyph-name="uni2011" unicode="&#x2011;" horiz-adv-x="860" 
d="M737 560h-614v172h614v-172z" />
    <glyph glyph-name="endash" unicode="&#x2013;" horiz-adv-x="1105" 
d="M983 560h-860v172h860v-172z" />
    <glyph glyph-name="emdash" unicode="&#x2014;" horiz-adv-x="1597" 
d="M1475 560h-1352v172h1352v-172z" />
    <glyph glyph-name="quoteleft" unicode="&#x2018;" horiz-adv-x="539" 
d="M95 1475h207l92 -554h-138z" />
    <glyph glyph-name="quoteright" unicode="&#x2019;" horiz-adv-x="539" 
d="M145 921l93 554h206l-160 -554h-139z" />
    <glyph glyph-name="quotesinglbase" unicode="&#x201a;" horiz-adv-x="594" 
d="M104 -306l93 553h206l-160 -553h-139z" />
    <glyph glyph-name="quotedblleft" unicode="&#x201c;" horiz-adv-x="869" 
d="M409 1541l-93 -553h-206l160 553h139zM724 1541l-92 -553h-207l161 553h138z" />
    <glyph glyph-name="quotedblright" unicode="&#x201d;" horiz-adv-x="869" 
d="M145 928l93 554h206l-160 -554h-139zM461 928l92 554h207l-161 -554h-138z" />
    <glyph glyph-name="quotedblbase" unicode="&#x201e;" horiz-adv-x="869" 
d="M145 -306l93 553h206l-160 -553h-139zM461 -306l92 553h207l-161 -553h-138z" />
    <glyph glyph-name="uni201F" unicode="&#x201f;" horiz-adv-x="870" 
d="M110 1482h206l93 -554h-139zM425 1482h207l92 -554h-138z" />
    <glyph glyph-name="dagger" unicode="&#x2020;" horiz-adv-x="1105" 
d="M660 1106h323v-172h-323v-934h-215v934h-322v172h322v369h215v-369z" />
    <glyph glyph-name="daggerdbl" unicode="&#x2021;" horiz-adv-x="910" 
d="M787 1072v-172h-225v-269h225v-172h-225v-459h-214v459h-224v172h224v269h-224v172h224v403h214v-403h225z" />
    <glyph glyph-name="bullet" unicode="&#x2022;" horiz-adv-x="1405" 
d="M709 372q-117 0 -198 78.5t-81 194.5q0 117 81 195.5t198 78.5q110 0 188.5 -79t78.5 -195q0 -115 -78.5 -194t-188.5 -79z" />
    <glyph glyph-name="ellipsis" unicode="&#x2026;" horiz-adv-x="1400" 
d="M278 -17q-57 0 -96 38.5t-39 94.5t38.5 94.5t96.5 38.5q57 0 95 -38t38 -95q0 -56 -38 -94.5t-95 -38.5zM700 -17q-57 0 -95.5 38.5t-38.5 94.5t38 94.5t96 38.5t96.5 -38.5t38.5 -94.5t-39 -94.5t-96 -38.5zM1123 -17q-57 0 -95 38.5t-38 94.5t38 94.5t95 38.5
t95.5 -38.5t38.5 -94.5t-38.5 -94.5t-95.5 -38.5z" />
    <glyph glyph-name="perthousand" unicode="&#x2030;" horiz-adv-x="2691" 
d="M492 768q-153 0 -261 108t-108 261q0 150 110 259t259 109q153 0 260.5 -107.5t107.5 -260.5t-108 -261t-260 -108zM1660 1330l-1332 -1330l-144 143l1333 1332zM492 953q74 0 128.5 55t54.5 129t-54.5 128.5t-128.5 54.5t-129 -54.5t-55 -128.5t55 -129t129 -55z
M1353 -31q-153 0 -261 108t-108 261q0 150 110.5 259.5t258.5 109.5q153 0 260.5 -107.5t107.5 -261.5t-107.5 -261.5t-260.5 -107.5zM2200 -31q-153 0 -261 108t-108 261q0 150 110.5 259.5t258.5 109.5q152 0 260 -107.5t108 -261.5t-108 -261.5t-260 -107.5zM1353 155
q74 0 128.5 54.5t54.5 128.5t-54.5 128.5t-128.5 54.5t-128.5 -54.5t-54.5 -128.5t54.5 -128.5t128.5 -54.5zM2200 155q74 0 128.5 54.5t54.5 128.5t-54.5 128.5t-128.5 54.5t-129 -54.5t-55 -128.5t55 -128.5t129 -54.5z" />
    <glyph glyph-name="guilsinglleft" unicode="&#x2039;" horiz-adv-x="1289" 
d="M908 290l-133 -133l-488 488l488 489l133 -134l-362 -355z" />
    <glyph glyph-name="guilsinglright" unicode="&#x203a;" horiz-adv-x="1290" 
d="M1002 645l-487 -488l-134 133l363 355l-363 355l134 134z" />
    <glyph glyph-name="fraction" unicode="&#x2044;" horiz-adv-x="497" 
d="M829 1385l-1031 -1385l-130 98l1031 1386z" />
    <glyph glyph-name="uni2060" unicode="&#x2060;" horiz-adv-x="0" 
 />
    <glyph glyph-name="uni2070" unicode="&#x2070;" horiz-adv-x="943" 
d="M472 529q-149 0 -239 93.5t-90 250.5v277q0 154 90.5 248.5t238.5 94.5q147 0 237.5 -93.5t90.5 -249.5v-277q0 -157 -88.5 -250.5t-239.5 -93.5zM472 667q83 0 132 55.5t49 149.5v279q0 92 -48.5 149t-132.5 57q-82 0 -131 -56t-49 -150v-279q0 -93 47.5 -149t132.5 -56
z" />
    <glyph glyph-name="uni2074" unicode="&#x2074;" horiz-adv-x="851" 
d="M660 553h-145v157h-413v136l298 629h165l-298 -629h248v245h145v-245h90v-136h-90v-157z" />
    <glyph glyph-name="uni2075" unicode="&#x2075;" horiz-adv-x="826" 
d="M426 1144q129 0 213.5 -85.5t84.5 -216.5q0 -128 -96 -219t-227 -91q-105 0 -187.5 63.5t-111.5 165.5l139 37q15 -57 62 -92t104 -35q71 0 121.5 50.5t50.5 120.5q0 71 -51 122t-121 51q-96 0 -150 -70l-124 43l28 487h499v-135h-372l-13 -241q64 45 151 45z" />
    <glyph glyph-name="uni2076" unicode="&#x2076;" horiz-adv-x="901" 
d="M484 1142q131 0 216 -86.5t85 -217.5q0 -130 -94 -221t-226 -91q-138 0 -230 94t-92 239v289q0 156 93 250.5t244 94.5t248 -104l-105 -102q-59 70 -143 70q-82 0 -135 -56.5t-53 -132.5v-104q81 78 192 78zM465 665q72 0 122.5 50.5t50.5 122.5q0 71 -51 121.5
t-122 50.5t-122 -50.5t-51 -121.5t50.5 -122t122.5 -51z" />
    <glyph glyph-name="uni2077" unicode="&#x2077;" horiz-adv-x="746" 
d="M324 553h-157l322 785h-407v137h562v-137z" />
    <glyph glyph-name="uni2078" unicode="&#x2078;" horiz-adv-x="873" 
d="M639 1043q112 -80 112 -227q0 -127 -88.5 -208.5t-226.5 -81.5q-137 0 -225 81.5t-88 208.5q0 148 109 227q-86 75 -86 190q0 118 80.5 189t209.5 71t209.5 -71t80.5 -189t-87 -190zM436 1356q-63 0 -99 -31t-36 -92t36 -92t99 -31t99.5 31t36.5 92t-36.5 92t-99.5 31z
M436 665q73 0 117 39.5t44 111.5q0 75 -44 115.5t-117 40.5t-116.5 -40.5t-43.5 -115.5q0 -72 43.5 -111.5t116.5 -39.5z" />
    <glyph glyph-name="uni2079" unicode="&#x2079;" horiz-adv-x="901" 
d="M436 1493q138 0 230 -94t92 -239v-289q0 -156 -93 -250.5t-244 -94.5q-150 0 -248 105l106 101q58 -69 142 -69q82 0 135 56t53 132v104q-80 -77 -192 -77q-131 0 -216 86.5t-85 217.5q0 130 94 220.5t226 90.5zM436 1010q71 0 122 50.5t51 121.5t-50.5 122t-122.5 51
t-122.5 -50.5t-50.5 -122.5q0 -71 51 -121.5t122 -50.5z" />
    <glyph glyph-name="uni2080" unicode="&#x2080;" horiz-adv-x="943" 
d="M472 -24q-149 0 -239 94t-90 251v276q0 154 90.5 248.5t238.5 94.5q147 0 237.5 -93.5t90.5 -249.5v-276q0 -157 -88.5 -251t-239.5 -94zM472 114q83 0 132 55.5t49 149.5v279q0 92 -48.5 149t-132.5 57q-82 0 -131 -56t-49 -150v-279q0 -93 47.5 -149t132.5 -56z" />
    <glyph glyph-name="uni2081" unicode="&#x2081;" horiz-adv-x="689" 
d="M443 0h-147v764l-173 -106v160l173 104h147v-922z" />
    </font>
</defs>
</svg>
