<svg width="184" height="32" viewBox="0 0 184 32" fill="none" xmlns="http://www.w3.org/2000/svg">
<path fill-rule="evenodd" clip-rule="evenodd" d="M14.4089 25.086L10.5085 25.0733V0H14.4089V25.086ZM24.4974 9.9485V23.3553C24.4974 24.5293 23.6862 25.9673 22.6872 26.5622L20.2979 27.9844V1.39031C22.8494 3.3501 24.4974 6.45524 24.4974 9.95169V9.9485ZM0 22.6808V9.99305C0 6.33116 4.365 0.989444 4.47317 1.23442C4.38409 1.4094 4.38409 10.3685 4.47317 28.118L2.38611 26.909C0.957627 26.0977 0 24.4625 0 22.6808ZM9.59854 18.0931V31.1818L5.39897 28.5952V6.86247C6.62703 5.95574 8.05234 5.3099 9.59854 5.00448V18.0931ZM15.2075 17.9595V4.85813C16.7601 5.189 18.1886 5.86348 19.4071 6.80202V28.3661L15.2075 30.9718V17.9595Z" fill="white"/>
<mask id="mask0_4_9279" style="mask-type:luminance" maskUnits="userSpaceOnUse" x="0" y="0" width="25" height="32">
<path d="M14.4089 25.086L10.5085 25.0733V0H14.4089V25.086ZM24.4974 9.9485V23.3553C24.4974 24.5293 23.6862 25.9673 22.6872 26.5622L20.2979 27.9844V1.39031C22.8494 3.3501 24.4974 6.45524 24.4974 9.95169V9.9485ZM0 22.6808V9.99305C0 6.33116 4.365 0.989444 4.47317 1.23442C4.38409 1.4094 4.38409 10.3685 4.47317 28.118L2.38611 26.909C0.957627 26.0977 0 24.4625 0 22.6808ZM9.59854 18.0931V31.1818L5.39897 28.5952V6.86247C6.62703 5.95574 8.05234 5.3099 9.59854 5.00448V18.0931ZM15.2075 17.9595V4.85813C16.7601 5.189 18.1886 5.86348 19.4071 6.80202V28.3661L15.2075 30.9718V17.9595Z" fill="white"/>
</mask>
<g mask="url(#mask0_4_9279)">
<path d="M572.668 -111.353H-270.426V762.284H572.668V-111.353Z" fill="white"/>
</g>
<path fill-rule="evenodd" clip-rule="evenodd" d="M124.223 24.5805V4.77259L127.262 3.5V24.5805H124.223ZM119.445 16.2864C119.426 15.0933 119.028 14.1389 118.245 13.4294C117.463 12.7199 116.511 12.3636 115.395 12.3636C114.278 12.3636 113.339 12.7199 112.582 13.4294C111.828 14.1389 111.395 15.0933 111.29 16.2864H119.448H119.445ZM115.341 24.8191C113.209 24.8191 111.475 24.1351 110.142 22.7639C108.809 21.3959 108.144 19.5761 108.144 17.314C108.144 15.052 108.818 13.2353 110.171 11.8768C111.52 10.5152 113.266 9.83434 115.407 9.83434C117.548 9.83434 119.286 10.4897 120.619 11.7973C121.952 13.1049 122.617 14.8134 122.617 16.9195C122.617 17.4285 122.582 17.9026 122.508 18.3416H111.262C111.332 19.5538 111.745 20.5146 112.503 21.2241C113.257 21.9367 114.205 22.2899 115.341 22.2899C116.992 22.2899 118.156 21.6154 118.834 20.2633H122.111C121.665 21.5963 120.857 22.6907 119.686 23.5434C118.516 24.396 117.065 24.8191 115.341 24.8191ZM96.277 10.0698V12.3604C97.2537 10.6743 98.819 9.83116 100.967 9.83116C102.618 9.83116 103.983 10.3752 105.058 11.4633C106.133 12.5513 106.671 14.0689 106.671 16.0191V24.5773H103.658V16.4646C103.658 15.1665 103.33 14.1675 102.672 13.474C102.013 12.7804 101.116 12.4336 99.9803 12.4336C98.8445 12.4336 97.941 12.7804 97.276 13.474C96.6111 14.1675 96.277 15.1633 96.277 16.4646V24.5773H93.2387V10.0666H96.277V10.0698ZM87.582 24.5805V10.0698H90.6203V24.5805H87.582ZM85.3804 12.5195H81.8076V20.5528C81.8076 21.0968 81.9349 21.4881 82.1926 21.7236C82.4503 21.959 82.8893 22.0799 83.5129 22.0799H85.3773V24.5805H82.9784C80.1533 24.5805 78.7407 23.2379 78.7407 20.5528V7.73456L81.8045 6.46196V10.0698H85.3773V12.5195H85.3804ZM66.9501 10.0698V12.3604C67.9268 10.6743 69.4921 9.83116 71.6428 9.83116C73.294 9.83116 74.6589 10.3752 75.7342 11.4633C76.8095 12.5513 77.3472 14.0689 77.3472 16.0191V24.5773H74.3343V16.4646C74.3343 15.1665 74.0066 14.1675 73.3481 13.474C72.6895 12.7804 71.7923 12.4336 70.6565 12.4336C69.5207 12.4336 68.6172 12.7804 67.9523 13.474C67.2873 14.1675 66.9533 15.1633 66.9533 16.4646V24.5773H63.915V10.0666H66.9533L66.9501 10.0698ZM59.1332 16.2864C59.1141 15.0933 58.7164 14.1389 57.9338 13.4294C57.1511 12.7199 56.1999 12.3636 55.0832 12.3636C53.9665 12.3636 53.0279 12.7199 52.2707 13.4294C51.5167 14.1389 51.084 15.0933 50.979 16.2864H59.1364H59.1332ZM55.0291 24.8191C52.8975 24.8191 51.1636 24.1351 49.8305 22.7639C48.4975 21.3959 47.8326 19.5761 47.8326 17.314C47.8326 15.052 48.507 13.2353 49.8592 11.8768C51.2081 10.5152 52.9547 9.83434 55.0959 9.83434C57.237 9.83434 58.9741 10.4897 60.3072 11.7973C61.6402 13.1049 62.3051 14.8134 62.3051 16.9195C62.3051 17.4285 62.2701 17.9026 62.197 18.3416H50.9504C51.0204 19.5538 51.434 20.5146 52.1912 21.2241C52.9452 21.9367 53.8933 22.2899 55.0291 22.2899C56.6803 22.2899 57.8447 21.6154 58.5192 20.2633H61.7961C61.3507 21.5963 60.5426 22.6907 59.3718 23.5434C58.1978 24.396 56.7503 24.8191 55.0259 24.8191H55.0291ZM39.882 8.49175C38.9753 8.49175 38.2372 8.72082 37.6709 9.17577C37.1014 9.63072 36.8182 10.2957 36.8182 11.1642C36.8182 12.0327 37.1555 12.6945 37.83 13.1526C38.5044 13.6076 39.3221 13.9416 40.2829 14.1548C41.2437 14.3648 42.2013 14.6066 43.1621 14.8802C44.1229 15.1538 44.9406 15.6565 45.6151 16.3946C46.2895 17.1327 46.6268 18.1762 46.6268 19.5283C46.6268 20.8805 46.0477 22.0926 44.8928 23.1616C43.738 24.2337 42.1918 24.7682 40.2543 24.7682C38.3167 24.7682 36.7451 24.3196 35.5361 23.4256C34.3271 22.5317 33.7227 21.294 33.7227 19.7129H36.9741C37.0441 20.5209 37.3464 21.1604 37.8809 21.6345C38.4154 22.1085 39.1948 22.3439 40.2256 22.3439C41.2564 22.3439 42.0677 22.0799 42.6658 21.5549C43.2607 21.0268 43.5598 20.4064 43.5598 19.6842C43.5598 18.962 43.3785 18.4021 43.0126 17.998C42.6467 17.594 42.1759 17.2917 41.6 17.0881C41.021 16.8877 40.3879 16.7064 39.6943 16.5473C39.0007 16.3882 38.304 16.2037 37.6009 15.9937C36.8978 15.7837 36.2583 15.5101 35.6825 15.1761C35.1034 14.842 34.6326 14.3552 34.2699 13.7157C33.9072 13.0763 33.7227 12.2905 33.7227 11.3583C33.7227 9.76117 34.3049 8.47585 35.4693 7.49913C36.6337 6.5256 38.1449 6.03883 39.9997 6.03883C41.8545 6.03883 43.3403 6.45879 44.4506 7.30188C45.561 8.14497 46.1782 9.36348 46.3023 10.9638H42.9426C42.8726 10.2607 42.5704 9.67208 42.0359 9.19804C41.5014 8.724 40.7824 8.48857 39.8757 8.48857L39.882 8.49175Z" fill="white"/>
<mask id="mask1_4_9279" style="mask-type:luminance" maskUnits="userSpaceOnUse" x="33" y="3" width="95" height="22">
<path d="M124.223 24.5805V4.77259L127.262 3.5V24.5805H124.223ZM119.445 16.2864C119.426 15.0933 119.028 14.1389 118.245 13.4294C117.463 12.7199 116.511 12.3636 115.395 12.3636C114.278 12.3636 113.339 12.7199 112.582 13.4294C111.828 14.1389 111.395 15.0933 111.29 16.2864H119.448H119.445ZM115.341 24.8191C113.209 24.8191 111.475 24.1351 110.142 22.7639C108.809 21.3959 108.144 19.5761 108.144 17.314C108.144 15.052 108.818 13.2353 110.171 11.8768C111.52 10.5152 113.266 9.83434 115.407 9.83434C117.548 9.83434 119.286 10.4897 120.619 11.7973C121.952 13.1049 122.617 14.8134 122.617 16.9195C122.617 17.4285 122.582 17.9026 122.508 18.3416H111.262C111.332 19.5538 111.745 20.5146 112.503 21.2241C113.257 21.9367 114.205 22.2899 115.341 22.2899C116.992 22.2899 118.156 21.6154 118.834 20.2633H122.111C121.665 21.5963 120.857 22.6907 119.686 23.5434C118.516 24.396 117.065 24.8191 115.341 24.8191ZM96.277 10.0698V12.3604C97.2537 10.6743 98.819 9.83116 100.967 9.83116C102.618 9.83116 103.983 10.3752 105.058 11.4633C106.133 12.5513 106.671 14.0689 106.671 16.0191V24.5773H103.658V16.4646C103.658 15.1665 103.33 14.1675 102.672 13.474C102.013 12.7804 101.116 12.4336 99.9803 12.4336C98.8445 12.4336 97.941 12.7804 97.276 13.474C96.6111 14.1675 96.277 15.1633 96.277 16.4646V24.5773H93.2387V10.0666H96.277V10.0698ZM87.582 24.5805V10.0698H90.6203V24.5805H87.582ZM85.3804 12.5195H81.8076V20.5528C81.8076 21.0968 81.9349 21.4881 82.1926 21.7236C82.4503 21.959 82.8893 22.0799 83.5129 22.0799H85.3773V24.5805H82.9784C80.1533 24.5805 78.7407 23.2379 78.7407 20.5528V7.73456L81.8045 6.46196V10.0698H85.3773V12.5195H85.3804ZM66.9501 10.0698V12.3604C67.9268 10.6743 69.4921 9.83116 71.6428 9.83116C73.294 9.83116 74.6589 10.3752 75.7342 11.4633C76.8095 12.5513 77.3472 14.0689 77.3472 16.0191V24.5773H74.3343V16.4646C74.3343 15.1665 74.0066 14.1675 73.3481 13.474C72.6895 12.7804 71.7923 12.4336 70.6565 12.4336C69.5207 12.4336 68.6172 12.7804 67.9523 13.474C67.2873 14.1675 66.9533 15.1633 66.9533 16.4646V24.5773H63.915V10.0666H66.9533L66.9501 10.0698ZM59.1332 16.2864C59.1141 15.0933 58.7164 14.1389 57.9338 13.4294C57.1511 12.7199 56.1999 12.3636 55.0832 12.3636C53.9665 12.3636 53.0279 12.7199 52.2707 13.4294C51.5167 14.1389 51.084 15.0933 50.979 16.2864H59.1364H59.1332ZM55.0291 24.8191C52.8975 24.8191 51.1636 24.1351 49.8305 22.7639C48.4975 21.3959 47.8326 19.5761 47.8326 17.314C47.8326 15.052 48.507 13.2353 49.8592 11.8768C51.2081 10.5152 52.9547 9.83434 55.0959 9.83434C57.237 9.83434 58.9741 10.4897 60.3072 11.7973C61.6402 13.1049 62.3051 14.8134 62.3051 16.9195C62.3051 17.4285 62.2701 17.9026 62.197 18.3416H50.9504C51.0204 19.5538 51.434 20.5146 52.1912 21.2241C52.9452 21.9367 53.8933 22.2899 55.0291 22.2899C56.6803 22.2899 57.8447 21.6154 58.5192 20.2633H61.7961C61.3507 21.5963 60.5426 22.6907 59.3718 23.5434C58.1978 24.396 56.7503 24.8191 55.0259 24.8191H55.0291ZM39.882 8.49175C38.9753 8.49175 38.2372 8.72082 37.6709 9.17577C37.1014 9.63072 36.8182 10.2957 36.8182 11.1642C36.8182 12.0327 37.1555 12.6945 37.83 13.1526C38.5044 13.6076 39.3221 13.9416 40.2829 14.1548C41.2437 14.3648 42.2013 14.6066 43.1621 14.8802C44.1229 15.1538 44.9406 15.6565 45.6151 16.3946C46.2895 17.1327 46.6268 18.1762 46.6268 19.5283C46.6268 20.8805 46.0477 22.0926 44.8928 23.1616C43.738 24.2337 42.1918 24.7682 40.2543 24.7682C38.3167 24.7682 36.7451 24.3196 35.5361 23.4256C34.3271 22.5317 33.7227 21.294 33.7227 19.7129H36.9741C37.0441 20.5209 37.3464 21.1604 37.8809 21.6345C38.4154 22.1085 39.1948 22.3439 40.2256 22.3439C41.2564 22.3439 42.0677 22.0799 42.6658 21.5549C43.2607 21.0268 43.5598 20.4064 43.5598 19.6842C43.5598 18.962 43.3785 18.4021 43.0126 17.998C42.6467 17.594 42.1759 17.2917 41.6 17.0881C41.021 16.8877 40.3879 16.7064 39.6943 16.5473C39.0007 16.3882 38.304 16.2037 37.6009 15.9937C36.8978 15.7837 36.2583 15.5101 35.6825 15.1761C35.1034 14.842 34.6326 14.3552 34.2699 13.7157C33.9072 13.0763 33.7227 12.2905 33.7227 11.3583C33.7227 9.76117 34.3049 8.47585 35.4693 7.49913C36.6337 6.5256 38.1449 6.03883 39.9997 6.03883C41.8545 6.03883 43.3403 6.45879 44.4506 7.30188C45.561 8.14497 46.1782 9.36348 46.3023 10.9638H42.9426C42.8726 10.2607 42.5704 9.67208 42.0359 9.19804C41.5014 8.724 40.7824 8.48857 39.8757 8.48857L39.882 8.49175Z" fill="white"/>
</mask>
<g mask="url(#mask1_4_9279)">
<path d="M572.668 -111.352H-270.426V762.285H572.668V-111.352Z" fill="white"/>
</g>
<path fill-rule="evenodd" clip-rule="evenodd" d="M171.746 10.8967C170.699 10.8967 169.742 11.113 168.87 11.5489C168.002 11.9848 167.295 12.6465 166.754 13.5341C166.214 14.4218 165.934 15.5194 165.915 16.8238H177.307C177.377 15.5194 177.158 14.4186 176.643 13.5214C176.127 12.6242 175.437 11.9625 174.565 11.5362C173.696 11.1099 172.755 10.8967 171.743 10.8967H171.746ZM171.692 23.4795C173.146 23.4795 174.371 23.1168 175.367 22.3946C176.359 21.6724 176.964 20.6861 177.177 19.4326H178.427C178.16 20.947 177.438 22.1655 176.258 23.0881C175.077 24.0108 173.572 24.4721 171.746 24.4721C170.378 24.4721 169.169 24.1794 168.113 23.5972C167.057 23.015 166.226 22.1751 165.625 21.0774C165.021 19.9798 164.721 18.685 164.721 17.1865C164.721 15.688 165.024 14.4186 165.625 13.3242C166.23 12.2266 167.057 11.3866 168.113 10.8044C169.169 10.2222 170.381 9.92951 171.746 9.92951C173.111 9.92951 174.358 10.2222 175.379 10.8044C176.401 11.3866 177.171 12.1534 177.696 13.1015C178.221 14.0495 178.481 15.0644 178.481 16.143C178.481 16.5788 178.437 17.0401 178.348 17.5269H165.915C165.934 18.8504 166.21 19.9607 166.754 20.8547C167.295 21.7519 167.995 22.4137 168.857 22.84C169.72 23.2663 170.665 23.4795 171.692 23.4795ZM156.885 9.82453C158.591 9.82453 159.975 10.3463 161.037 11.3898C162.103 12.4333 162.634 13.9732 162.634 16.0093V24.2844H161.435V16.0602C161.435 14.355 160.999 13.0537 160.131 12.1566C159.262 11.2594 158.072 10.8108 156.564 10.8108C155.056 10.8108 153.745 11.3103 152.797 12.3125C151.849 13.3146 151.372 14.7876 151.372 16.7379V24.2812H150.173V10.1045H151.372V13.8364C151.728 12.5129 152.406 11.5139 153.408 10.8331C154.41 10.1554 155.568 9.81499 156.882 9.81499L156.885 9.82453ZM138.856 7.1139C137.383 7.1139 136.056 7.45432 134.876 8.13198C133.696 8.80963 132.763 9.77681 132.079 11.0303C131.395 12.2838 131.055 13.7441 131.055 15.4176C131.055 17.091 131.395 18.5513 132.079 19.8049C132.763 21.0584 133.696 22.0223 134.876 22.7032C136.056 23.3808 137.383 23.7213 138.856 23.7213C140.329 23.7213 141.633 23.3808 142.823 22.7032C144.013 22.0255 144.949 21.0584 145.633 19.8049C146.317 18.5513 146.657 17.091 146.657 15.4176C146.657 13.7441 146.317 12.2838 145.633 11.0303C144.949 9.77681 144.013 8.81281 142.823 8.13198C141.633 7.45432 140.313 7.1139 138.856 7.1139ZM138.856 6.04492C140.577 6.04492 142.127 6.43943 143.501 7.23162C144.875 8.02381 145.951 9.13415 146.721 10.5595C147.494 11.9879 147.879 13.6041 147.879 15.4144C147.879 17.2247 147.494 18.844 146.721 20.2693C145.948 21.6978 144.875 22.8114 143.501 23.6099C142.127 24.4116 140.577 24.8093 138.856 24.8093C137.135 24.8093 135.585 24.4085 134.211 23.6099C132.837 22.8114 131.758 21.6947 130.975 20.2693C130.196 18.8409 129.805 17.2247 129.805 15.4144C129.805 13.6041 130.196 11.9848 130.975 10.5595C131.755 9.13096 132.833 8.02381 134.211 7.23162C135.589 6.43943 137.135 6.04492 138.856 6.04492Z" fill="white"/>
<mask id="mask2_4_9279" style="mask-type:luminance" maskUnits="userSpaceOnUse" x="129" y="6" width="50" height="19">
<path d="M171.746 10.8967C170.699 10.8967 169.742 11.113 168.87 11.5489C168.002 11.9848 167.295 12.6465 166.754 13.5341C166.214 14.4218 165.934 15.5194 165.915 16.8238H177.307C177.377 15.5194 177.158 14.4186 176.643 13.5214C176.127 12.6242 175.437 11.9625 174.565 11.5362C173.696 11.1099 172.755 10.8967 171.743 10.8967H171.746ZM171.692 23.4795C173.146 23.4795 174.371 23.1168 175.367 22.3946C176.359 21.6724 176.964 20.6861 177.177 19.4326H178.427C178.16 20.947 177.438 22.1655 176.258 23.0881C175.077 24.0108 173.572 24.4721 171.746 24.4721C170.378 24.4721 169.169 24.1794 168.113 23.5972C167.057 23.015 166.226 22.1751 165.625 21.0774C165.021 19.9798 164.721 18.685 164.721 17.1865C164.721 15.688 165.024 14.4186 165.625 13.3242C166.23 12.2266 167.057 11.3866 168.113 10.8044C169.169 10.2222 170.381 9.92951 171.746 9.92951C173.111 9.92951 174.358 10.2222 175.379 10.8044C176.401 11.3866 177.171 12.1534 177.696 13.1015C178.221 14.0495 178.481 15.0644 178.481 16.143C178.481 16.5788 178.437 17.0401 178.348 17.5269H165.915C165.934 18.8504 166.21 19.9607 166.754 20.8547C167.295 21.7519 167.995 22.4137 168.857 22.84C169.72 23.2663 170.665 23.4795 171.692 23.4795ZM156.885 9.82453C158.591 9.82453 159.975 10.3463 161.037 11.3898C162.103 12.4333 162.634 13.9732 162.634 16.0093V24.2844H161.435V16.0602C161.435 14.355 160.999 13.0537 160.131 12.1566C159.262 11.2594 158.072 10.8108 156.564 10.8108C155.056 10.8108 153.745 11.3103 152.797 12.3125C151.849 13.3146 151.372 14.7876 151.372 16.7379V24.2812H150.173V10.1045H151.372V13.8364C151.728 12.5129 152.406 11.5139 153.408 10.8331C154.41 10.1554 155.568 9.81499 156.882 9.81499L156.885 9.82453ZM138.856 7.1139C137.383 7.1139 136.056 7.45432 134.876 8.13198C133.696 8.80963 132.763 9.77681 132.079 11.0303C131.395 12.2838 131.055 13.7441 131.055 15.4176C131.055 17.091 131.395 18.5513 132.079 19.8049C132.763 21.0584 133.696 22.0223 134.876 22.7032C136.056 23.3808 137.383 23.7213 138.856 23.7213C140.329 23.7213 141.633 23.3808 142.823 22.7032C144.013 22.0255 144.949 21.0584 145.633 19.8049C146.317 18.5513 146.657 17.091 146.657 15.4176C146.657 13.7441 146.317 12.2838 145.633 11.0303C144.949 9.77681 144.013 8.81281 142.823 8.13198C141.633 7.45432 140.313 7.1139 138.856 7.1139ZM138.856 6.04492C140.577 6.04492 142.127 6.43943 143.501 7.23162C144.875 8.02381 145.951 9.13415 146.721 10.5595C147.494 11.9879 147.879 13.6041 147.879 15.4144C147.879 17.2247 147.494 18.844 146.721 20.2693C145.948 21.6978 144.875 22.8114 143.501 23.6099C142.127 24.4116 140.577 24.8093 138.856 24.8093C137.135 24.8093 135.585 24.4085 134.211 23.6099C132.837 22.8114 131.758 21.6947 130.975 20.2693C130.196 18.8409 129.805 17.2247 129.805 15.4144C129.805 13.6041 130.196 11.9848 130.975 10.5595C131.755 9.13096 132.833 8.02381 134.211 7.23162C135.589 6.43943 137.135 6.04492 138.856 6.04492Z" fill="white"/>
</mask>
<g mask="url(#mask2_4_9279)">
<path d="M572.668 -111.352H-270.426V762.285H572.668V-111.352Z" fill="white"/>
</g>
<path fill-rule="evenodd" clip-rule="evenodd" d="M178.699 10.3296V9.92871H180.236V10.3296H179.705L179.711 12.493H179.224V10.3296H178.699ZM183.567 9.92871V12.4898H183.077V10.7273L182.326 12.4898H181.97L181.225 10.6986V12.4898H180.748V9.92871H181.365L182.157 11.8567L182.962 9.92871H183.567Z" fill="white"/>
<mask id="mask3_4_9279" style="mask-type:luminance" maskUnits="userSpaceOnUse" x="178" y="9" width="6" height="4">
<path d="M178.699 10.3296V9.92871H180.236V10.3296H179.705L179.711 12.493H179.224V10.3296H178.699ZM183.567 9.92871V12.4898H183.077V10.7273L182.326 12.4898H181.97L181.225 10.6986V12.4898H180.748V9.92871H181.365L182.157 11.8567L182.962 9.92871H183.567Z" fill="white"/>
</mask>
<g mask="url(#mask3_4_9279)">
<path d="M495.917 -87.6953H-183.098V615.919H495.917V-87.6953Z" fill="white"/>
</g>
</svg>
