<svg width="108" height="37" viewBox="0 0 108 37" fill="none" xmlns="http://www.w3.org/2000/svg">
<path d="M64.9199 36.619H64.2539V28.3066H64.9199L69.734 35.4316V28.3066H70.3999V36.619H69.734L64.9199 29.4781V36.619Z" fill="#FAFAFA"/>
<path d="M72.3899 33.691C72.422 34.4693 72.6226 35.0791 72.9997 35.5043C73.3768 35.9296 73.9063 36.1462 74.5723 36.1462C75.0457 36.1462 75.4709 36.0339 75.832 35.8092C76.193 35.5846 76.4819 35.2636 76.6905 34.8384L77.2923 35.1031C77.0435 35.6407 76.6825 36.0499 76.2091 36.3468C75.7357 36.6437 75.1981 36.7881 74.5883 36.7881C73.9785 36.7881 73.4811 36.6517 73.0398 36.3869C72.5985 36.1221 72.2615 35.737 72.0288 35.2476C71.7961 34.7581 71.6758 34.1724 71.6758 33.5145C71.6758 32.8565 71.7961 32.2548 72.0288 31.7573C72.2615 31.2599 72.5985 30.8828 73.0318 30.618C73.465 30.3532 73.9866 30.2168 74.5723 30.2168C75.158 30.2168 75.6956 30.3532 76.1208 30.626C76.5461 30.8988 76.875 31.3 77.0997 31.8215C77.3163 32.343 77.4287 32.9689 77.4206 33.691H72.3819H72.3899ZM73.0558 31.4284C72.6787 31.8215 72.4621 32.3751 72.3979 33.0892H76.7065C76.6424 32.3511 76.4257 31.7974 76.0647 31.4123C75.7036 31.0272 75.2061 30.8346 74.5803 30.8346C73.9545 30.8346 73.4329 31.0272 73.0478 31.4203" fill="#FAFAFA"/>
<path d="M80.0699 30.995V34.7821C80.0699 34.9747 80.0699 35.1271 80.0939 35.2395C80.11 35.3518 80.1421 35.4561 80.1982 35.5604C80.2945 35.745 80.4309 35.8814 80.6074 35.9616C80.784 36.0418 81.0086 36.0819 81.2734 36.0819C81.49 36.0819 81.7307 36.0579 82.0035 36.0097V36.6115C81.7388 36.6677 81.474 36.6998 81.2092 36.6998C80.8321 36.6998 80.5031 36.6356 80.2143 36.4992C79.9254 36.3628 79.7249 36.1622 79.5885 35.8814C79.5082 35.7129 79.4521 35.5444 79.436 35.3678C79.4119 35.1913 79.4039 34.9667 79.4039 34.6939V30.995H78.0078V30.3932H79.4039V28.6602H80.0699V30.3932H82.0035V30.995H80.0699Z" fill="#FAFAFA"/>
<path d="M85.1446 36.621H84.5188L82.6172 30.3867H83.2992L84.8638 35.5057L86.4284 30.3867H87.0622L88.6349 35.5057L90.1994 30.3867H90.8734L88.9718 36.621H88.346L86.7493 31.4298L85.1446 36.621Z" fill="#FAFAFA"/>
<path d="M92.6837 36.3711C92.2504 36.0983 91.9134 35.7051 91.6888 35.2077C91.4641 34.7102 91.3438 34.1325 91.3438 33.4826C91.3438 32.8327 91.4561 32.263 91.6888 31.7656C91.9214 31.2681 92.2584 30.891 92.6917 30.6182C93.125 30.3454 93.6465 30.209 94.2403 30.209C94.834 30.209 95.3716 30.3454 95.8048 30.6182C96.2381 30.891 96.5751 31.2761 96.7998 31.7736C97.0244 32.271 97.1368 32.8407 97.1368 33.4826C97.1368 34.1245 97.0244 34.7182 96.7917 35.2157C96.5591 35.7131 96.2301 36.0983 95.7968 36.3711C95.3636 36.6439 94.842 36.7803 94.2403 36.7803C93.6385 36.7803 93.117 36.6439 92.6837 36.363M95.4518 35.8014C95.7808 35.5767 96.0215 35.2718 96.19 34.8787C96.3504 34.4855 96.4387 34.0202 96.4387 33.4826C96.4387 32.6642 96.2542 32.0223 95.8771 31.5489C95.508 31.0836 94.9624 30.8509 94.2483 30.8509C93.7669 30.8509 93.3577 30.9632 93.0287 31.1798C92.6997 31.3965 92.459 31.7094 92.2986 32.1025C92.1381 32.4957 92.0579 32.9611 92.0579 33.4826C92.0579 34.0041 92.1381 34.4855 92.3066 34.8867C92.4751 35.2879 92.7238 35.5928 93.0447 35.8094C93.3737 36.0261 93.7749 36.1384 94.2403 36.1384C94.7056 36.1384 95.1228 36.0261 95.4518 35.8094" fill="#FAFAFA"/>
<path d="M100.087 30.4487C100.336 30.3604 100.593 30.3203 100.841 30.3203C101.018 30.3203 101.178 30.3444 101.323 30.3845V31.0103C101.146 30.9702 100.986 30.9542 100.833 30.9542C100.416 30.9542 100.063 31.0825 99.7581 31.3313C99.5575 31.5078 99.4051 31.7084 99.3088 31.9491C99.2125 32.1818 99.1403 32.4305 99.1162 32.6792C99.0841 32.928 99.0761 33.2088 99.0761 33.5297V36.6188H98.4102V30.3845H99.0199V31.3634C99.1483 31.1387 99.2927 30.9542 99.4612 30.8178C99.6378 30.6573 99.8464 30.5369 100.095 30.4487" fill="#FAFAFA"/>
<path d="M107.1 36.619H106.257L103.666 33.4899L103.072 34.0435V36.619H102.422V28.3066H103.072V33.209L106.089 30.3847H106.955L104.139 33.0486L107.1 36.619Z" fill="#FAFAFA"/>
<path d="M0.240707 11.3203C0.0802355 12.1548 0 13.0213 0 13.8959C0 19.063 2.82429 23.5643 7.00456 25.9633L6.83607 18.1082C6.83607 14.4254 3.89142 11.4246 0.240707 11.3203Z" fill="#8049E9"/>
<path d="M11.2372 10.1658V4.37284H24.0107C21.4753 1.68495 17.8807 0 13.9011 0C9.70474 0 5.95774 1.85344 3.40625 4.79006C6.61567 5.60044 9.36775 7.54214 11.2372 10.1658Z" fill="#8049E9"/>
<path d="M34.3672 4.1875H48.5127V8.46405H39.3097V12.2191H46.6593V16.3512H39.3097V24.2785H34.3672V4.1875Z" fill="#FAFAFA"/>
<path d="M47.125 16.696C47.125 12.275 50.7436 8.80078 55.3652 8.80078C59.9868 8.80078 63.6054 12.275 63.6054 16.696C63.6054 21.1169 59.9868 24.559 55.3652 24.559C50.7436 24.559 47.125 21.1169 47.125 16.696ZM59.064 16.696C59.064 14.5135 57.4272 12.8206 55.3652 12.8206C53.3031 12.8206 51.6663 14.5135 51.6663 16.696C51.6663 18.8784 53.271 20.5392 55.3652 20.5392C57.4593 20.5392 59.064 18.8463 59.064 16.696Z" fill="#FAFAFA"/>
<path d="M63.9455 16.696C63.9455 12.2429 67.4438 8.80078 71.9851 8.80078C74.4804 8.80078 76.8394 9.83582 78.412 11.617L75.5716 14.5697C74.5125 13.3662 73.4454 12.8206 72.0975 12.8206C70.0916 12.8206 68.5671 14.4815 68.5671 16.696C68.5671 18.9105 70.1156 20.5392 72.2098 20.5392C73.4695 20.5392 74.5045 20.0257 75.5075 18.9024L78.2595 21.7749C76.711 23.524 74.3842 24.559 71.9771 24.559C67.4438 24.559 63.9375 21.141 63.9375 16.696" fill="#FAFAFA"/>
<path d="M78.8596 18.4531V9.09766H83.5132V17.7952C83.5132 19.3357 84.7729 20.5954 86.3135 20.5794C87.4689 20.5713 88.3755 20.1381 88.9933 19.3758V9.09766H93.639V21.8551C93.639 23.195 92.5478 24.2862 91.2078 24.2862H88.9853V22.2964C88.9853 22.2964 88.6563 24.5751 84.9093 24.5751C81.1623 24.5751 78.8516 22.0477 78.8516 18.4611" fill="#FAFAFA"/>
<path d="M93.9844 22.5872L96.1989 19.4581C98.1245 20.6054 99.5848 21.0949 101.133 21.0949C102.682 21.0949 103.629 20.6375 103.629 19.8913C103.629 19.3136 103.139 18.9766 102.08 18.8001L99.0633 18.3428C96.0464 17.8854 94.4176 16.3048 94.4176 13.8095C94.4176 10.7365 96.8889 8.875 100.965 8.875C103.171 8.875 105.41 9.50886 107.312 10.7124L105.097 13.6972C103.46 12.7504 102 12.3171 100.508 12.3171C99.304 12.3171 98.5257 12.7504 98.5257 13.4083C98.5257 14.0662 99.0151 14.3551 100.307 14.5557L103.324 15.013C106.309 15.4463 108.002 17.051 108.002 19.434C108.002 22.3867 105.105 24.5691 101.173 24.5691C98.301 24.5691 95.7736 23.879 94.0004 22.5872" fill="#FAFAFA"/>
<path d="M24.0761 4.4375V7.89565C24.0761 9.78118 22.5436 11.3137 20.658 11.3137H11.9766C12.6826 12.5493 13.2042 13.8973 13.501 15.3335H20.9148V18.904C20.9148 20.7895 19.3823 22.322 17.4968 22.322H13.83L13.9905 27.8021C21.6289 27.7539 27.807 21.5517 27.807 13.9053C27.807 10.2466 26.3949 6.91678 24.0841 4.4375" fill="#8049E9"/>
</svg>
